<svg xmlns="http://www.w3.org/2000/svg" xmlns:xlink="http://www.w3.org/1999/xlink" viewBox="0 0 4680 3120"><defs><style>.cls-1{fill:none;clip-rule:evenodd;}.cls-2,.cls-8{fill:#fff;}.cls-2{opacity:0;}.cls-3{fill:#e4f6f8;fill-rule:evenodd;}.cls-4{clip-path:url(#clip-path);}.cls-5{fill:#c7e1e2;}.cls-6{fill:#c2ebe0;}.cls-7{opacity:0.5;}.cls-9{fill:#0a4944;}.cls-10{fill:#0e6864;}.cls-11{fill:#1daaa6;}.cls-12{fill:#b73108;}.cls-13{fill:#f25619;}.cls-14{fill:#c1211e;}.cls-15{fill:#edb183;}.cls-16{fill:#bc835c;}.cls-17{fill:#93dbd7;}.cls-18{fill:#78c4bf;}.cls-19{fill:#23b9ba;}.cls-20{fill:#fba000;}.cls-21{fill:#ffb845;}.cls-22{fill:#364547;}.cls-23{fill:#a3af0b;}.cls-24{fill:#eff275;}.cls-25{fill:#dcdfe5;}.cls-26{fill:#8b8e0a;}.cls-27{fill:#75750a;}.cls-28{fill:#b6cc17;}.cls-29{fill:#3c7219;}.cls-30{fill:#c7c365;}.cls-31{fill:#be5712;}.cls-32{opacity:0.6;}.cls-33{fill:#602904;}.cls-34{fill:#6b2f05;}.cls-35{fill:#913f07;}.cls-36{fill:#f5ae97;}.cls-37{fill:#ffc05d;}.cls-38{fill:#ffa829;}.cls-39{fill:#82484d;}.cls-40{fill:#542b30;}.cls-41{fill:#db4516;}.cls-42{fill:#e88503;}.cls-43{fill:#ed856e;}.cls-44{fill:#072c35;}.cls-45{fill:#cb6655;}.cls-46{fill:#131e36;}</style><clipPath id="clip-path"><path class="cls-1" d="M3301.31,2596.65l-1721.82,51.91S825.18,2445.8,962,1766.32q1.2-6,2.44-11.92c136.07-657.25,496-899.19,763.21-1192.07C2035,225.59,2613.29,188.68,3107.25,766.45c274.51,321.1,559.92,707.36,617,1066.77C3769.94,2120.54,3669.68,2390.69,3301.31,2596.65Z"/></clipPath></defs><title>06</title><g id="_06" data-name="06"><rect class="cls-2" width="4680" height="3120"/><path class="cls-3" d="M3301.31,2596.65l-1721.82,51.91S825.18,2445.8,962,1766.32q1.2-6,2.44-11.92c136.07-657.25,496-899.19,763.21-1192.07C2035,225.59,2613.29,188.68,3107.25,766.45c274.51,321.1,559.92,707.36,617,1066.77C3769.94,2120.54,3669.68,2390.69,3301.31,2596.65Z"/><g class="cls-4"><rect class="cls-5" x="2990.02" y="97.96" width="2.93" height="2795.01"/><rect class="cls-5" x="3198.08" y="97.96" width="2.93" height="2795.01"/><rect class="cls-5" x="3406.14" y="97.96" width="2.93" height="2795.01"/><rect class="cls-5" x="3614.2" y="97.96" width="2.93" height="2795.01"/><rect class="cls-5" x="3822.25" y="97.96" width="2.93" height="2795.01"/><rect class="cls-5" x="4030.31" y="97.96" width="2.93" height="2795.01"/><rect class="cls-5" x="2776.29" y="97.96" width="2.93" height="2795.01"/><rect class="cls-5" x="2562.55" y="97.96" width="2.93" height="2795.01"/><rect class="cls-5" x="2348.82" y="97.96" width="2.93" height="2795.01"/><rect class="cls-5" x="2135.08" y="97.96" width="2.93" height="2795.01"/><rect class="cls-5" x="1921.35" y="97.96" width="2.93" height="2795.01"/><rect class="cls-5" x="1707.61" y="97.96" width="2.93" height="2795.01"/><rect class="cls-5" x="1493.88" y="97.96" width="2.93" height="2795.01"/><rect class="cls-5" x="1280.14" y="97.96" width="2.93" height="2795.01"/><rect class="cls-5" x="1066.41" y="97.96" width="2.93" height="2795.01"/><rect class="cls-5" x="852.67" y="97.96" width="2.93" height="2795.01"/><rect class="cls-5" x="525.31" y="2711.78" width="3656.17" height="2.93"/><rect class="cls-5" x="525.31" y="2498.05" width="3656.17" height="2.93"/><rect class="cls-5" x="525.31" y="2284.31" width="3656.17" height="2.93"/><rect class="cls-5" x="525.31" y="2070.58" width="3656.17" height="2.93"/><rect class="cls-5" x="525.31" y="1856.84" width="3656.17" height="2.93"/><rect class="cls-5" x="525.31" y="1643.11" width="3656.17" height="2.93"/><rect class="cls-5" x="525.31" y="1429.37" width="3656.17" height="2.93"/><rect class="cls-5" x="525.31" y="1215.64" width="3656.17" height="2.93"/><rect class="cls-5" x="525.31" y="1001.9" width="3656.17" height="2.93"/><rect class="cls-5" x="525.31" y="788.17" width="3656.17" height="2.93"/><rect class="cls-5" x="525.31" y="574.43" width="3656.17" height="2.93"/><rect class="cls-5" x="525.31" y="395.72" width="3656.17" height="2.93"/><rect class="cls-5" x="525.31" y="217.01" width="3656.17" height="2.93"/><rect class="cls-6" x="2647.31" y="496.24" width="1238.16" height="969.28"/><g class="cls-7"><polygon class="cls-8" points="3061.24 496.24 2647.31 849.77 2647.31 693.45 2878.2 496.24 3061.24 496.24"/></g><g class="cls-7"><polygon class="cls-8" points="3876.48 496.24 2741.6 1465.52 2647.31 1465.52 2647.31 1389.74 3693.45 496.24 3876.48 496.24"/></g><g class="cls-7"><polygon class="cls-8" points="3885.46 876.7 3885.46 1033.02 3379.08 1465.52 3196.05 1465.52 3885.46 876.7"/></g><g class="cls-7"><polygon class="cls-8" points="3885.46 757.74 3885.46 812.84 3121.28 1465.52 3056.76 1465.52 3885.46 757.74"/></g><g class="cls-7"><polygon class="cls-8" points="3251.79 496.24 2647.31 1012.52 2647.31 915.78 3138.53 496.24 3251.79 496.24"/></g><path class="cls-9" d="M3893.68,479.2H2690.61a46.48,46.48,0,0,0-46.48,46.49V1437.9a46.48,46.48,0,0,0,46.48,46.49H3893.68a46.48,46.48,0,0,0,46.49-46.49V525.69A46.48,46.48,0,0,0,3893.68,479.2Zm-615.34,965.16H2690.61a6.47,6.47,0,0,1-6.46-6.46V1000.82h594.19Zm0-483.57H2684.15V525.69a6.47,6.47,0,0,1,6.46-6.46h587.73Zm621.8,477.11a6.47,6.47,0,0,1-6.46,6.46H3318.36V1000.82h581.78Zm0-477.11H3318.36V519.23h575.32a6.47,6.47,0,0,1,6.46,6.46Z"/><path class="cls-10" d="M3867.47,479.2H2664.4a46.48,46.48,0,0,0-46.49,46.49V1437.9a46.48,46.48,0,0,0,46.49,46.49H3867.47A46.48,46.48,0,0,0,3914,1437.9V525.69A46.48,46.48,0,0,0,3867.47,479.2Zm-615.35,965.16H2664.4a6.47,6.47,0,0,1-6.46-6.46V1000.82h594.18Zm0-483.57H2657.94V525.69a6.47,6.47,0,0,1,6.46-6.46h587.72Zm621.81,477.11a6.47,6.47,0,0,1-6.46,6.46H3292.15V1000.82h581.78Zm0-477.11H3292.15V519.23h575.32a6.47,6.47,0,0,1,6.46,6.46Z"/></g><rect class="cls-10" x="2882.12" y="1190.14" width="70.44" height="87.16"/><rect class="cls-11" x="2856.23" y="1190.14" width="70.44" height="87.16"/><path class="cls-12" d="M2928.45,1251.92h-167a31,31,0,0,0-25.88,13.83c-19.28,29-53.53,110.23-28.36,303,15.58,119.37-29.5,203-76.41,255.82-24.56,27.65-5.08,71.31,31.9,71.31h325.47a42.78,42.78,0,0,0,39.22-25.67c27.67-63.51,93.47-229.68,69.56-324.16-22.7-89.73,8.62-212.21,25.17-266.4a21.48,21.48,0,0,0-20.55-27.75Z"/><path class="cls-13" d="M2876.63,1251.92h-167a31,31,0,0,0-25.88,13.83c-19.28,29-53.53,110.23-28.37,303,15.59,119.37-29.49,203-76.4,255.82-24.56,27.65-5.08,71.31,31.9,71.31h325.46a42.76,42.76,0,0,0,39.22-25.67c27.67-63.51,93.47-229.68,69.57-324.16-22.7-89.73,8.62-212.21,25.17-266.4a21.48,21.48,0,0,0-20.56-27.75Z"/><path class="cls-12" d="M3024.45,1218.34H2826.68a14.29,14.29,0,0,1-13.23-8.8,170.86,170.86,0,0,1-.25-129.52,14.34,14.34,0,0,1,13.23-8.81H3024.2a14.32,14.32,0,0,1,13.59,18.88,170.9,170.9,0,0,0,.23,109.32A14.33,14.33,0,0,1,3024.45,1218.34Z"/><path class="cls-13" d="M2991.64,1218.34H2793.87a14.26,14.26,0,0,1-13.22-8.8,170.76,170.76,0,0,1-.25-129.52,14.32,14.32,0,0,1,13.23-8.81H2991.4a14.33,14.33,0,0,1,13.59,18.88,171,171,0,0,0,.22,109.32A14.33,14.33,0,0,1,2991.64,1218.34Z"/><rect class="cls-12" x="2704.47" y="1314.69" width="310.01" height="16.03" rx="8.02"/><rect class="cls-12" x="2686.14" y="1374.18" width="310.01" height="16.03" rx="8.02"/><rect class="cls-12" x="2680.03" y="1436.86" width="310.01" height="16.03" rx="8.02"/><rect class="cls-12" x="2686.14" y="1498.71" width="310.01" height="16.03" rx="8.02"/><rect class="cls-12" x="2695.98" y="1565.89" width="310.01" height="16.03" rx="8.02"/><rect class="cls-12" x="2695.98" y="1635.38" width="310.01" height="16.03" rx="8.02"/><rect class="cls-14" x="2680.03" y="1700.28" width="310.01" height="16.03" rx="8.02"/><rect class="cls-14" x="2655.6" y="1762.13" width="310.01" height="16.03" rx="8.02"/><ellipse class="cls-15" cx="2341.38" cy="2664.33" rx="1225.22" ry="137.11"/><ellipse class="cls-16" cx="2369.51" cy="2678.43" rx="968.98" ry="65.6"/><rect class="cls-11" x="1259" y="547.09" width="1042.99" height="903.78" rx="48.17"/><path class="cls-17" d="M2265.7,595.27V1402.7a48.33,48.33,0,0,1-48.18,48.18H1270.87a48.31,48.31,0,0,1-48.16-48.18V595.27a48.31,48.31,0,0,1,48.16-48.18h946.65a48.34,48.34,0,0,1,48.18,48.18Z"/><path class="cls-18" d="M2265.7,595.27V1402.7a48.33,48.33,0,0,1-48.18,48.18H1270.87a48.16,48.16,0,0,1-37.92-18.57h0L2246.66,557A48.15,48.15,0,0,1,2265.7,595.27Z"/><rect class="cls-10" x="1310.11" y="629.55" width="893.51" height="26.39" rx="13.2"/><rect class="cls-10" x="1320.27" y="874.38" width="763.22" height="137.52" rx="25.98"/><rect class="cls-10" x="1310.11" y="744.74" width="763.46" height="26.39" rx="13.2"/><rect class="cls-10" x="1388.31" y="1050" width="550.06" height="26.39" rx="13.2"/><rect class="cls-10" x="1426" y="817.01" width="59.73" height="8.31" rx="4.15" transform="translate(-56.12 1533.73) rotate(-54.66)"/><rect class="cls-10" x="1310.11" y="806.22" width="121.78" height="26.39" rx="13.2"/><rect class="cls-10" x="1488.36" y="806.22" width="191.32" height="26.39" rx="13.2"/><rect class="cls-10" x="1310.11" y="683.35" width="586.82" height="26.39" rx="13.2"/><circle class="cls-10" cx="1335.65" cy="1063.19" r="22.1"/><rect class="cls-10" x="1388.31" y="1140.47" width="327.27" height="26.39" rx="13.2"/><circle class="cls-10" cx="1335.65" cy="1153.67" r="22.1"/><rect class="cls-10" x="1388.31" y="1230.95" width="120.35" height="26.39" rx="13.2"/><circle class="cls-10" cx="1335.65" cy="1244.14" r="22.1"/><rect class="cls-13" x="1295.55" y="620.11" width="893.51" height="26.39" rx="13.2"/><rect class="cls-8" x="1295.55" y="864.94" width="763.22" height="137.52" rx="25.98"/><rect class="cls-13" x="1295.55" y="735.3" width="763.46" height="26.39" rx="13.2"/><rect class="cls-19" x="1373.75" y="1040.56" width="550.06" height="26.39" rx="13.2"/><rect class="cls-8" x="1411.44" y="807.57" width="59.73" height="8.31" rx="4.15" transform="translate(-54.56 1517.87) rotate(-54.66)"/><rect class="cls-8" x="1295.55" y="796.78" width="121.78" height="26.39" rx="13.2"/><rect class="cls-8" x="1473.8" y="796.78" width="191.32" height="26.39" rx="13.2"/><rect class="cls-8" x="1295.55" y="673.91" width="586.82" height="26.39" rx="13.2"/><circle class="cls-19" cx="1321.09" cy="1053.75" r="22.1"/><rect class="cls-8" x="1373.75" y="1131.03" width="327.27" height="26.39" rx="13.2"/><circle class="cls-8" cx="1321.09" cy="1144.23" r="22.1"/><rect class="cls-8" x="1373.75" y="1221.51" width="120.35" height="26.39" rx="13.2"/><circle class="cls-8" cx="1321.09" cy="1234.7" r="22.1"/><rect class="cls-11" x="1512.66" y="1736.61" width="1721.11" height="939.55"/><rect class="cls-17" x="1512.66" y="1736.61" width="1188.26" height="939.55"/><path class="cls-18" d="M2552.91,1736.61s-78,283.88-266.3,521c-6-12.92-12.46-26.87-16.48-35.52,3.88-2.68,7.73-5.55,11.54-8.68l3.36-468.83h-210.1c-12.48,187.29-25.53,468.83-25.53,468.83a229.13,229.13,0,0,0,30.31,16L2076,2250c-32.35,4.94-54.43,16.42-69.83,30.25l1.6-71.52,4-.48,22.67-463.67H1859.11c-3.55,27.67-6.92,59.23-10,95.2-26.48,310.47-28.31,333.63-28.31,333.63s1,3.73,5.43,8.92l-5.91,8c-83.51-27.55-133.51,25.24-151.65,60.43,39.91,44.68,115.93,73.27,171.66,85.07h0c44.16,6,93.41-4.49,137.11-13.83-8.67,17.92-12.13,47.34-10.87,49.11,55.51,22.5,136.36,14.62,191.57.63h0a268.85,268.85,0,0,0,47.07-22.41c-162.74,163.1-389.14,275.7-692.56,200.84v125.95H2700.92V1736.61Z"/><path class="cls-10" d="M3293.91,1704.26a40.42,40.42,0,0,1-40.31,40.31H1472.38a40.31,40.31,0,0,1,0-80.62H3253.6A40.44,40.44,0,0,1,3293.91,1704.26Z"/><path class="cls-9" d="M3293.91,1704.26a40.42,40.42,0,0,1-40.31,40.31H2535.5a40.31,40.31,0,0,1,0-80.62h718.1A40.44,40.44,0,0,1,3293.91,1704.26Z"/><path class="cls-8" d="M1851.77,1587.71H1639.84c-11.26,0-20.37-12.53-20.37-28a33.3,33.3,0,0,1,6.36-20.18c3.78-5,8.76-7.72,14-7.72h211.89a26.65,26.65,0,0,0-5.3,5.26,37.46,37.46,0,0,0-7.19,22.64C1839.24,1571.76,1844.29,1582.24,1851.77,1587.71Z"/><path class="cls-20" d="M1863.07,1587.71l.41,8.13a7.22,7.22,0,0,1-1.39.09H1639.84a23.93,23.93,0,0,1-13.26-4.11,32.66,32.66,0,0,1-4.9-4.11c-6.37-6.66-10.43-16.73-10.43-28a41.23,41.23,0,0,1,8-25.15,25.7,25.7,0,0,1,2.38-2.75,25.39,25.39,0,0,1,4.94-4.11,23.9,23.9,0,0,1,13.22-4.11h222.25a8.11,8.11,0,0,1,1.39.08l-.41,8.14H1639.84c-5.25,0-10.23,2.75-14,7.72a33.3,33.3,0,0,0-6.36,20.18c0,15.42,9.11,28,20.37,28Z"/><path class="cls-21" d="M1626.58,1591.82a23.93,23.93,0,0,0,13.26,4.11h-71.38c-15.78,0-28.64-16.24-28.64-36.17s12.86-36.12,28.64-36.12h71.38a23.9,23.9,0,0,0-13.22,4.11,25.39,25.39,0,0,0-4.94,4.11,25.7,25.7,0,0,0-2.38,2.75,41.23,41.23,0,0,0-8,25.15c0,11.22,4.06,21.29,10.43,28A32.66,32.66,0,0,0,1626.58,1591.82Z"/><path class="cls-8" d="M1869.22,1660H1658c-11.26,0-20.38-12.54-20.38-27.91a33.51,33.51,0,0,1,6.37-20.22c3.78-5,8.75-7.72,14-7.72h211.19a25.63,25.63,0,0,0-5.3,5.26,37.51,37.51,0,0,0-7.19,22.68C1856.69,1644.09,1861.74,1654.53,1869.22,1660Z"/><path class="cls-22" d="M1880.81,1660l-.08,8.22H1658a24,24,0,0,1-13.27-4.11,32.59,32.59,0,0,1-4.89-4.11c-6.37-6.62-10.44-16.69-10.44-27.91a41.76,41.76,0,0,1,8-25.19,27.47,27.47,0,0,1,2.38-2.75,25.92,25.92,0,0,1,5-4.11,23.86,23.86,0,0,1,13.23-4.11h222.74l.08,8.22H1658c-5.26,0-10.23,2.75-14,7.72a33.51,33.51,0,0,0-6.37,20.22c0,15.37,9.12,27.91,20.38,27.91Z"/><path class="cls-23" d="M1644.72,1664.11a24,24,0,0,0,13.27,4.11H1525c-15.78,0-28.64-16.2-28.64-36.13s12.86-36.16,28.64-36.16h133a23.86,23.86,0,0,0-13.23,4.11,25.92,25.92,0,0,0-5,4.11,27.47,27.47,0,0,0-2.38,2.75,41.76,41.76,0,0,0-8,25.19c0,11.22,4.07,21.29,10.44,27.91A32.59,32.59,0,0,0,1644.72,1664.11Z"/><path class="cls-8" d="M1607.91,1587.71h-12.7a52.08,52.08,0,0,1,0-55.85h12.7a51.86,51.86,0,0,0,0,55.85Z"/><path class="cls-8" d="M1584.44,1587.71h-20.79s0-.08-.09-.13c-7-4.85-11.64-14-11.64-27.8,0-13.65,5.52-22.38,11.6-27.8,0,0,0-.08.09-.12h20.79a51.86,51.86,0,0,0,0,55.85Z"/><path class="cls-24" d="M1561.5,1660h-32.14c-11.1,0-20.42-12.78-20.42-27.91s9.32-27.94,20.42-27.94h32.09a52.1,52.1,0,0,0,0,55.85Z"/><path class="cls-24" d="M1619.47,1660H1590.7a52.08,52.08,0,0,1,0-55.85h28.77a52.08,52.08,0,0,0,0,55.85Z"/><path class="cls-25" d="M1851.84,1531.87a26.92,26.92,0,0,0-5.3,5.26,36.14,36.14,0,0,0-7,18.33L1720,1587.72H1640c-11.25,0-20.38-12.53-20.38-27.94a33.26,33.26,0,0,1,6.37-20.18c3.78-5,8.75-7.73,14-7.73Z"/><path class="cls-25" d="M1869.3,1604.16a25.59,25.59,0,0,0-5.29,5.26,36.63,36.63,0,0,0-7,18.66L1737.76,1660h-79.64c-11.26,0-20.39-12.53-20.39-27.9a33.47,33.47,0,0,1,6.38-20.22c3.78-5,8.75-7.73,14-7.73Z"/><path class="cls-26" d="M2873.81,1949.18s38-134.86,19.42-244.2-31.21-179.21-29.89-202.31c0,0-50,92.49-79,144.88-64,115.59-87.59,208.75-49.25,314.87,0,0-6.48,54.56-6.32,57S2778,2082,2778,2082l90.21-41.21Z"/><path class="cls-27" d="M2798.35,2102s51.83-289.69,51.6-463.07c0,0-37,306.64-94.95,443.1Z"/><path class="cls-23" d="M2836.16,2095.49l.29,68.76.29,76.33-25.88,4.26s-10.39-10.52-26-24.48c-24-21.46-60.33-51.05-89.72-62.53-48.42-18.94-124.23-92.42-182-224.21-2-4.63-4.14-9.06-6.32-13.27-59.39-116.28-166.75-86.47-166.75-86.47,87.34-28.44,161.62-27.32,224-9.36h0C2756.85,1879.93,2836.16,2095.49,2836.16,2095.49Z"/><path class="cls-26" d="M2836.45,2164.25l.29,76.33-25.88,4.26s-10.39-10.52-26-24.48c-174.83-340.9-285.14-383.36-288.6-384.64C2663.41,1874.66,2792.69,2084.48,2836.45,2164.25Z"/><path class="cls-23" d="M2749.11,2134.52l17.31,63.05,19.23,70,24.79-2.71s6.83-12.29,17.53-29c16.52-25.8,42.21-62.18,66.2-80.21,39.52-29.71,90.17-116.39,109.42-251.86q1-7.15,2.39-13.77c24.69-121.69,130.65-121.8,130.65-121.8-87.27-3.75-155,16.26-207.6,48.66h0C2766.67,1916.81,2749.11,2134.52,2749.11,2134.52Z"/><path class="cls-26" d="M2766.42,2197.57l19.23,70,24.79-2.71s6.83-12.29,17.53-29c73-356.92,163.22-424,166.06-426.05C2850.92,1888.1,2786.12,2113.33,2766.42,2197.57Z"/><path class="cls-22" d="M2468.67,2009.49s240.67,33.81,325.52,209.2C2794.19,2218.69,2720.54,2069.34,2468.67,2009.49Z"/><path class="cls-22" d="M2495.23,1976.88c3.72,22,13.63,27.62,18.25,29a2.43,2.43,0,0,0,3.11-1.9c.85-4.76.39-16.14-17.48-29.52A2.45,2.45,0,0,0,2495.23,1976.88Z"/><path class="cls-22" d="M2523,1983.83c2,22.24,11.43,28.61,15.92,30.4a2.43,2.43,0,0,0,3.25-1.65c1.22-4.68,1.65-16.07-15.11-30.8A2.45,2.45,0,0,0,2523,1983.83Z"/><path class="cls-22" d="M2554.56,1995.42c-1.55,19.88,5.82,26.89,9.51,29.13a2.17,2.17,0,0,0,3.11-1c1.77-3.94,3.84-13.9-8.74-29.37A2.19,2.19,0,0,0,2554.56,1995.42Z"/><path class="cls-22" d="M2583.55,2004.71c-5.45,19.17.39,27.51,3.56,30.43a2.17,2.17,0,0,0,3.24-.33c2.51-3.52,6.51-12.87-2.76-30.52A2.19,2.19,0,0,0,2583.55,2004.71Z"/><path class="cls-22" d="M2611.49,2016.3c-7.84,17-3.62,25.63-1.09,28.81a2.06,2.06,0,0,0,3.07.16c2.84-2.91,7.91-11,1.84-28.78A2.06,2.06,0,0,0,2611.49,2016.3Z"/><path class="cls-22" d="M2645.55,2024.37c-15.46,10.63-16.22,20.17-15.68,24.2a2,2,0,0,0,2.55,1.7c3.93-1,12.44-5.42,16.31-23.78A2.06,2.06,0,0,0,2645.55,2024.37Z"/><path class="cls-22" d="M2467.25,2039.72c16.39-15.19,27.68-13.59,32.22-11.9a2.44,2.44,0,0,1,1.31,3.41c-2.24,4.29-9.56,13-31.9,12.74A2.45,2.45,0,0,1,2467.25,2039.72Z"/><path class="cls-22" d="M2493.53,2051.16c15.15-16.42,26.53-15.71,31.19-14.39a2.44,2.44,0,0,1,1.57,3.3c-1.89,4.46-8.5,13.75-30.8,15.2A2.45,2.45,0,0,1,2493.53,2051.16Z"/><path class="cls-22" d="M2525.64,2061.25c10.91-16.72,21-17.78,25.34-17.3a2.17,2.17,0,0,1,1.87,2.67c-1,4.21-5.45,13.37-24.88,18A2.19,2.19,0,0,1,2525.64,2061.25Z"/><path class="cls-22" d="M2554.31,2071.59c7.39-18.54,17.11-21.59,21.41-22a2.17,2.17,0,0,1,2.37,2.25c-.16,4.32-2.7,14.18-20.84,22.52A2.19,2.19,0,0,1,2554.31,2071.59Z"/><path class="cls-22" d="M2582.55,2088c1.44-19.91,9.78-25.76,13.77-27.42a2.17,2.17,0,0,1,2.94,1.42c1.15,4.17,1.72,14.34-13.05,27.77A2.19,2.19,0,0,1,2582.55,2088Z"/><path class="cls-22" d="M2610.34,2099.24c-.45-20,7.3-26.56,11.12-28.6a2.17,2.17,0,0,1,3.05,1.14c1.55,4,3.07,14.11-10.36,28.88A2.19,2.19,0,0,1,2610.34,2099.24Z"/><path class="cls-22" d="M3114.48,1832.38s-272.72,147.63-296,395.14C2818.44,2227.52,2840,2016.14,3114.48,1832.38Z"/><path class="cls-22" d="M3068.19,1805.22c5.36,28-4,39.1-8.88,42.87a3.11,3.11,0,0,1-4.57-.88c-3.13-5.32-7.65-19.14,7.75-43.09A3.13,3.13,0,0,1,3068.19,1805.22Z"/><path class="cls-22" d="M3038.08,1825.91c7.53,27.47-.92,39.3-5.49,43.44a3.11,3.11,0,0,1-4.63-.53c-3.54-5.06-9.13-18.47,4.36-43.56A3.12,3.12,0,0,1,3038.08,1825.91Z"/><path class="cls-22" d="M3005.5,1853.82c10.71,23.08,5,34.75,1.61,39.07a2.78,2.78,0,0,1-4.15.23c-3.87-3.93-10.78-14.92-2.63-39A2.79,2.79,0,0,1,3005.5,1853.82Z"/><path class="cls-22" d="M2975,1877.84c15.06,20.5,11.79,33.07,9.3,38a2.77,2.77,0,0,1-4,1c-4.56-3.09-13.51-12.49-10.28-37.72A2.79,2.79,0,0,1,2975,1877.84Z"/><path class="cls-22" d="M2946.73,1904.15c17,16.88,15.75,29,14.14,34a2.61,2.61,0,0,1-3.59,1.55c-4.69-2.21-14.37-9.65-15-33.58A2.62,2.62,0,0,1,2946.73,1904.15Z"/><path class="cls-22" d="M2909.61,1929c23.22,5.82,28.38,16.89,29.52,22a2.61,2.61,0,0,1-2.29,3.17c-5.16.5-17.29-.94-30.09-21.17A2.63,2.63,0,0,1,2909.61,1929Z"/><path class="cls-22" d="M3129.64,1867.9c-26.37-10.86-39.16-3.92-43.83.12a3.12,3.12,0,0,0,0,4.66c4.59,4.14,17.24,11.34,43.82,1A3.12,3.12,0,0,0,3129.64,1867.9Z"/><path class="cls-22" d="M3103.31,1893.29c-25.43-12.89-38.73-7-43.7-3.31a3.11,3.11,0,0,0-.42,4.64c4.26,4.48,16.3,12.65,43.61,4.45A3.12,3.12,0,0,0,3103.31,1893.29Z"/><path class="cls-22" d="M3069.41,1919.65c-20.49-15.13-33.07-11.88-38-9.4a2.78,2.78,0,0,0-1,4c3.08,4.58,12.47,13.56,37.74,10.39A2.79,2.79,0,0,0,3069.41,1919.65Z"/><path class="cls-22" d="M3039.74,1944.78c-17.1-18.88-30.08-18.19-35.4-16.72a2.78,2.78,0,0,0-1.82,3.74c2.11,5.09,9.54,15.76,34.94,17.64A2.79,2.79,0,0,0,3039.74,1944.78Z"/><path class="cls-22" d="M3013.29,1977c-10.59-23.17-23.17-26.44-28.68-26.65a2.77,2.77,0,0,0-2.87,3c.47,5.5,4.33,17.91,28,27.39A2.79,2.79,0,0,0,3013.29,1977Z"/><path class="cls-22" d="M2985.05,2002.8c-8.34-24.06-20.55-28.51-26-29.24a2.78,2.78,0,0,0-3.15,2.73c-.05,5.51,2.62,18.24,25.26,29.91A2.79,2.79,0,0,0,2985.05,2002.8Z"/><path class="cls-28" d="M2455.41,2340.9c40.86-45.05,177.92-179.11,319.05-124.81q7.9,3,15.82,6.86a17,17,0,0,0,5.91,1.72c3.12.26,7.18-.27,9.32-4.16a9.73,9.73,0,0,0-.59-9.86,306.4,306.4,0,0,0-39.05-47.81c-39.58-39.59-105.23-82.67-185.73-49.82-107.83,44-130.81,173.93-135.69,223A6.32,6.32,0,0,0,2455.41,2340.9Z"/><path class="cls-24" d="M2502.26,2228.52c8-11.17,122.24-154.75,272.2-12.43q7.9,3,15.82,6.86a17,17,0,0,0,5.91,1.72c3.12.26,7.18-.27,9.32-4.16a9.73,9.73,0,0,0-.59-9.86S2643.39,2031.84,2502.26,2228.52Z"/><path class="cls-29" d="M2501.84,2229.11c.14-.2.26-.4.42-.59C2502,2228.81,2501.91,2229,2501.84,2229.11Z"/><path class="cls-28" d="M3201.79,2156.34c-64.41-13.29-269.63-43-358.29,94.46-3.31,5.11-6.47,10.47-9.43,16.08a18.53,18.53,0,0,1-4.07,5.27c-2.56,2.22-6.44,4.34-10.79,2.31a10.54,10.54,0,0,1-5.78-9,331.14,331.14,0,0,1,3.62-66.66c9.32-59.83,39.19-139.33,130.47-162,122.24-30.35,225.18,68.5,260.73,108.24A6.84,6.84,0,0,1,3201.79,2156.34Z"/><path class="cls-24" d="M3089.21,2088.06c-14.26-4.28-205.47-57.22-245.71,162.74-3.31,5.11-6.47,10.47-9.43,16.08a18.53,18.53,0,0,1-4.07,5.27c-2.56,2.22-6.44,4.34-10.79,2.31a10.54,10.54,0,0,1-5.78-9,331.14,331.14,0,0,1,3.62-66.66C2843.28,2125.6,2911.9,2028.94,3089.21,2088.06Z"/><path class="cls-22" d="M2589.09,1623.37s310.18,373,200.13,746C2789.22,2369.32,2880.86,2049.84,2589.09,1623.37Z"/><path class="cls-22" d="M2672.1,1610.84c-24,37.51-16.94,59.11-12,67.42a4.86,4.86,0,0,0,7.15,1.37c7.64-5.9,22.24-23.33,13.79-67.08A4.89,4.89,0,0,0,2672.1,1610.84Z"/><path class="cls-22" d="M2703.8,1658.4c-26.92,35.51-21.52,57.6-17.28,66.27a4.86,4.86,0,0,0,7,1.93c8.08-5.29,24-21.52,19-65.8A4.88,4.88,0,0,0,2703.8,1658.4Z"/><path class="cls-22" d="M2734.87,1717.87c-29,27.28-27.5,47.54-25,55.8a4.34,4.34,0,0,0,5.9,2.74c7.9-3.46,24.33-15.39,26.5-55.13A4.36,4.36,0,0,0,2734.87,1717.87Z"/><path class="cls-22" d="M2765.23,1770.5c-33.79,21-36.35,41.16-35.59,49.75a4.35,4.35,0,0,0,5.24,3.85c8.43-1.83,26.89-10.28,36.88-48.8A4.37,4.37,0,0,0,2765.23,1770.5Z"/><path class="cls-22" d="M2791,1825.13c-34.46,14.65-39.75,33-40.28,41.1a4.08,4.08,0,0,0,4.31,4.34c8.1-.48,26.49-5.67,41.35-40A4.11,4.11,0,0,0,2791,1825.13Z"/><path class="cls-22" d="M2830.43,1882.76c-37.1-5-51,8-55.64,14.71a4.09,4.09,0,0,0,1.49,5.94c7.2,3.73,25.66,8.68,56-13.26A4.1,4.1,0,0,0,2830.43,1882.76Z"/><path class="cls-22" d="M2546.42,1666.12c44.6-.43,59.14,17.09,63.58,25.67a4.87,4.87,0,0,1-2.64,6.8c-9.08,3.33-31.63,6.44-64.23-24A4.9,4.9,0,0,1,2546.42,1666.12Z"/><path class="cls-22" d="M2569.89,1718.31c44.43-3.93,60.29,12.39,65.39,20.6a4.88,4.88,0,0,1-2.1,7c-8.78,4-31,8.9-65.91-18.9A4.89,4.89,0,0,1,2569.89,1718.31Z"/><path class="cls-22" d="M2603.79,1776.3c38.55-10,54.94,2,60.65,8.45a4.36,4.36,0,0,1-.82,6.47c-7.13,4.85-26,12.44-60.85-6.87A4.37,4.37,0,0,1,2603.79,1776.3Z"/><path class="cls-22" d="M2632.26,1830.05c35.81-17.47,54.25-8.92,61.13-3.71a4.35,4.35,0,0,1,.48,6.5c-6,6.17-23,17.34-61,5.3A4.37,4.37,0,0,1,2632.26,1830.05Z"/><path class="cls-22" d="M2651.93,1892.25c28.84-27.49,49-24.92,57.14-22a4.35,4.35,0,0,1,2.42,6c-3.88,7.71-16.7,23.49-56.54,23.51A4.37,4.37,0,0,1,2651.93,1892.25Z"/><path class="cls-22" d="M2677.94,1946.11c26.11-30.1,46.43-29.45,54.8-27.33a4.34,4.34,0,0,1,3,5.79c-3.14,8-14.41,25-54.07,28.75A4.37,4.37,0,0,1,2677.94,1946.11Z"/><path class="cls-30" d="M2957.23,2299.61h-.05l.05,0Z"/><path class="cls-31" d="M2657.69,2299.6l38.53,379.82a502.27,502.27,0,0,0,220.81.37l1.63-.37,34.43-335.77,4.09-44.05Z"/><g class="cls-32"><path class="cls-33" d="M2657.69,2299.6l38.53,379.82a500.15,500.15,0,0,0,53.63,9.15c-61.08-489.65,203.24-344.92,203.24-344.92l4.09-44.05Z"/></g><path class="cls-34" d="M2638.33,2224.75v55.14A19.7,19.7,0,0,0,2658,2299.6l108.07,4.1q41.31,1.56,82.65,0l108.12-4.1a19.7,19.7,0,0,0,19.71-19.71v-55.14a19.7,19.7,0,0,0-19.71-19.71l-109,4.09q-41.31,1.56-82.65,0L2658,2205A19.7,19.7,0,0,0,2638.33,2224.75Z"/><path class="cls-35" d="M2638.33,2224.75V2254a19.71,19.71,0,0,0,19.71,19.71l108.07,4.09q41.31,1.57,82.65,0l108.12-4.09a19.71,19.71,0,0,0,19.71-19.71v-29.21a19.7,19.7,0,0,0-19.71-19.71l-109,4.09q-41.31,1.56-82.65,0L2658,2205A19.7,19.7,0,0,0,2638.33,2224.75Z"/><polygon class="cls-36" points="2149.91 1175.05 2100.45 1308.73 2117.07 1364.33 2192.15 1395.55 2218.37 1222.1 2198.22 1152.8 2149.91 1175.05"/><path class="cls-37" d="M1604.86,2218.18c38.46,43.52,113.44,72.07,167.16,84.18,1.45.32,3,.62,4.49.89h0c55.41,9.51,165.07-20.75,165.07-20.75l.72-32.27,2.22-99.3-55.66-62-99.22,23.7-33.14,45.08c-73.65-23.21-112,11.49-133.25,33.79C1610.11,2205.33,1604.86,2218.18,1604.86,2218.18Z"/><path class="cls-38" d="M1604.86,2218.18c38.46,43.52,113.44,72.07,167.16,84.18,1.45.32,3,.62,4.49.89h0c34.32-116-20-145.49-20-145.49-73.65-23.21-112,11.49-133.25,33.79C1610.11,2205.33,1604.86,2218.18,1604.86,2218.18Z"/><path class="cls-8" d="M1604.86,2218.18c38.46,43.52,113.44,72.07,167.16,84.18s169.57-19.87,169.57-19.87l.72-32.27s-109.81,49.85-190.93,18.19-101.12-46.67-128.12-76.87C1610.11,2205.33,1604.86,2218.18,1604.86,2218.18Z"/><path class="cls-39" d="M2219.68,1514.82l-87.43,81.11h0l-77.93,72.3h-66.9l-39.48,507.41c-39.64,5-71.12,6-96.09,4.53-85.67-5.11-94.86-39.37-94.86-39.37s1.84-23.16,28.32-333.61,75.26-291.57,75.26-291.57Z"/><path class="cls-40" d="M2132.24,1595.93l-77.93,72.3h-66.9l-39.48,507.41c-39.64,5-71.12,6-96.09,4.53L1933,1632.3a29.65,29.65,0,0,1,27.42-25.25Z"/><path class="cls-37" d="M1902.76,2338.52c53.71,22.1,133.59,14.63,187.15,1.81,1.44-.35,2.92-.74,4.42-1.19h0c53.93-15.91,139-91.45,139-91.45l-13.59-29.27-41.81-90.09-77.27-31-78.6,65-9.85,55.08c-76.34,11.65-95.45,59.71-104.68,89.1C1901.8,2324.67,1902.76,2338.52,1902.76,2338.52Z"/><path class="cls-38" d="M1902.76,2338.52c53.71,22.1,133.59,14.63,187.15,1.81,1.44-.35,2.92-.74,4.42-1.19h0c-20.35-119.21-82.13-121.74-82.13-121.74-76.34,11.65-95.45,59.71-104.68,89.1C1901.8,2324.67,1902.76,2338.52,1902.76,2338.52Z"/><path class="cls-8" d="M1902.76,2338.52c53.71,22.1,133.59,14.63,187.15,1.81s143.41-92.64,143.41-92.64l-13.59-29.27s-76.55,93.18-163.32,100.55-111.35,2.72-148.89-12.47C1901.8,2324.67,1902.76,2338.52,1902.76,2338.52Z"/><path class="cls-39" d="M2383,1664H2221.54l-3.69,516.86a166.7,166.7,0,0,1-39.31,24.22h0c-94.19,41.1-193-24.23-193-24.23s15.91-325.27,28.39-512.58,122.26-152.61,122.26-152.61l83.46-.8L2363,1460.46l117.87,91C2486.21,1661.45,2383,1664,2383,1664Z"/><path class="cls-40" d="M2383,1664H2221.54l-3.69,516.86a166.7,166.7,0,0,1-39.31,24.22l25.17-573s253.29,54.4,277.16-80.66C2486.21,1661.45,2383,1664,2383,1664Z"/><path class="cls-37" d="M2480.87,1551.41c-15.29,10-80.56-2.36-120.55-56s-202.89-34.62-186.41-49.9c16.33-15.17,44-220.23,44.45-223.43v0a66.94,66.94,0,0,0-17.42-24.21c-21.74-19.46-51-22.82-51-22.82s18.1-48.23,43.61-98.21c18.1-35.5,38.59-50.54,48.93-56.27a40.62,40.62,0,0,1,6.76-3.14L2340,999s3.5.17,9.43,1c21.85,2.87,76.72,14,111.4,55.66C2504.89,1108.52,2480.87,1551.41,2480.87,1551.41Z"/><polygon class="cls-13" points="2382.98 1427.94 2149.91 1427.94 2105.89 1452.01 2113.26 1483.43 2174.82 1506.84 2236.39 1496.9 2362.99 1443.99 2382.98 1427.94"/><rect class="cls-41" x="1840.36" y="1491.09" width="381.18" height="24.53" rx="12.27"/><rect class="cls-12" x="2197.27" y="1459.48" width="202.73" height="24.53" rx="12.27" transform="translate(-372.56 910.97) rotate(-20.77)"/><polygon class="cls-42" points="2377.55 1149.16 2335.61 1274.17 2231.03 1349.61 2173.27 1362.77 2168.13 1417.51 2212.57 1438.56 2320.64 1403.47 2401.1 1311.75 2415.6 1232.72 2409.52 1137.28 2377.55 1149.16"/><path class="cls-42" d="M2475.28,1131.75s9,91.74-40.8,199l-96.43,97.21h-91.39l4.42-53.76,47.56-21.69L2409,1251.92l17-115.09Z"/><path class="cls-36" d="M2456.16,1246.67l-17,54.85a57.36,57.36,0,0,1-14.52,23.85l-104.19,102.57-73.81,33.92-50.22-25-2.36-64.81,39.25-15.25L2340,1281.4h0l6.53-4.62,2.29-7.14,19.71-61.51,17.91-46.5,54.53,30.92Z"/><path class="cls-37" d="M2444.39,1039.18s-47.33-29.23-57.55,44.91-18.31,124-18.31,124,54.4-22.81,87.63,38.54C2456.16,1246.67,2506.41,1079.92,2444.39,1039.18Z"/><path class="cls-43" d="M2378.67,1295.63c-21.11-12.17-38.67-14.23-38.67-14.23l6.53-4.62,2.29-7.14C2375.39,1272.06,2378.67,1295.63,2378.67,1295.63Z"/><path class="cls-12" d="M2225.9,1491.09H1846.5a20.77,20.77,0,0,1-19.87-14.76l-72.87-241.45a20.75,20.75,0,0,1,19.87-26.75H2153a20.76,20.76,0,0,1,19.87,14.75l72.87,241.46A20.75,20.75,0,0,1,2225.9,1491.09Z"/><path class="cls-13" d="M2213.55,1491.09h-379.4a20.75,20.75,0,0,1-19.86-14.76l-72.88-241.45a20.75,20.75,0,0,1,19.87-26.75h379.39a20.75,20.75,0,0,1,19.87,14.75l72.88,241.46A20.76,20.76,0,0,1,2213.55,1491.09Z"/><path class="cls-42" d="M2234.31,1109.92l-15.94,112.17a66.94,66.94,0,0,0-17.42-24.21Z"/><path class="cls-42" d="M2349.39,999.94s-25.41,56.89-64.49,59.88-42.44-39.24-42.44-39.24a40.62,40.62,0,0,1,6.76-3.14L2340,999S2343.46,999.15,2349.39,999.94Z"/><path class="cls-36" d="M2355.09,902.82c-.06,0-.05.07-.1.08-1.86,1.86-3.74,3.65-5.59,5.21a110,110,0,0,1-14.46,10.5,7.34,7.34,0,0,0-3.55,6.79c.66,12.75,3,49.14,8.56,73.58-19,29.25-34.87,43.18-47.51,48.84-16,7.16-34.6-1.74-39.65-18.51L2242.45,995c-68.21,17.53-96.39-111.46-96.39-111.46l-7.34-90,81.49-45.36,93.5,94.44S2349,809.53,2368.09,853C2377.05,873.39,2367,890.78,2355.09,902.82Z"/><path class="cls-43" d="M2247.77,1012.67c50.76-26.34,40.25-61.75,40.25-61.75-12.56,33.79-37.9,42.19-45.56,44.08Z"/><path class="cls-43" d="M2329.24,864c-3.42-5.45,2.13-12.38,8.22-10.29,5.05,1.74,10,6.76,9.09,20.09-1.84,25.89-17.37,17.9-17.9,10.24s5.6-12.23.74-19.81Z"/><path class="cls-44" d="M2217.79,867.24a8.23,8.23,0,0,1,2.55-5.31,10.24,10.24,0,0,1,6.27-2.88c4.53-.53,11.12,1.72,12.67,6.29.64,1.88,3.31,2.46,4.93,1.66,2-1,2.3-3,1.66-4.92-1.35-4-5-6.61-8.64-8.33a22.17,22.17,0,0,0-12-1.92c-7.57.9-14.15,7.11-14.77,14.83-.37,4.72,7,5.3,7.34.58Z"/><path class="cls-44" d="M2157.26,876.64c.35-4,5-8.14,8.85-8.94,4.43-.92,9,2.62,11.75,6.33a3.72,3.72,0,0,0,5.19.35,3.76,3.76,0,0,0,.34-5.19c-4.26-5.7-11.74-10.42-19.09-8.61-6.93,1.71-13.73,8.14-14.37,15.48a3.68,3.68,0,1,0,7.33.58Z"/><ellipse class="cls-44" cx="2171.47" cy="896.83" rx="6.55" ry="10.45" transform="translate(-130.16 425.58) rotate(-10.87)"/><ellipse class="cls-44" cx="2230.43" cy="885.5" rx="6.91" ry="11.02" transform="translate(-126.97 436.5) rotate(-10.87)"/><path class="cls-45" d="M2196.38,944.17l41.15-13.63a4.13,4.13,0,0,1,5.43,3.51c.87,9.69.55,30.22-17.12,34.79s-27.9-11-31.88-18.92A4.13,4.13,0,0,1,2196.38,944.17Z"/><path class="cls-43" d="M2349.4,908.11a110,110,0,0,1-14.46,10.5s-15.17,4.29-20.43-9.73C2315.8,910,2329.61,921.43,2349.4,908.11Z"/><path class="cls-43" d="M2312.43,846.64s-25.14,34.66-76.11-6.82c0,0-26.5-21.73-36-38.07-7.54-13-13,6.93-10.8,13,0,0-18.56-32.21-26.93,1.08,0,0-2.8,7.61-4.72,48.91l-22.71-72.26L2169.75,749l79-19.77,41.66,23.52,44.06,39.58Z"/><path class="cls-46" d="M2363,827.63c-1.38,3.74-3,7.64-4.71,11.63,0,0-18-22-44.32,5.94-24.74,26.19-92.81-13-107.5-50.46-2.61-6.74-11.09-9.73-16.5-4.85-2.51,2.21-4.55,6-5.19,12,0,0-12.42-21.93-24.38,4.68s8.28,67.47-12.36,87.25c-16.43,15.79-28.42,1.08-34.84-23.32a170.83,170.83,0,0,1-3.68-20.08c-4.27-35-26.29-53-1.48-77.27,0,0,9.9-72.28,63.66-51.22,0,0,34.14-45.85,91.61-42.87S2336,723.1,2336,723.1,2396.86,737.34,2363,827.63Z"/><path d="M2363,827.63c-1.38,3.74-3,7.64-4.71,11.63,0,0-18-22-44.32,5.94-24.74,26.19-92.81-13-107.5-50.46-2.61-6.74-11.09-9.73-16.5-4.85-2.51,2.21-4.55,6-5.19,12,0,0-12.42-21.93-24.38,4.68s8.28,67.47-12.36,87.25c-16.43,15.79-28.42,1.08-34.84-23.32l0-.07s16.43,29.43,29.47,9.38-9.6-126.39,38.36-90.62c0,0,13.35-33.41,32.78,1s71,56,89.46,39.84,50.17-16.94,58.22-4.35A23.32,23.32,0,0,0,2363,827.63Z"/><path d="M2226.71,762s26.29,60.24,93.2,45.86C2319.91,807.87,2268.4,801.89,2226.71,762Z"/><path d="M2339.92,737.24s30.38,12.7,16.21,67.24C2356.13,804.48,2359.52,764,2339.92,737.24Z"/><path d="M2170.11,732.9s-42.07-17.6-52.21,41.33C2117.9,774.23,2126.79,736.29,2170.11,732.9Z"/><path d="M2322.82,722.62s-48.07-53.83-124.34-3.53C2198.48,719.09,2268.89,687.34,2322.82,722.62Z"/><rect class="cls-42" x="2509.98" y="322.12" width="939.01" height="569.39" rx="42.19"/><path class="cls-37" d="M3410.94,364.31v485a42.32,42.32,0,0,1-42.19,42.19H2514.1a42.33,42.33,0,0,1-42.18-42.19v-485a42.31,42.31,0,0,1,42.18-42.19h854.65a42.31,42.31,0,0,1,42.19,42.19Z"/><path class="cls-38" d="M3410.94,364.31v485a42.32,42.32,0,0,1-42.19,42.19H2514.1a42.15,42.15,0,0,1-33.87-17.14L3399.91,336h0A42,42,0,0,1,3410.94,364.31Z"/><path class="cls-42" d="M3209.06,379.78a151.77,151.77,0,1,0,151.31,163.69q.45-5.91.46-11.92A151.77,151.77,0,0,0,3209.06,379.78Zm100.45,163.69a101.19,101.19,0,1,1,.7-11.92A101.15,101.15,0,0,1,3309.51,543.47Z"/><path class="cls-8" d="M3199.16,374.76a151.77,151.77,0,1,0,151.31,163.69q.45-5.91.46-11.92A151.77,151.77,0,0,0,3199.16,374.76Zm0,252.92a101.11,101.11,0,1,1,100.45-89.23A101.15,101.15,0,0,1,3199.16,627.68Z"/><path class="cls-13" d="M3350.93,526.53q0,6-.46,11.92h-50.86a101.19,101.19,0,0,0-100.45-113.07V374.76A151.77,151.77,0,0,1,3350.93,526.53Z"/><path class="cls-10" d="M2543.63,404.47V766c0,16.66-.51,33.41,0,50.07v.69a9,9,0,0,0,8.86,8.87h709.63c9.59,0,19.19.16,28.77,0h1.26c11.41,0,11.43-17.73,0-17.73H2582.52c-9.57,0-19.2-.33-28.77,0h-1.26l8.87,8.86V455.24c0-16.67.51-33.41,0-50.07v-.7c0-11.41-17.73-11.43-17.73,0Z"/><path class="cls-13" d="M2632.13,545.93h40a7.63,7.63,0,0,1,7.63,7.63V807.85a2.23,2.23,0,0,1-2.23,2.23h-50.8a2.23,2.23,0,0,1-2.23-2.23V553.56A7.63,7.63,0,0,1,2632.13,545.93Z"/><path class="cls-13" d="M2927.88,581.69H2969a7.09,7.09,0,0,1,7.09,7.09V808a2.08,2.08,0,0,1-2.08,2.08h-51.11a2.08,2.08,0,0,1-2.08-2.08V588.78A7.09,7.09,0,0,1,2927.88,581.69Z"/><path class="cls-13" d="M2728,429.17H2765a9.16,9.16,0,0,1,9.16,9.16v368a3.77,3.77,0,0,1-3.77,3.77h-47.74a3.77,3.77,0,0,1-3.77-3.77v-368A9.16,9.16,0,0,1,2728,429.17Z"/><path class="cls-13" d="M2826.5,627.68h42.59a6.34,6.34,0,0,1,6.34,6.34V807.48a2.61,2.61,0,0,1-2.61,2.61h-50.06a2.61,2.61,0,0,1-2.61-2.61V634A6.34,6.34,0,0,1,2826.5,627.68Z"/><path class="cls-8" d="M2620.85,545.93h40a7.63,7.63,0,0,1,7.63,7.63V807.85a2.23,2.23,0,0,1-2.23,2.23h-50.8a2.23,2.23,0,0,1-2.23-2.23V553.56A7.63,7.63,0,0,1,2620.85,545.93Z"/><path class="cls-8" d="M2916.59,581.69h41.08a7.09,7.09,0,0,1,7.09,7.09V808a2.08,2.08,0,0,1-2.08,2.08h-51.11a2.08,2.08,0,0,1-2.08-2.08V588.78a7.09,7.09,0,0,1,7.09-7.09Z"/><path class="cls-8" d="M2716.72,429.17h36.95a9.16,9.16,0,0,1,9.16,9.16v368a3.77,3.77,0,0,1-3.77,3.77h-47.74a3.77,3.77,0,0,1-3.77-3.77v-368A9.16,9.16,0,0,1,2716.72,429.17Z"/><path class="cls-8" d="M2815.22,627.68h42.59a6.34,6.34,0,0,1,6.34,6.34V807.48a2.61,2.61,0,0,1-2.61,2.61h-50.06a2.61,2.61,0,0,1-2.61-2.61V634A6.34,6.34,0,0,1,2815.22,627.68Z"/><path class="cls-10" d="M2589.09,761.8l15.11-20.39,36.28-49,43.89-59.23,37.92-51.17,12.49-16.85c2-2.65,4.06-5.24,5.9-8,.08-.12.17-.23.25-.34h-11.48l10,15.05,24.25,36.32L2793,652.05l25.36,38c4.09,6.12,8.09,12.32,12.27,18.38.06.08.11.17.17.26a6.75,6.75,0,0,0,10.45,1.34L2856.86,695l37.73-36.33,45.49-43.8,39.44-38c6.35-6.11,12.92-12.06,19.07-18.36l.26-.25a6.65,6.65,0,0,0-9.4-9.41L2973.8,563.9l-37.72,36.32L2890.58,644l-39.44,38c-6.33,6.1-13,12-19.07,18.36l-.26.26,10.45,1.34-10.05-15.05L2808,650.59l-29.24-43.79-25.36-38c-4.08-6.12-8.08-12.32-12.26-18.37l-.18-.26c-3-4.44-8.46-4.08-11.48,0l-15.11,20.39-36.29,49-43.88,59.23-37.93,51.17-12.48,16.85c-2,2.65-4.07,5.23-5.91,8-.08.11-.17.22-.25.34-2.08,2.8-.55,7.54,2.39,9.1,3.47,1.83,6.88.61,9.1-2.39Z"/><path class="cls-10" d="M2961,557.2,3000.24,541a3.67,3.67,0,0,1,4.87,4.57l-13.91,40.87a3.67,3.67,0,0,1-6.81.35L2977,570.75a3.64,3.64,0,0,0-2.13-1.94l-13.72-4.75A3.67,3.67,0,0,1,2961,557.2Z"/><circle class="cls-13" cx="2735.19" cy="555.68" r="14.92"/><circle class="cls-13" cx="2836.52" cy="704.45" r="14.92"/></g></svg>