<svg xmlns="http://www.w3.org/2000/svg" xmlns:xlink="http://www.w3.org/1999/xlink" viewBox="0 0 4680 3120"><defs><style>.cls-1{fill:none;}.cls-2,.cls-8{fill:#fff;}.cls-2{opacity:0;}.cls-12,.cls-3{fill:#e4f6f8;}.cls-20,.cls-3{fill-rule:evenodd;}.cls-4{fill:#0e6864;}.cls-5{fill:#1daaa6;}.cls-6{fill:#78c4bf;}.cls-7{fill:#93dbd7;}.cls-9{fill:#ffc05d;}.cls-10{fill:#23b9ba;}.cls-11{fill:#148e8b;}.cls-13{clip-path:url(#clip-path);}.cls-14{fill:#6b2f05;}.cls-15{fill:#be5712;}.cls-16{fill:#913f07;}.cls-17{fill:#82484d;}.cls-18{fill:#542b30;}.cls-19{fill:#edb183;}.cls-20{fill:#bc835c;}.cls-21{fill:#f25619;}.cls-22{fill:#b73108;}.cls-23{fill:#f5ae97;}.cls-24{fill:#ed856e;}.cls-25{fill:#90b8d3;}.cls-26{fill:#cde3f5;}.cls-27{fill:#03466b;}.cls-28{fill:#5a1f20;}.cls-29{fill:#351314;}.cls-30{fill:#0a3f3b;}.cls-31{fill:#072c35;}.cls-32{fill:#cb6655;}.cls-33{fill:#ffa829;}.cls-34{fill:#8b8e0a;}.cls-35{fill:#75750a;}.cls-36{fill:#a3af0b;}.cls-37{fill:#364547;}.cls-38{fill:#b6cc17;}.cls-39{fill:#eff275;}.cls-40{fill:#3c7219;}.cls-41{fill:#c7c365;}.cls-42{opacity:0.6;}.cls-43{fill:#602904;}.cls-44{fill:#c63210;}.cls-45{fill:#d1d1d1;}.cls-46{fill:#023531;}.cls-47{fill:#055451;}.cls-48{fill:#e88503;}</style><clipPath id="clip-path"><rect class="cls-1" x="2426.25" y="1175.1" width="752.6" height="676.3" rx="28.31"/></clipPath></defs><title>04</title><g id="_04" data-name="04"><rect class="cls-2" width="4680" height="3120"/><path class="cls-3" d="M1344.15,2630s-591.56-376.44-441-914.23,380.27-626.91,535.7-981.3c191.21-436,1619-718.09,2077.92,382.57s-311.91,1498.62-322.67,1513S1344.15,2630,1344.15,2630Z"/><rect class="cls-4" x="1445.58" y="101.21" width="1617.73" height="2128.22" rx="114.21" transform="translate(3419.77 -1089.12) rotate(90)"/><rect class="cls-5" x="1492.79" y="101.21" width="1617.73" height="2128.22" rx="114.21" transform="translate(3466.97 -1136.33) rotate(90)"/><path class="cls-4" d="M3312.77,470.66V1860a61.4,61.4,0,0,1-61.21,61.22H1351.75a61.4,61.4,0,0,1-61.21-61.22V470.66a61.38,61.38,0,0,1,61.21-61.21H3251.56A61.38,61.38,0,0,1,3312.77,470.66Z"/><path class="cls-6" d="M3265.57,470.66V1860a61.42,61.42,0,0,1-61.23,61.22H1351.75a61.35,61.35,0,0,1-53.87-32.25l0,0a60.7,60.7,0,0,1-7.32-28.94V470.66a61.38,61.38,0,0,1,61.21-61.21H3204.34a61.39,61.39,0,0,1,61.23,61.21Z"/><path class="cls-7" d="M3250.58,430.64,1297.88,1889l0,0a60.7,60.7,0,0,1-7.32-28.94V470.66a61.38,61.38,0,0,1,61.21-61.21H3204.34A61.16,61.16,0,0,1,3250.58,430.64Z"/><rect class="cls-4" x="2392.66" y="1175.1" width="752.6" height="676.3" rx="28.31"/><rect class="cls-4" x="1420.03" y="516.76" width="1156.81" height="34.17" rx="17.08"/><rect class="cls-4" x="1420.03" y="833.73" width="581.88" height="178.05" rx="25.81"/><rect class="cls-4" x="1420.03" y="665.89" width="988.43" height="34.17" rx="17.08"/><rect class="cls-4" x="1521.28" y="1061.1" width="712.15" height="34.17" rx="17.08"/><rect class="cls-4" x="1570.08" y="759.46" width="77.33" height="10.76" rx="5.38" transform="translate(54.27 1634.68) rotate(-54.66)"/><rect class="cls-4" x="1420.03" y="745.49" width="157.66" height="34.17" rx="17.08"/><rect class="cls-4" x="1650.81" y="745.49" width="247.7" height="34.17" rx="17.08"/><rect class="cls-4" x="1420.03" y="586.41" width="759.74" height="34.17" rx="17.08"/><circle class="cls-4" cx="1453.1" cy="1078.18" r="28.62"/><rect class="cls-4" x="1521.28" y="1178.24" width="423.71" height="34.17" rx="17.08"/><circle class="cls-4" cx="1453.1" cy="1195.32" r="28.62"/><rect class="cls-4" x="1521.28" y="1295.37" width="155.82" height="34.17" rx="17.08"/><circle class="cls-4" cx="1453.1" cy="1312.46" r="28.62"/><rect class="cls-8" x="1401.18" y="504.54" width="1156.81" height="34.17" rx="17.08"/><rect class="cls-8" x="1401.18" y="821.51" width="581.88" height="178.05" rx="25.81"/><rect class="cls-9" x="1401.18" y="653.67" width="988.43" height="34.17" rx="17.08"/><rect class="cls-10" x="1502.43" y="1048.88" width="712.15" height="34.17" rx="17.08"/><rect class="cls-8" x="1551.23" y="747.24" width="77.33" height="10.76" rx="5.38" transform="translate(56.29 1614.15) rotate(-54.66)"/><rect class="cls-8" x="1401.18" y="733.27" width="157.66" height="34.17" rx="17.08"/><rect class="cls-8" x="1631.96" y="733.27" width="247.7" height="34.17" rx="17.08"/><rect class="cls-8" x="1401.18" y="574.19" width="759.74" height="34.17" rx="17.08"/><circle class="cls-10" cx="1434.25" cy="1065.96" r="28.62"/><rect class="cls-8" x="1502.43" y="1166.01" width="423.71" height="34.17" rx="17.08"/><circle class="cls-8" cx="1434.25" cy="1183.1" r="28.62"/><rect class="cls-8" x="1502.43" y="1283.15" width="155.82" height="34.17" rx="17.08"/><circle class="cls-8" cx="1434.25" cy="1300.23" r="28.62"/><rect class="cls-11" x="2772.45" y="533.84" width="97.35" height="577.14" rx="14.96"/><rect class="cls-11" x="2907.86" y="735.87" width="97.35" height="375.11" rx="12.06"/><rect class="cls-11" x="2636.38" y="663.94" width="97.35" height="447.04" rx="13.17"/><rect class="cls-11" x="3038.79" y="878.35" width="97.35" height="232.63" rx="9.5"/><rect class="cls-12" x="2426.25" y="1175.1" width="752.6" height="676.3" rx="28.31"/><g class="cls-13"><path class="cls-4" d="M2529,1111v786.41c0,10.62-.21,21.26,0,31.88,0,.46,0,.93,0,1.39a.8.8,0,0,0,1.59,0V1144.25c0-10.62.21-21.26,0-31.88,0-.46,0-.93,0-1.39a.8.8,0,0,0-1.59,0Z"/><path class="cls-4" d="M2624.89,1111v786.41c0,10.62-.21,21.26,0,31.88,0,.46,0,.93,0,1.39a.8.8,0,0,0,1.59,0V1144.25c0-10.62.21-21.26,0-31.88,0-.46,0-.93,0-1.39a.8.8,0,0,0-1.59,0Z"/><path class="cls-4" d="M2720.78,1111v786.41c0,10.62-.21,21.26,0,31.88,0,.46,0,.93,0,1.39a.8.8,0,0,0,1.59,0V1144.25c0-10.62.21-21.26,0-31.88,0-.46,0-.93,0-1.39a.8.8,0,0,0-1.59,0Z"/><path class="cls-4" d="M2816.67,1111v786.41c0,10.62-.21,21.26,0,31.88,0,.46,0,.93,0,1.39a.8.8,0,0,0,1.59,0V1144.25c0-10.62.21-21.26,0-31.88,0-.46,0-.93,0-1.39a.8.8,0,0,0-1.59,0Z"/><path class="cls-4" d="M2912.56,1111v786.41c0,10.62-.22,21.26,0,31.88,0,.46,0,.93,0,1.39a.8.8,0,0,0,1.59,0V1144.25c0-10.62.21-21.26,0-31.88,0-.46,0-.93,0-1.39a.8.8,0,0,0-1.59,0Z"/><path class="cls-4" d="M3008.45,1111v786.41c0,10.62-.22,21.26,0,31.88,0,.46,0,.93,0,1.39a.8.8,0,0,0,1.59,0V1144.25c0-10.62.21-21.26,0-31.88,0-.46,0-.93,0-1.39a.8.8,0,0,0-1.59,0Z"/><path class="cls-4" d="M3104.34,1111v786.41c0,10.62-.22,21.26,0,31.88,0,.46,0,.93,0,1.39a.8.8,0,0,0,1.59,0V1144.25c0-10.62.21-21.26,0-31.88,0-.46,0-.93,0-1.39a.8.8,0,0,0-1.59,0Z"/><path class="cls-4" d="M3227,1232.36H2440.62c-10.62,0-21.26-.22-31.88,0h-1.39a.8.8,0,0,0,0,1.59h786.41c10.62,0,21.26.21,31.88,0H3227a.8.8,0,0,0,0-1.59Z"/><path class="cls-4" d="M3227,1328.25H2440.62c-10.62,0-21.26-.22-31.88,0h-1.39a.8.8,0,0,0,0,1.59h786.41c10.62,0,21.26.21,31.88,0H3227a.8.8,0,0,0,0-1.59Z"/><path class="cls-4" d="M3227,1424.14H2440.62c-10.62,0-21.26-.22-31.88,0h-1.39a.79.79,0,0,0,0,1.58h786.41c10.62,0,21.26.22,31.88,0H3227a.79.79,0,0,0,0-1.58Z"/><path class="cls-4" d="M3227,1520H2440.62c-10.62,0-21.26-.21-31.88,0h-1.39a.8.8,0,0,0,0,1.59h786.41c10.62,0,21.26.22,31.88,0H3227a.8.8,0,0,0,0-1.59Z"/><path class="cls-4" d="M3227,1615.91H2440.62c-10.62,0-21.26-.21-31.88,0h-1.39a.8.8,0,0,0,0,1.59h786.41c10.62,0,21.26.22,31.88,0H3227a.8.8,0,0,0,0-1.59Z"/><path class="cls-4" d="M3227,1711.8H2440.62c-10.62,0-21.26-.21-31.88,0h-1.39a.8.8,0,0,0,0,1.59h786.41c10.62,0,21.26.22,31.88,0H3227a.8.8,0,0,0,0-1.59Z"/><path class="cls-4" d="M3227,1807.69H2440.62c-10.62,0-21.26-.21-31.88,0h-1.39a.8.8,0,0,0,0,1.59h786.41c10.62,0,21.26.22,31.88,0H3227a.8.8,0,0,0,0-1.59Z"/></g><path class="cls-14" d="M2209.83,2572.25l-122.07-54.57-49.37-15.56L1989,2517.68,1867,2572.25H1741.24v56.21s221.83,77.75,594.3,0v-56.21Z"/><path class="cls-15" d="M2335.54,2572.26q-22.42,4.68-44.12,8.63-19.35,3.51-38.09,6.49-10.57,1.68-21,3.19l-3,.44c-111.35,16-206,18-281.4,14q-12.18-.65-23.67-1.49c-118.32-8.6-183.1-31.3-183.1-31.3L1989,2461.47l49.37-15.56,49.38,15.56Z"/><polygon class="cls-16" points="1860.51 2597.08 1861.9 2595.53 2017 2461.47 2007.79 2458.43 1828.79 2592.38 1860.51 2597.08"/><path class="cls-16" d="M2033.4,2461.47,1948,2605.05q-12.18-.65-23.67-1.49l100.75-142.09Z"/><path class="cls-16" d="M2291.42,2580.89q-19.35,3.51-38.09,6.49l-194.06-125.91h14.89Z"/><path class="cls-16" d="M2232.37,2590.57l-3,.44-180.35-126.64h3.18Z"/><path class="cls-17" d="M2085.71,2318.48v143c-56.06,14-98.15,0-98.15,0v-143a277.29,277.29,0,0,1,29.44-3.23C2035.32,2314.12,2060.19,2314.06,2085.71,2318.48Z"/><path class="cls-18" d="M2085.71,2436.19v25.28c-56.06,14-98.15,0-98.15,0v-143a277.29,277.29,0,0,1,29.44-3.23S2004.47,2441,2085.71,2436.19Z"/><ellipse class="cls-19" cx="2258.03" cy="2631.35" rx="1301.49" ry="139.8"/><path class="cls-20" d="M2733,2547.5c-248.21,0-468.21,10-604.42,25.48-99.35-13.52-264.45-22.37-451.34-22.37-303.66,0-549.82,23.36-549.82,52.17S1373.62,2655,1677.28,2655c155.32,0,295.58-6.11,395.57-15.94,126.2,19.54,374.5,32.83,660.19,32.83,413.47,0,748.66-27.83,748.66-62.17S3146.51,2547.5,2733,2547.5Z"/><rect class="cls-9" x="1721.48" y="2038.73" width="54.61" height="408.52"/><path class="cls-14" d="M1893.45,2513.3l-103.34-46.2-41.79-13.18-41.8,13.18-103.34,46.2H1496.75v47.58s187.8,65.83,503.13,0V2513.3Z"/><path class="cls-15" d="M1999.88,2513.31q-19,4-37.35,7.3-16.38,3-32.25,5.49-9,1.44-17.74,2.71l-2.51.37c-94.27,13.57-174.37,15.27-238.23,11.88q-10.3-.54-20-1.25c-100.16-7.29-155-26.5-155-26.5l209.76-93.8,41.79-13.17,41.81,13.17Z"/><polygon class="cls-16" points="1597.73 2534.32 1598.9 2533 1730.21 2419.51 1722.41 2416.94 1570.87 2530.34 1597.73 2534.32"/><path class="cls-16" d="M1744.09,2419.51l-72.29,121.55q-10.3-.54-20-1.25l85.3-120.3Z"/><path class="cls-16" d="M1962.53,2520.61q-16.38,3-32.25,5.49L1766,2419.51h12.61Z"/><path class="cls-16" d="M1912.54,2528.81l-2.51.37L1757.35,2422H1760Z"/><path class="cls-17" d="M1788.38,2298.46v121.05c-47.47,11.86-83.1,0-83.1,0V2298.46a232.59,232.59,0,0,1,24.93-2.73C1745.72,2294.77,1766.77,2294.72,1788.38,2298.46Z"/><path class="cls-18" d="M1788.38,2398.11v21.4c-47.47,11.86-83.1,0-83.1,0V2298.46a232.59,232.59,0,0,1,24.93-2.73S1719.6,2402.22,1788.38,2398.11Z"/><path class="cls-21" d="M1965,1309.44a28.48,28.48,0,0,0-28.2-32.42h-362a28.48,28.48,0,0,0-28.2,32.42l37.74,270.1a599.46,599.46,0,0,1,.32,163.53l-12.39,91.27a28.47,28.47,0,0,0,28.22,32.3h310.66a28.47,28.47,0,0,0,28.22-32.3L1927,1743.07a599.06,599.06,0,0,1,.32-163.53Z"/><rect class="cls-22" x="1556.77" y="1953.72" width="386.13" height="104.61"/><rect class="cls-21" x="1556.77" y="1976.4" width="386.13" height="81.94"/><path class="cls-23" d="M2196.87,1379.2s5.88,37.57-37.4,63.13c0,0-90.73,258.93-150,251.92-36.58-4.33-64-45.26-79.68-76a2.59,2.59,0,0,0-.14-.29,300.83,300.83,0,0,1-14.54-33.26l-.06-.18a1.91,1.91,0,0,0-.09-.26,1.27,1.27,0,0,1,0-.16l13.22-26.32,20.3-34.67,34.21-.21,18.29,39,7.47-16.91h0l57.68-130.51,8.7-27.73s-4.07-96.84,32.71-83.6a65.59,65.59,0,0,1,22.21-9.56,53.34,53.34,0,0,1,25.3.19h0a53.6,53.6,0,0,1,19.69,9.94C2207.6,1329.46,2200.84,1367.37,2196.87,1379.2Z"/><path class="cls-24" d="M2101.72,1339.65s17,31.58,8.33,52.28,61.88,20.67,66-1.06-9.72-63.25-9.72-63.25l-22.41-1.1Z"/><path class="cls-23" d="M2196.87,1379.2c-42.09,35.22-54.83-17.36-54.83-17.36l2.1-40.16,7.81-20,3.07-7.85a53.72,53.72,0,0,1,19.68,9.94C2207.6,1329.47,2200.83,1367.37,2196.87,1379.2Z"/><path class="cls-25" d="M2150.32,1411.74a6.95,6.95,0,0,1-8.63-4.77l-51.09-177.66a7,7,0,0,1,4.76-8.62,7.64,7.64,0,0,1,1.14-.22,7,7,0,0,1,6.4,2.79,6.65,6.65,0,0,1,1.08,2.2l51.1,177.66A7,7,0,0,1,2150.32,1411.74Z"/><path class="cls-26" d="M2150.32,1411.74a2.41,2.41,0,0,1-4-2l-51.1-177.67a7,7,0,0,1,4.77-8.62,7.68,7.68,0,0,1,1.14-.23,7.46,7.46,0,0,1,1.77,0,6.65,6.65,0,0,1,1.08,2.2l51.1,177.66A7,7,0,0,1,2150.32,1411.74Z"/><path class="cls-27" d="M2141.78,1407.68l13.42-4.34.47,19.28a1.68,1.68,0,0,1-3.07,1Z"/><path class="cls-24" d="M2196.87,1379.2c-42.09,35.22-54.83-17.36-54.83-17.36l2.1-40.16,7.81-20,6.65,3.48s9.42,22.33-7,56.66C2151.55,1361.82,2154.38,1398,2196.87,1379.2Z"/><path class="cls-23" d="M2155.39,1343.13c0,.12-.09.25-.13.4l-.42,1.18-.15.38c-.29.82-.61,1.62-.94,2.44-5.66,13.73-11.68,15.59-16.3,14a9.35,9.35,0,0,1-5.56-11.85c3.29-9.89,3.21-23,2.22-34a180.36,180.36,0,0,0-3.29-21.73,53.34,53.34,0,0,1,25.3.19h0S2164.12,1317.37,2155.39,1343.13Z"/><path class="cls-24" d="M2154.69,1345.09c-.29.82-.61,1.62-.94,2.44-5.66,13.73-11.68,15.59-16.3,14a9.35,9.35,0,0,1-5.56-11.85c3.29-9.89,3.21-23,2.22-34,0,0,5.43,12.73.51,33.86,0,0-1,9.5,5.53,9.48C2146.1,1359,2152.38,1350.68,2154.69,1345.09Z"/><path class="cls-23" d="M2132.42,1346.88a9.34,9.34,0,0,1-8.49,9.41c-5.63.48-13.68-2.31-22.19-16.63h0l5.77-36.46s.36.3,1,.87C2113.14,1308.16,2132.38,1326.43,2132.42,1346.88Z"/><path class="cls-24" d="M2132.42,1346.88a9.34,9.34,0,0,1-8.49,9.41c-5.63.48-13.68-2.31-22.19-16.63.4.45,15.3,16.85,22.87,10.61s-1.3-26.7-16.11-46.21C2113.14,1308.16,2132.38,1326.43,2132.42,1346.88Z"/><path class="cls-24" d="M2159.47,1442.33s-90.73,258.93-150,251.92c-36.58-4.33-64-45.26-79.68-76,15.34,29,42.2,65.31,79.13,60.46,60.54-8,136.21-228.32,136.21-228.32a70.29,70.29,0,0,1-37.27-16.6C2131.05,1441.78,2159.47,1442.33,2159.47,1442.33Z"/><polygon class="cls-24" points="2008.41 1545.04 2007.82 1593.31 2000.94 1561.95 2008.41 1545.04"/><path class="cls-23" d="M1861.5,1763.11c-132,63.79-218.8-4.46-218.8-4.46l4.75-56.93,5.73-68.71,192.59-17.82,9.5,89.27Z"/><path class="cls-24" d="M1855.27,1704.46c-101.4,42.08-176.3,14.17-207.82-2.74l5.73-68.71,192.59-17.82Z"/><path class="cls-23" d="M1577.6,1584.14s-.21.7-.63,2q-1.18,3.93-2.37,7.74c-27.56,86.68-63.56,116.44-83.77,126.59a21.92,21.92,0,0,1-25.19-3.91c-68.51-67.77-132.24-192.61-147.21-223a19.54,19.54,0,0,0-9.94-9.4c-83.85-34.09-99.06-104.39-80.65-120a17.23,17.23,0,0,1,3.74-2.41c19.63-9.31,52.05,21.16,52.05,21.16-5.48-11.76,7.53-24.78,13.39-15.71s32.63,22.41,70,29.47c25.94,5,38,31.52,42.94,47.27a99.58,99.58,0,0,0,12.68,26.19l53.42,78.62v0l11.79,17.19,21.06-34.65,9.46-16.93c0-.05,0-.09,0-.09Z"/><path class="cls-24" d="M1308.48,1484.15a19.54,19.54,0,0,1,9.94,9.4c15,30.43,78.7,155.27,147.21,223a21.91,21.91,0,0,0,25.19,3.91c20.79-10.44,58.33-41.66,86.14-134.33-5,15.84-39.24,117.65-88,116.16-52.88-1.62-139.85-214.89-139.85-214.89s46-13.6,51.22-39c-2.16,2.37-56.17,60.66-136-6.69,0,0-48.51-42.41-32.8-80a17.23,17.23,0,0,0-3.74,2.41C1209.41,1379.76,1224.63,1450.06,1308.48,1484.15Z"/><path class="cls-24" d="M1488.78,1602.43a227.45,227.45,0,0,1-1-36.44L1476,1548.8C1470.41,1570.75,1488.78,1602.43,1488.78,1602.43Z"/><path class="cls-24" d="M1283.63,1382.93s25,18.68,65.92,27.91C1349.55,1410.84,1306.5,1413.48,1283.63,1382.93Z"/><path class="cls-28" d="M1911.06,1363.26s-21.78,7.48-54.41,14.84c-52.39,11.81-132.83,23.32-196.31,3-16.26-5.19-31.35-12.47-44.61-22.32,0,0,13.8-18.67,13.8-113.37s5-144.84,27.69-148c0,0,31.84-81.69,94.54-50.09,0,0,19.66-28.77,70.8-11.89s72.91,73.29,65.81,151.16S1911.06,1363.26,1911.06,1363.26Z"/><path class="cls-29" d="M1856.65,1378.1c-52.39,11.81-132.83,23.32-196.31,3,8.85-39.24,27.31-131.24,18.83-180.13L1837,1190.65S1840,1315,1856.65,1378.1Z"/><path class="cls-29" d="M1872.33,1204s-.38,121,18.07,152.59C1890.4,1356.61,1877.6,1266.44,1872.33,1204Z"/><path class="cls-29" d="M1643.34,1217.07s6.32,100.14-9.25,132.12C1634.09,1349.19,1665.64,1300,1643.34,1217.07Z"/><path class="cls-4" d="M1982.65,1522.94c-5.86,58.62-67.72,61.2-67.72,61.2l-28-74.21c4.57,26.69-21.45,61.19-21.45,61.19-7.19,27.65,7.77,74.54,14.51,93.38a10.37,10.37,0,0,1-5,12.59c-3.16,1.67-6.32,3.29-9.44,4.78-101.23,49-185.95,15.05-223.78-6.4-6.41-3.62-11.44-6.86-15-9.31a8.94,8.94,0,0,1-3.12-10.93c16-36.92,11.93-82.82,11.93-82.82-18.87-17.54-19.83-54.67-19.83-54.67L1575,1593.91h-.42c-33.63,1.28-59.45-49.1-65.72-62.57l9.46-16.93c0-.05,0-.09,0-.09,18-28.6,56.85-93.36,78.8-122.25,23.61-31.1,92.25-46.77,115.7-51.3,5-1,8-1.46,8-1.46h72.67c1.87-.08,3.7-.08,5.57,0a78.49,78.49,0,0,1,27.52,6l34.13,14.22C1910.82,1380.34,1982.65,1522.94,1982.65,1522.94Z"/><path class="cls-30" d="M1750.87,1573.53s-69.71,19.42-97.69,10.73c0,0-18.84,62.4-11.39,91.21-6.41-3.62-11.44-6.86-15-9.31a8.94,8.94,0,0,1-3.12-10.93c16-36.92,11.93-82.82,11.93-82.82-18.87-17.54-19.83-54.67-19.83-54.67L1575,1593.91h-.42l44.49-100.33s9.68,65.11,37.29,72.26S1750.87,1573.53,1750.87,1573.53Z"/><path class="cls-30" d="M1865.45,1571.12c-7.19,27.65,7.77,74.54,14.51,93.38a10.37,10.37,0,0,1-5,12.59c-3.16,1.67-6.32,3.29-9.44,4.78,3.12-100.23-45.52-106.38-57.49-106.38,68.88-4.08,75.41-87,75.41-87,26.73,39.53,31.43,95.66,31.43,95.66l-28-74.21C1891.47,1536.62,1865.45,1571.12,1865.45,1571.12Z"/><path class="cls-30" d="M1796.7,1352.12c-6.2,6.19-28,24.23-63.9,11.14-20.21-7.4-22.12-16.22-19.91-22.49,5-1,8-1.46,8-1.46h72.67c1.87-.08,3.7-.08,5.57,0C1799.77,1343.93,1799.69,1349.12,1796.7,1352.12Z"/><path class="cls-23" d="M1787.46,1350.37c-28.48,20.62-50.51,9-60.62.92a11.4,11.4,0,0,1-4-11.35c2.2-9.69,3.37-27.94,3.87-39.12.25-5.66.37-9.53.37-9.53H1786a78.66,78.66,0,0,0-.08,10c.54,13.81,3.7,28.73,5.82,37.25A11.26,11.26,0,0,1,1787.46,1350.37Z"/><path class="cls-24" d="M1785.88,1301.27c-27.86,8-47.4,4.37-59.2-.45.25-5.66.37-9.53.37-9.53H1786A78.66,78.66,0,0,0,1785.88,1301.27Z"/><path class="cls-23" d="M1860.76,1212.64c.58,21.2-26.69,33.51-37.83,37.62-11.1,24.57-31,47.35-66.43,47.35-35.67,0-55.55-23-66.65-47.76-11.72-4.53-37.2-16.72-36.66-37.21.54-18.33,11.6-22,18.41-22.41a24.43,24.43,0,0,1,4.41.08l13.35-101.73,67.14-12.88,49.55,9.52,19.54,17.92,11.43,87.3S1860.05,1186,1860.76,1212.64Z"/><path class="cls-24" d="M1837,1190.44s-3.89,35.76-14.06,59.84C1823,1250.28,1841,1228,1837,1190.44Z"/><path class="cls-24" d="M1675.86,1190.44s3.89,35.76,14.06,59.84C1689.92,1250.28,1671.83,1228,1675.86,1190.44Z"/><path class="cls-24" d="M1841,1207.5a4.84,4.84,0,0,1,6.91-5.85c3.18,1.84,5.87,5.89,3.46,14.75-4.68,17.22-14.09,9.77-13.43,4.54s5.4-7.51,3.13-13.27A1.22,1.22,0,0,0,1841,1207.5Z"/><path class="cls-24" d="M1672.18,1207.5a4.84,4.84,0,0,0-6.91-5.85c-3.18,1.84-5.87,5.89-3.46,14.75,4.68,17.22,14.09,9.77,13.43,4.54s-5.4-7.51-3.13-13.27C1672.13,1207.61,1672.16,1207.56,1672.18,1207.5Z"/><path class="cls-24" d="M1837,1190.44c-73.08,3.57-85.93-74.62-85.93-74.62-12.3,74.54-75.25,74.62-75.25,74.62l-4.24-.21a24.43,24.43,0,0,1,4.41.08l13.35-101.73,67.14-12.88,49.55,9.52,19.54,17.92Z"/><path class="cls-28" d="M1851.62,1080.56,1837,1190.44c-74.29-15.55-85.43-94.79-85.43-94.79s-11.22,76.12-75.58,94.66l-4-103.68,73.13-32.47Z"/><path class="cls-29" d="M1837,1190.44c-74.29-15.55-85.43-94.79-85.43-94.79s-11.22,76.12-75.58,94.66c0,0,71-57,73.21-112.24C1749.22,1078.07,1776.74,1163.79,1837,1190.44Z"/><path class="cls-29" d="M1783.29,1063.61s1.65,59.33,71.47,85.16C1854.76,1148.77,1796.58,1109.22,1783.29,1063.61Z"/><path class="cls-29" d="M1722.54,1080.16s-8,69.42-62.2,85.16C1660.34,1165.32,1698.48,1137.07,1722.54,1080.16Z"/><path class="cls-31" d="M1783.12,1189.25a7.67,7.67,0,0,1,3.35-4.32,9.53,9.53,0,0,1,6.25-1.38c4.2.4,9.73,3.73,10.24,8.17.22,1.83,2.52,2.88,4.14,2.48,2-.5,2.69-2.3,2.47-4.14-.44-3.88-3.22-7-6.2-9.24a20.52,20.52,0,0,0-10.5-4.08c-7-.66-14.21,3.68-16.28,10.55-1.26,4.2,5.27,6.16,6.53,2Z"/><ellipse class="cls-31" cx="1791.01" cy="1208.26" rx="10.21" ry="6.4" transform="translate(542.41 2971.39) rotate(-88.7)"/><path class="cls-31" d="M1719.6,1189.25a7.67,7.67,0,0,1,3.35-4.32,9.54,9.54,0,0,1,6.25-1.38c4.2.4,9.74,3.73,10.25,8.17.21,1.83,2.52,2.88,4.13,2.48,2-.5,2.69-2.3,2.48-4.14-.45-3.88-3.23-7-6.21-9.24a20.52,20.52,0,0,0-10.5-4.08c-7-.66-14.21,3.68-16.28,10.55-1.26,4.2,5.27,6.16,6.53,2Z"/><ellipse class="cls-31" cx="1727.49" cy="1208.26" rx="10.21" ry="6.4" transform="translate(480.33 2907.89) rotate(-88.7)"/><path class="cls-32" d="M1739.1,1248.9l39.93-4.31a3.82,3.82,0,0,1,4.23,4.24c-1.09,8.94-5.4,27.48-22.3,28.17s-23.12-15.43-25.18-23.36A3.82,3.82,0,0,1,1739.1,1248.9Z"/><path class="cls-4" d="M2153.59,2499.77s-94.09,45.47-205.33,15.3h0a291.2,291.2,0,0,1-42.83-15.3v-546H1603.54L1596.8,2495s-15.65,9.25-43.07,17.07c-43.85,12.52-117.82,21.39-206-17.07l62.51-584.67s16.35-153.86,178.87-97.12c0,0,10.32,5.9,29.51,12.66l10.77-87.66a7.14,7.14,0,0,1,10-5.66c28.9,12.75,124.93,47.63,223.48.25a7.13,7.13,0,0,1,10.16,5.35l12.36,82.21q9.92-3.33,20.07-7.15c190.48-72.13,203.94,71.16,207.79,178.86S2153.59,2499.77,2153.59,2499.77Z"/><path class="cls-30" d="M1618.62,1825.82s151.92,52.1,266.73-5.51C1885.35,1820.31,1763.06,1921.24,1618.62,1825.82Z"/><path class="cls-30" d="M1948.26,2515.07h0a291.2,291.2,0,0,1-42.83-15.3v-546H1603.54L1596.8,2495s-15.65,9.25-43.07,17.07l33.56-590.26s126.69,42.44,337.63,0Z"/><rect class="cls-33" x="1705.02" y="2091.95" width="88.72" height="60.85" rx="4.5"/><rect class="cls-17" x="1694.62" y="2058.34" width="109.54" height="45.35" rx="4.32"/><path class="cls-9" d="M1925,2566.53a110.08,110.08,0,1,1,220.16,0Z"/><rect class="cls-33" x="1925.02" y="2566.53" width="220.16" height="27.84"/><path class="cls-9" d="M1347.73,2566.53a110.08,110.08,0,0,1,220.16,0Z"/><rect class="cls-33" x="1347.73" y="2566.53" width="220.16" height="27.84"/><rect class="cls-16" x="1037.23" y="1668.83" width="1573.5" height="61.74" rx="12.72"/><rect class="cls-15" x="1037.23" y="1668.83" width="1573.5" height="43.91" rx="12.72"/><rect class="cls-14" x="1156.97" y="1730.57" width="1404.35" height="61.74"/><rect class="cls-9" x="1156.97" y="1792.31" width="66.74" height="802.36"/><rect class="cls-9" x="2577.36" y="1792.31" width="66.74" height="802.36"/><path class="cls-34" d="M3224.81,1800.41s-41-145.7-21-263.82,33.72-193.6,32.29-218.56c0,0,54,99.92,85.36,156.52,69.16,124.88,94.62,225.51,53.21,340.16,0,0,7,59,6.83,61.6s-53.24,67.59-53.24,67.59l-97.46-44.52Z"/><path class="cls-35" d="M3306.32,1965.5s-56-313-55.74-500.27c0,0,40,331.28,102.57,478.7Z"/><path class="cls-36" d="M3265.48,1958.48l-.31,74.27-.32,82.47,28,4.6s11.23-11.36,28.05-26.44c25.95-23.19,65.17-55.16,96.92-67.56,52.32-20.46,134.21-99.85,196.63-242.22,2.21-5,4.47-9.79,6.82-14.34,64.16-125.62,180.14-93.41,180.14-93.41-94.35-30.73-174.59-29.51-242-10.12h0C3351.15,1725.59,3265.48,1958.48,3265.48,1958.48Z"/><path class="cls-34" d="M3265.17,2032.75l-.32,82.47,28,4.6s11.23-11.36,28.05-26.44c188.87-368.29,308-414.16,311.78-415.54C3452.11,1719.9,3312.44,1946.58,3265.17,2032.75Z"/><path class="cls-36" d="M3359.51,2000.64l-18.69,68.11L3320,2144.37l-26.78-2.93s-7.38-13.28-18.93-31.39c-17.85-27.87-45.61-67.17-71.52-86.64-42.69-32.11-97.42-125.75-118.21-272.1-.75-5.15-1.6-10.11-2.59-14.88-26.67-131.46-141.14-131.59-141.14-131.59,94.28-4,167.47,17.58,224.28,52.57h0C3340.55,1765.44,3359.51,2000.64,3359.51,2000.64Z"/><path class="cls-34" d="M3340.82,2068.75,3320,2144.37l-26.78-2.93s-7.38-13.28-18.93-31.39c-78.9-385.58-176.34-458.06-179.41-460.27C3249.53,1734.43,3319.54,1977.74,3340.82,2068.75Z"/><path class="cls-37" d="M3662.49,1865.56s-260,36.53-351.67,226C3310.82,2091.56,3390.39,1930.22,3662.49,1865.56Z"/><path class="cls-37" d="M3633.79,1830.33c-4,23.78-14.72,29.84-19.71,31.39a2.64,2.64,0,0,1-3.37-2c-.91-5.15-.41-17.45,18.89-31.9A2.64,2.64,0,0,1,3633.79,1830.33Z"/><path class="cls-37" d="M3603.79,1837.85c-2.14,24-12.34,30.9-17.2,32.83a2.62,2.62,0,0,1-3.51-1.78c-1.31-5.06-1.78-17.35,16.33-33.27A2.64,2.64,0,0,1,3603.79,1837.85Z"/><path class="cls-37" d="M3569.7,1850.36c1.67,21.48-6.29,29.05-10.28,31.48a2.35,2.35,0,0,1-3.36-1c-1.91-4.26-4.14-15,9.45-31.73A2.36,2.36,0,0,1,3569.7,1850.36Z"/><path class="cls-37" d="M3538.38,1860.4c5.89,20.72-.42,29.72-3.85,32.88a2.35,2.35,0,0,1-3.5-.36c-2.71-3.8-7-13.91,3-33A2.36,2.36,0,0,1,3538.38,1860.4Z"/><path class="cls-37" d="M3508.19,1872.92c8.47,18.41,3.91,27.69,1.18,31.13a2.21,2.21,0,0,1-3.31.17c-3.07-3.14-8.55-11.91-2-31.09A2.22,2.22,0,0,1,3508.19,1872.92Z"/><path class="cls-37" d="M3471.4,1881.64c16.7,11.48,17.53,21.79,16.93,26.14a2.2,2.2,0,0,1-2.75,1.84c-4.25-1.13-13.44-5.86-17.61-25.69A2.22,2.22,0,0,1,3471.4,1881.64Z"/><path class="cls-37" d="M3664,1898.22c-17.71-16.41-29.91-14.68-34.82-12.85a2.63,2.63,0,0,0-1.41,3.68c2.42,4.64,10.32,14.09,34.46,13.76A2.65,2.65,0,0,0,3664,1898.22Z"/><path class="cls-37" d="M3635.63,1910.59c-16.37-17.75-28.67-17-33.7-15.55a2.64,2.64,0,0,0-1.7,3.56c2.05,4.82,9.19,14.86,33.28,16.42A2.64,2.64,0,0,0,3635.63,1910.59Z"/><path class="cls-37" d="M3600.94,1921.48c-11.78-18.06-22.73-19.2-27.37-18.69a2.37,2.37,0,0,0-2,2.89c1.09,4.54,5.89,14.44,26.88,19.4A2.37,2.37,0,0,0,3600.94,1921.48Z"/><path class="cls-37" d="M3570,1932.65c-8-20-18.48-23.32-23.14-23.73a2.34,2.34,0,0,0-2.55,2.42c.17,4.67,2.91,15.33,22.51,24.33A2.36,2.36,0,0,0,3570,1932.65Z"/><path class="cls-37" d="M3539.45,1950.41c-1.54-21.51-10.56-27.82-14.87-29.62a2.35,2.35,0,0,0-3.17,1.54c-1.25,4.5-1.86,15.49,14.1,30A2.36,2.36,0,0,0,3539.45,1950.41Z"/><path class="cls-37" d="M3509.43,1962.52c.5-21.56-7.88-28.69-12-30.89a2.34,2.34,0,0,0-3.3,1.23c-1.67,4.36-3.32,15.24,11.19,31.2A2.36,2.36,0,0,0,3509.43,1962.52Z"/><path class="cls-37" d="M2964.81,1674.23s294.61,159.49,319.81,426.88C3284.62,2101.11,3261.35,1872.75,2964.81,1674.23Z"/><path class="cls-37" d="M3014.81,1644.89c-5.79,30.22,4.31,42.24,9.59,46.31a3.36,3.36,0,0,0,4.94-1c3.38-5.74,8.27-20.67-8.38-46.54A3.37,3.37,0,0,0,3014.81,1644.89Z"/><path class="cls-37" d="M3047.34,1667.24c-8.14,29.68,1,42.45,5.93,46.92a3.36,3.36,0,0,0,5-.56c3.82-5.47,9.86-20-4.71-47.06A3.37,3.37,0,0,0,3047.34,1667.24Z"/><path class="cls-37" d="M3082.53,1697.39c-11.57,24.93-5.43,37.54-1.73,42.21a3,3,0,0,0,4.48.24c4.18-4.24,11.65-16.11,2.84-42.15A3,3,0,0,0,3082.53,1697.39Z"/><path class="cls-37" d="M3115.51,1723.34c-16.28,22.15-12.75,35.72-10.05,41a3,3,0,0,0,4.35,1.13c4.93-3.34,14.6-13.5,11.11-40.76A3,3,0,0,0,3115.51,1723.34Z"/><path class="cls-37" d="M3146,1751.76c-18.33,18.24-17,31.37-15.27,36.7a2.83,2.83,0,0,0,3.88,1.67c5.07-2.39,15.53-10.43,16.22-36.28A2.83,2.83,0,0,0,3146,1751.76Z"/><path class="cls-37" d="M3186.13,1778.57c-25.08,6.3-30.67,18.26-31.9,23.72a2.83,2.83,0,0,0,2.48,3.43c5.58.54,18.68-1,32.5-22.88A2.84,2.84,0,0,0,3186.13,1778.57Z"/><path class="cls-37" d="M2948.42,1712.6c28.49-11.73,42.3-4.23,47.35.13a3.37,3.37,0,0,1,.06,5c-5,4.46-18.62,12.25-47.34,1.1A3.37,3.37,0,0,1,2948.42,1712.6Z"/><path class="cls-37" d="M2976.87,1740c27.47-13.93,41.83-7.53,47.21-3.58a3.37,3.37,0,0,1,.45,5c-4.6,4.84-17.61,13.67-47.11,4.8A3.37,3.37,0,0,1,2976.87,1740Z"/><path class="cls-37" d="M3013.49,1768.51c22.13-16.34,35.73-12.84,41.05-10.15a3,3,0,0,1,1.14,4.35c-3.33,4.94-13.48,14.65-40.78,11.22A3,3,0,0,1,3013.49,1768.51Z"/><path class="cls-37" d="M3045.55,1795.66c18.46-20.4,32.49-19.65,38.23-18.07a3,3,0,0,1,2,4c-2.29,5.51-10.32,17-37.75,19.06A3,3,0,0,1,3045.55,1795.66Z"/><path class="cls-37" d="M3074.12,1830.49c11.43-25,25-28.56,31-28.8a3,3,0,0,1,3.11,3.26c-.52,5.94-4.68,19.35-30.22,29.59A3,3,0,0,1,3074.12,1830.49Z"/><path class="cls-37" d="M3104.62,1858.34c9-26,22.21-30.8,28.12-31.59a3,3,0,0,1,3.4,2.94c.05,6-2.83,19.71-27.28,32.32A3,3,0,0,1,3104.62,1858.34Z"/><path class="cls-38" d="M3676.81,2223.59c-44.14-48.66-192.21-193.5-344.68-134.83q-8.53,3.25-17.08,7.41a18.43,18.43,0,0,1-6.39,1.86c-3.38.28-7.76-.29-10.07-4.49a10.52,10.52,0,0,1,.64-10.66,330.63,330.63,0,0,1,42.18-51.64c42.76-42.78,113.68-89.32,200.65-53.82,116.49,47.52,141.32,187.89,146.59,240.9A6.82,6.82,0,0,1,3676.81,2223.59Z"/><path class="cls-39" d="M3626.2,2102.19c-8.67-12.07-132.06-167.18-294.07-13.43q-8.53,3.25-17.08,7.41a18.43,18.43,0,0,1-6.39,1.86c-3.38.28-7.76-.29-10.07-4.49a10.52,10.52,0,0,1,.64-10.66S3473.73,1889.71,3626.2,2102.19Z"/><path class="cls-40" d="M3626.66,2102.83c-.16-.23-.29-.44-.46-.64C3626.45,2102.51,3626.58,2102.72,3626.66,2102.83Z"/><path class="cls-38" d="M2870.47,2024.22c69.59-14.37,291.3-46.45,387.07,102q5.39,8.3,10.2,17.38a19.85,19.85,0,0,0,4.39,5.69c2.77,2.4,7,4.7,11.66,2.5a11.38,11.38,0,0,0,6.24-9.71,358.09,358.09,0,0,0-3.91-72c-10.07-64.63-42.34-150.52-140.95-175-132.06-32.78-243.26,74-281.68,116.94A7.39,7.39,0,0,0,2870.47,2024.22Z"/><path class="cls-39" d="M2992.1,1950.44c15.4-4.61,222-61.81,265.44,175.81q5.39,8.3,10.2,17.38a19.85,19.85,0,0,0,4.39,5.69c2.77,2.4,7,4.7,11.66,2.5a11.38,11.38,0,0,0,6.24-9.71,358.09,358.09,0,0,0-3.91-72C3257.79,1991,3183.66,1886.57,2992.1,1950.44Z"/><path class="cls-37" d="M3532.39,1448.43s-335.09,402.93-216.2,805.87C3316.19,2254.3,3217.19,1909.15,3532.39,1448.43Z"/><path class="cls-37" d="M3442.71,1434.9c26,40.52,18.3,63.85,13,72.83a5.25,5.25,0,0,1-7.73,1.48c-8.25-6.38-24-25.21-14.89-72.47A5.27,5.27,0,0,1,3442.71,1434.9Z"/><path class="cls-37" d="M3408.47,1486.27c29.08,38.36,23.25,62.22,18.67,71.59a5.26,5.26,0,0,1-7.59,2.09c-8.72-5.72-25.92-23.25-20.53-71.08A5.28,5.28,0,0,1,3408.47,1486.27Z"/><path class="cls-37" d="M3374.9,1550.52c31.3,29.47,29.71,51.35,27.06,60.29a4.69,4.69,0,0,1-6.37,3c-8.53-3.74-26.28-16.63-28.62-59.56A4.71,4.71,0,0,1,3374.9,1550.52Z"/><path class="cls-37" d="M3342.11,1607.38c36.5,22.7,39.27,44.46,38.44,53.74a4.69,4.69,0,0,1-5.66,4.16c-9.1-2-29-11.1-39.84-52.72A4.72,4.72,0,0,1,3342.11,1607.38Z"/><path class="cls-37" d="M3314.32,1666.39c37.22,15.83,42.94,35.66,43.52,44.41a4.42,4.42,0,0,1-4.67,4.69c-8.74-.52-28.61-6.13-44.66-43.26A4.44,4.44,0,0,1,3314.32,1666.39Z"/><path class="cls-37" d="M3271.67,1728.65c40.08-5.44,55.14,8.68,60.11,15.9a4.41,4.41,0,0,1-1.61,6.41c-7.78,4-27.72,9.38-60.5-14.32A4.43,4.43,0,0,1,3271.67,1728.65Z"/><path class="cls-37" d="M3578.49,1494.62c-48.19-.47-63.89,18.45-68.68,27.73a5.26,5.26,0,0,0,2.85,7.34c9.8,3.6,34.16,7,69.38-25.93A5.28,5.28,0,0,0,3578.49,1494.62Z"/><path class="cls-37" d="M3553.14,1551c-48-4.25-65.14,13.39-70.65,22.26a5.27,5.27,0,0,0,2.27,7.55c9.49,4.36,33.51,9.61,71.2-20.41A5.28,5.28,0,0,0,3553.14,1551Z"/><path class="cls-37" d="M3516.52,1613.65c-41.65-10.86-59.36,2.13-65.53,9.13a4.7,4.7,0,0,0,.88,7c7.71,5.24,28.09,13.44,65.74-7.42A4.72,4.72,0,0,0,3516.52,1613.65Z"/><path class="cls-37" d="M3485.75,1671.72c-38.68-18.89-58.61-9.65-66-4a4.69,4.69,0,0,0-.52,7c6.52,6.67,24.87,18.73,65.91,5.73A4.71,4.71,0,0,0,3485.75,1671.72Z"/><path class="cls-37" d="M3464.5,1738.91c-31.15-29.7-52.94-26.93-61.72-23.8a4.7,4.7,0,0,0-2.62,6.53c4.2,8.33,18.05,25.38,61.09,25.4A4.71,4.71,0,0,0,3464.5,1738.91Z"/><path class="cls-37" d="M3436.41,1797.09c-28.21-32.51-50.16-31.81-59.2-29.53a4.7,4.7,0,0,0-3.22,6.26c3.39,8.69,15.56,27,58.41,31.06A4.72,4.72,0,0,0,3436.41,1797.09Z"/><path class="cls-41" d="M3134.69,2179h0l0,0Z"/><path class="cls-15" d="M3458.28,2179l-41.62,410.33a542.51,542.51,0,0,1-238.55.39l-1.76-.39-37.2-362.74-4.41-47.59Z"/><g class="cls-42"><path class="cls-43" d="M3458.28,2179l-41.62,410.33a540.14,540.14,0,0,1-57.94,9.88c66-529-219.57-372.62-219.57-372.62l-4.41-47.59Z"/></g><path class="cls-14" d="M3479.2,2098.12v59.56a21.29,21.29,0,0,1-21.3,21.3l-116.75,4.43q-44.62,1.68-89.28,0L3135.06,2179a21.29,21.29,0,0,1-21.3-21.3v-59.56a21.29,21.29,0,0,1,21.3-21.3l117.73,4.43q44.61,1.66,89.28,0l115.83-4.41A21.29,21.29,0,0,1,3479.2,2098.12Z"/><path class="cls-16" d="M3479.2,2098.12v31.55a21.3,21.3,0,0,1-21.3,21.3l-116.75,4.41q-44.62,1.7-89.28,0L3135.06,2151a21.3,21.3,0,0,1-21.3-21.3v-31.55a21.29,21.29,0,0,1,21.3-21.3l117.73,4.43q44.61,1.66,89.28,0l115.83-4.41A21.29,21.29,0,0,1,3479.2,2098.12Z"/><path class="cls-44" d="M3489.37,859.61s88.89,29.28,106.82,117.65l-68.39,7L3474,962.32l-17-36.16Z"/><path class="cls-23" d="M3630.15,893.9A58.43,58.43,0,0,1,3618.51,925a129.2,129.2,0,0,1-21.6,23.36c-.84.71-1.67,1.39-2.5,2-26.49,20.73-49.27,18.06-49.27,18.06l-48.94-35.77,4.47-28.26s-12.24-51.77,23.6-82.28c20.57-17.51,37.15-30.55,43.65-30.7,3.41-.07,4,3.39,1,11.57a82.69,82.69,0,0,1-11.81,22.24c-.54.71-1.07,1.37-1.59,2,22.18-21,76-68.85,79.79-65.56,6,5.16,5.5,31.9-36.23,63.94C3599.13,825.59,3632.53,857.17,3630.15,893.9Z"/><path class="cls-24" d="M3630.15,893.9A58.43,58.43,0,0,1,3618.51,925a129.2,129.2,0,0,1-21.6,23.36,33,33,0,0,1-30.09-8.38c-10.09-9.66-20.28-21-26.63-34.79-33.05-71.79,58.32-73.27,58.32-73.27S3628,859.81,3630.15,893.9Z"/><path class="cls-23" d="M3618.51,925c-.69.95-1.38,1.87-2.07,2.78a32.62,32.62,0,0,1-48.39,3.81,145.43,145.43,0,0,1-26.11-34.13c-27.51-49.41,57.19-71.84,57.19-71.84S3653.54,877,3618.51,925Z"/><path class="cls-24" d="M3569,803a82.69,82.69,0,0,1-11.81,22.24l-1.59,2-16.4,11.85c32.13-26.68,28.75-47.64,28.75-47.64h0C3571.33,791.34,3572,794.8,3569,803Z"/><rect class="cls-5" x="2314.35" y="2403.2" width="626.52" height="241.59" rx="28.99"/><path class="cls-23" d="M2744.17,963.9,2674,998.51l-27.59,13.59c-4.72-11.59-8.28-20.81-10.53-26.75a20.69,20.69,0,0,0-9.51-10.89c-84.8-44.28-93.75-119.77-72.8-134.32a18.4,18.4,0,0,1,4.17-2.16c21.57-7.83,52.63,27.49,52.63,27.49-4.59-12.93,10.4-25.32,15.67-15.19s32.07,26.85,70.64,38c26.8,7.81,36.81,37,40.43,54A104.47,104.47,0,0,0,2744.17,963.9Z"/><path class="cls-24" d="M2668.77,982s1.85,6.16,5.19,16.52l-27.59,13.59c-4.72-11.59-8.28-20.81-10.53-26.75a20.69,20.69,0,0,0-9.51-10.89c-84.8-44.28-93.75-119.77-72.8-134.32a18.4,18.4,0,0,1,4.17-2.16c-20.3,38,26.48,87.48,26.48,87.48,77.21,78.87,139.87,23,142.38,20.7C2718.55,972.32,2668.77,982,2668.77,982Z"/><path class="cls-24" d="M2610.34,865.48s24.47,22.16,66.55,36C2676.89,901.45,2631.33,899.92,2610.34,865.48Z"/><path class="cls-21" d="M2902.93,1063.57l-4.42,53.43-1.82,22-3.92,47.51s-42.5,137.45-107.46,132.24c-15.37-1.23-33.25-20.24-51.58-48.54a.32.32,0,0,0-.08-.09c-59.09-91.3-122.92-279.06-122.92-279.06a167.74,167.74,0,0,0,36.94-2.28c60-10.2,105.63-48.33,105.63-48.33l50.56,217.06,88.91-155.48Z"/><path class="cls-22" d="M2868.17,1124.5l24.6,62s-42.5,137.45-107.46,132.24c-15.37-1.23-33.25-20.24-51.58-48.54C2819.4,1393.23,2868.17,1124.5,2868.17,1124.5Z"/><polygon class="cls-8" points="3052.5 966.05 3017.38 1512.57 2902.93 1527.94 2870.01 1507.74 2817.19 1475.35 2960.84 974.92 2961.26 973.45 3052.5 966.05"/><path class="cls-45" d="M2966.54,1000.77c-67.59,307.2-82,498.75-82,498.75l-14.55,8.22-52.82-32.39,143.65-500.43Z"/><path class="cls-9" d="M2860.62,2402.07H2483.26a.55.55,0,0,0,.41-.28,338.94,338.94,0,0,1,24.14-31.49c29.86-34.46,66.63-61.58,111-74.1l44-12.41L2841.17,2244l15.54,126.3Z"/><path class="cls-33" d="M2651.58,2403.2H2483.26a.55.55,0,0,0,.41-.28,338.94,338.94,0,0,1,24.14-31.49c29.86-34.46,66.63-61.58,111-74.1C2618.77,2297.33,2692,2322.65,2651.58,2403.2Z"/><path class="cls-8" d="M2860.62,2403.2H2483.26a.55.55,0,0,0,.41-.28c7.48-11,15.52-21.55,27.8-31.49h348.9Z"/><path class="cls-9" d="M3201,2640.31H2823.61a.54.54,0,0,0,.41-.28,338.94,338.94,0,0,1,24.14-31.49c29.86-34.46,66.63-61.58,111-74.1l44-12.41,178.44-39.78,15.54,126.29Z"/><path class="cls-33" d="M2991.94,2641.44H2823.61a.54.54,0,0,0,.41-.28,340.27,340.27,0,0,1,24.14-31.49c29.86-34.46,66.63-61.58,111-74.1C2959.12,2535.57,3032.36,2560.9,2991.94,2641.44Z"/><path class="cls-8" d="M3201,2641.44H2823.61a.54.54,0,0,0,.41-.28c7.48-11,15.52-21.55,27.8-31.49h348.91Z"/><path class="cls-17" d="M3225,2482.24c-41.91,76.83-241,41.91-241,41.91l-97.73-524V1678.91l-129.43,144.34,94.51,414.39c-7,23-26.47,37.42-51,46.27-64.9,23.42-165.36,7.71-165.36,7.71s-107.25-438.1-111.9-498.63c-3.47-45.09,165.67-199.24,252.2-275,29.65-26,49.59-42.68,49.59-42.68s16,8.85,42.48,18.4c31.72,11.43,78.42,23.85,130.45,23.18q9.8-.14,18.82-.33c81.85-1.81,116.2-7.63,116.2-7.63,8.65,29,7.69,82.3,2.28,141.85-11.93,131.42-45.56,293.49-45.56,293.49Z"/><path class="cls-18" d="M2886.26,1678.91l-129.43,144.34,94.51,414.39c-7,23-26.47,37.42-51,46.27l-85.92-479.07,171.83-175.4Z"/><path class="cls-18" d="M3135.11,1650.82c-139.56-13.25-118.48-134.22-118.48-134.22,81.85-1.81,116.2-7.63,116.2-7.63C3141.48,1538,3140.52,1591.27,3135.11,1650.82Z"/><path class="cls-18" d="M2867.36,1493.75c-38.56,39.77-92.07,24.28-92.07,24.28,29.65-26,49.59-42.68,49.59-42.68S2840.9,1484.2,2867.36,1493.75Z"/><path class="cls-23" d="M3046.92,989c4.36-23.42,16.11-56.07,20.39-67.45A6.94,6.94,0,0,1,3073,917a105.51,105.51,0,0,0,16.59-3.73c2.2-.63,4.51-1.53,6.87-2.43.06,0,.07-.05.12,0,14.91-6,30.31-17.34,30.24-38.58-.22-45.13-44.36-27.24-44.36-27.24l-41-109.55-4-10.69-10.18.42-89.94,4L2926.58,787l-5.16,27.77S2897.19,938,2963.35,948.6l-4,34.14a20.3,20.3,0,0,0,7.23,18C2979.24,1011.25,3006.33,1023.35,3046.92,989Z"/><path class="cls-24" d="M2963.32,948.63c7.4,1.25,32.69,3.52,56.45-21.22,0,0-4.24,34.89-58.51,38.65Z"/><path class="cls-24" d="M3088.66,867.18c-.91-6,6.55-10,11.07-5.87,3.76,3.43,6.2,9.7.32,21-11.41,21.9-21.94,9.05-19.49,2.17s9.51-8.56,8.14-17C3088.69,867.35,3088.68,867.27,3088.66,867.18Z"/><path class="cls-31" d="M2993.6,829.35a7.85,7.85,0,0,1,4.87-2.78,9.8,9.8,0,0,1,6.47,1.13c3.83,2,7.77,7.36,6.52,11.77-.52,1.82,1.26,3.72,2.95,4,2.07.31,3.45-1.13,4-3,1.1-3.85-.33-7.88-2.27-11.2a21,21,0,0,0-8.36-8c-6.42-3.38-14.92-2.08-19.57,3.63-2.85,3.5,2.58,7.91,5.42,4.42Z"/><path class="cls-31" d="M2934.22,816.66c1.21-3.61,6.46-6.42,10.17-6.32,4.31.13,7.72,4.41,9.47,8.46a3.53,3.53,0,0,0,4.72,1.47,3.58,3.58,0,0,0,1.47-4.73c-2.69-6.21-8.56-12.24-15.76-12.19-6.79,0-14.5,4.49-16.72,11.14a3.5,3.5,0,0,0,6.65,2.17Z"/><ellipse class="cls-31" cx="2938.55" cy="836.06" rx="9.94" ry="6.23" transform="translate(1481.92 3521.64) rotate(-77.41)"/><ellipse class="cls-31" cx="2994.3" cy="848.52" rx="10.48" ry="6.57" transform="translate(1513.35 3585.78) rotate(-77.41)"/><path class="cls-24" d="M3089.55,913.3A104.38,104.38,0,0,1,3073,917s-14.86-2-14.14-16.23C3059.51,902.23,3067.24,917.43,3089.55,913.3Z"/><path class="cls-46" d="M3160.83,763.27a1.08,1.08,0,0,1,.18-2c5.47-1.8,19.51-5.74,24-.58C3190.49,767,3178,772.75,3160.83,763.27Z"/><path class="cls-46" d="M3157.74,756.79a1.48,1.48,0,0,1-2.14-1.63c1.91-7.63,7.56-26.71,16.82-28.18C3183.57,725.21,3181.18,743.85,3157.74,756.79Z"/><path class="cls-24" d="M3108.17,783.67,3082.42,845s-55.39-69.11-106-56c-26.5,6.89-41.55,3.14-49.87-2l10.73-57.91,89.94-4,14.17,10.27Z"/><path class="cls-47" d="M3145.32,850h-.06a238.32,238.32,0,0,1-18.58,19.61S3125,831.83,3082.42,845c0,0-38.43-61.15-85.76-67.71-8.48-1.16-17.07.14-25.25,2.66-12.55,3.85-45.11,9-61.14-20.13-20.47-37.22,8.15-64.09,10.3-66a.2.2,0,0,0,.07-.11s12-71.83,67.44-42.11c11.84,6.35,25.88,18.3,34.76,20.4,35.57,8.17,47-17.47,67.51,9.34,25.58,33.49,65.36,30.8,50.23,83C3140.58,764.33,3200.29,784.55,3145.32,850Z"/><path class="cls-46" d="M3145.26,850a238.32,238.32,0,0,1-18.58,19.61S3125,831.83,3082.42,845c0,0-38.43-61.15-85.76-67.71-8.48-1.16-17.07.14-25.25,2.66-12.55,3.85-45.11,9-61.14-20.13-20.47-37.22,8.15-64.09,10.3-66-1,2.56-20.71,52.47,16.46,70.81,38.17,18.77,51.84-23.6,93.09,8.9s79.57,32.66,94.6,9.48C3124.72,783.05,3104.05,846.69,3145.26,850Z"/><path class="cls-46" d="M3118,715.55s39.08,35.81-9.44,65.72C3108.51,781.27,3141.39,752.32,3118,715.55Z"/><path class="cls-46" d="M2932.24,716.84s-7.51,40,50.29,39.07C2982.53,755.91,2945.14,752.66,2932.24,716.84Z"/><path class="cls-46" d="M2941.94,680.18s10.51-39.76,50.14-16.9C2992.08,663.28,2956,652.48,2941.94,680.18Z"/><path class="cls-46" d="M2997.34,693.7s-10,18.12,15.6,31c0,0,14,57.87,77.08,42.24,0,0-56.95,5.74-69.7-45.82C3020.32,721.14,2999.73,717.34,2997.34,693.7Z"/><path class="cls-32" d="M2966.08,901.09c.18,11.3-5.78,17.24-13.25,17.36s-13.64-5.61-13.82-16.91,5.8-15.27,13.28-15.39S2965.89,889.8,2966.08,901.09Z"/><path class="cls-21" d="M3596.19,977.27s-183.89,131.8-264.3,186l-3.93,2.64c-11.76,7.88-21,13.86-26.65,17.21-17.45,10.29-44.43,5.65-70.46-3.6q-2.82-1-5.62-2.06c-36.55-13.91-69.68-35.51-69.68-35.51-11.38,56.43-12.63,136.88-10.52,208.79,1.29,43.76,3.82,84.37,6.08,114.49,2.37,31.64,4.44,51.71,4.44,51.71-81.21,73.44-198.33,45.62-198.33,45.62C2926.93,1331.1,3046.91,989,3046.91,989l5.59-23,51.08,11.22,159.9,65.64,225.89-183.3C3501.61,948.93,3596.19,977.27,3596.19,977.27Z"/><path class="cls-21" d="M2961.26,973.45s-94,379.53-94.94,551.63c0,0-58.35-13.86-76.16-44.52,0,0,3.69-16.37,9.62-43.06,5.81-26.15,13.76-62.21,22.48-102.48,23.34-107.76,52.18-245.68,60.16-304.61a70.87,70.87,0,0,1,10.35-28.36,199.48,199.48,0,0,1,56.5-25.33Z"/><path class="cls-22" d="M3055.12,986.41l13.74,21.05,21.71,33.28,5,7.67,1.52-5.8-13.65,8.62L3061.66,1065l-5,3.16a4.35,4.35,0,0,0-1.52,5.8l10.45,21.31,16.51,33.68,3.81,7.78.66-5.14-9.52,11.79-22.69,28.09-27.59,34.17L3003,1235c-3.86,4.78-7.74,9.54-11.58,14.34l-.15.19c-1.39,1.73-1.81,4.34,0,6,1.54,1.42,4.5,1.84,6,0l9.52-11.79,22.69-28.09,27.6-34.17,23.71-29.36c3.86-4.78,7.74-9.54,11.58-14.34l.15-.19a4.49,4.49,0,0,0,.67-5.14l-10.45-21.31-16.51-33.68-3.81-7.78-1.52,5.8,13.66-8.61,21.78-13.74,5-3.17a4.29,4.29,0,0,0,1.52-5.8l-13.73-21.05-21.71-33.28-5-7.67a4.24,4.24,0,1,0-7.32,4.28Z"/><path class="cls-22" d="M2936,986.73l-14.25,12.47L2899,1019.07l-5.21,4.56a4.28,4.28,0,0,0,0,6l17.72,18,2.54,2.57v-6l-9.32,10.33-18.43,20.43-12.93,14.33a5.74,5.74,0,0,0-1.9,4.18c.06,1.2.2,2.4.3,3.6l1.38,16.26,2.08,24.46,2.38,28.15,2.28,26.9,1.8,21.19c.3,3.55.59,7.09.9,10.63,0,.16,0,.32,0,.48.19,2.21,1.82,4.35,4.24,4.24,2.14-.09,4.44-1.87,4.24-4.24L2890,1212l-2.68-31.58-3.23-38.07-2.8-33-.92-10.85c-.15-1.72-.2-3.48-.44-5.19,0-.07,0-.15,0-.22l-1.24,3,14-15.54,22.24-24.66,5.12-5.67a4.33,4.33,0,0,0,0-6l-17.73-18-2.54-2.57v6l14.26-12.47,22.71-19.87,5.21-4.56a4.26,4.26,0,0,0,0-6,4.34,4.34,0,0,0-6,0Z"/><path class="cls-22" d="M3151.11,1465.23c-47.05,37.62-115.28,23.54-115.28,23.54V1374.05c68.23,4.83,108.63-22.92,109.2-23.31C3146.32,1394.5,3148.85,1435.11,3151.11,1465.23Z"/><path class="cls-22" d="M2839,1347.21l-17.69,104.24s-19.16-5.07-21.55-14c5.81-26.15,13.76-62.21,22.48-102.48C2822.26,1335,2830.18,1345.74,2839,1347.21Z"/><path class="cls-22" d="M3331.89,1163.27l-3.93,2.64c-11.76,7.88-21,13.86-26.65,17.21-17.45,10.29-44.43,5.65-70.46-3.6q-2.82-1-5.62-2.06a72.86,72.86,0,0,1,106.66-14.19Z"/><ellipse class="cls-22" cx="3552.5" cy="990.57" rx="13.26" ry="6.25" transform="translate(210.54 2550.31) rotate(-40.6)"/><ellipse class="cls-22" cx="3524.78" cy="1012.81" rx="13.26" ry="6.25" transform="translate(189.4 2537.62) rotate(-40.6)"/><ellipse class="cls-22" cx="3496.2" cy="1034.2" rx="13.26" ry="6.25" transform="translate(168.59 2524.17) rotate(-40.6)"/><ellipse class="cls-22" cx="2638.79" cy="1012.55" rx="6.25" ry="9.81" transform="translate(-187.17 1061.79) rotate(-21.99)"/><ellipse class="cls-22" cx="2647.56" cy="1037.37" rx="6.25" ry="9.81" transform="translate(-195.82 1066.88) rotate(-21.99)"/><ellipse class="cls-22" cx="2655.25" cy="1062.7" rx="6.25" ry="9.81" transform="translate(-204.75 1071.6) rotate(-21.99)"/><path class="cls-9" d="M1958,1647.9H1529.65a16.6,16.6,0,0,1-16.12-14.75l-25-252.77c-1-10.12,5.55-18.38,14.65-18.38h481.31c9.1,0,15.65,8.26,14.65,18.38l-25,252.77A16.58,16.58,0,0,1,1958,1647.9Z"/><rect class="cls-48" x="1519.35" y="1647.45" width="439.33" height="22.39" rx="11.19"/></g></svg>