<svg xmlns="http://www.w3.org/2000/svg" xmlns:xlink="http://www.w3.org/1999/xlink" viewBox="0 0 4680 3120"><defs><style>.cls-1{fill:none;clip-rule:evenodd;}.cls-14,.cls-2{fill:#fff;}.cls-2{opacity:0;}.cls-3{fill:#e4f6f8;}.cls-3,.cls-7{fill-rule:evenodd;}.cls-4{clip-path:url(#clip-path);}.cls-5{fill:#c7e1e2;}.cls-6{opacity:0.5;}.cls-7{fill:#ade0e0;}.cls-8{fill:#edb183;}.cls-9{fill:#bc835c;}.cls-10{fill:#f5ae97;}.cls-11{fill:#ed856e;}.cls-12{fill:#0e6864;}.cls-13{fill:#f25619;}.cls-15{fill:#ce3d11;}.cls-16{fill:#82484d;}.cls-17{fill:#542b30;}.cls-18{fill:#ffc05d;}.cls-19{fill:#ffa829;}.cls-20{fill:#0a5650;}.cls-21{fill:#78c4bf;}.cls-22{fill:#1daaa6;}.cls-23{fill:#b73108;}.cls-24{fill:#023531;}.cls-25{fill:#055451;}.cls-26{fill:#cb6655;}.cls-27{fill:#072c35;}.cls-28{fill:#131e36;}.cls-29{fill:#8b8e0a;}.cls-30{fill:#75750a;}.cls-31{fill:#a3af0b;}.cls-32{fill:#364547;}.cls-33{fill:#b6cc17;}.cls-34{fill:#eff275;}.cls-35{fill:#3c7219;}.cls-36{fill:#c7c365;}.cls-37{fill:#be5712;}.cls-38{opacity:0.6;}.cls-39{fill:#602904;}.cls-40{fill:#6b2f05;}.cls-41{fill:#913f07;}.cls-42{fill:#0a3f3b;}.cls-43{fill:#23b9ba;}.cls-44{fill:#d8ae00;}.cls-45{fill:#a04a10;}.cls-46{fill:#fc8;}</style><clipPath id="clip-path"><path class="cls-1" d="M3093.72,2710c-960.5,179.15-1624.16,27.23-1624.16,27.23S849.88,2605.3,869.87,1929.65c2.69-91.12,12.74-169.58,28.09-237.16,37.94-167,108.31-267.38,180.53-327.77,139.67-116.81,249.38-265,324-431.13,113.68-253.05,371.58-547.48,954.61-503.17,999.49,76,1019.48,919.53,1011.49,1043.47-3.4,52.64,119.8,251.26,189,476.07C3651.41,2254.44,3646.25,2607,3093.72,2710Z"/></clipPath></defs><title>09</title><g id="_09" data-name="09"><rect class="cls-2" width="4680" height="3120"/><path class="cls-3" d="M3093.72,2710c-960.5,179.15-1624.16,27.23-1624.16,27.23S849.88,2605.3,869.87,1929.65c2.69-91.12,12.74-169.58,28.09-237.16,37.94-167,108.31-267.38,180.53-327.77,139.67-116.81,249.38-265,324-431.13,113.68-253.05,371.58-547.48,954.61-503.17,999.49,76,1019.48,919.53,1011.49,1043.47-3.4,52.64,119.8,251.26,189,476.07C3651.41,2254.44,3646.25,2607,3093.72,2710Z"/><g class="cls-4"><rect class="cls-5" x="2827.69" y="261.04" width="2.8" height="2677.63"/><rect class="cls-5" x="3027.01" y="261.04" width="2.8" height="2677.63"/><rect class="cls-5" x="3226.33" y="261.04" width="2.8" height="2677.63"/><rect class="cls-5" x="3425.65" y="261.04" width="2.8" height="2677.63"/><rect class="cls-5" x="3624.98" y="261.04" width="2.8" height="2677.63"/><rect class="cls-5" x="3824.3" y="261.04" width="2.8" height="2677.63"/><rect class="cls-5" x="2622.93" y="261.04" width="2.8" height="2677.63"/><rect class="cls-5" x="2418.18" y="261.04" width="2.8" height="2677.63"/><rect class="cls-5" x="2213.42" y="261.04" width="2.8" height="2677.63"/><rect class="cls-5" x="2008.66" y="261.04" width="2.8" height="2677.63"/><rect class="cls-5" x="1803.9" y="261.04" width="2.8" height="2677.63"/><rect class="cls-5" x="1599.14" y="261.04" width="2.8" height="2677.63"/><rect class="cls-5" x="1394.38" y="261.04" width="2.8" height="2677.63"/><rect class="cls-5" x="1189.62" y="261.04" width="2.8" height="2677.63"/><rect class="cls-5" x="984.86" y="261.04" width="2.8" height="2677.63"/><rect class="cls-5" x="780.1" y="261.04" width="2.8" height="2677.63"/><rect class="cls-5" x="466.48" y="2765.1" width="3502.63" height="2.8"/><rect class="cls-5" x="466.48" y="2560.34" width="3502.63" height="2.8"/><rect class="cls-5" x="466.48" y="2355.58" width="3502.63" height="2.8"/><rect class="cls-5" x="466.48" y="2150.82" width="3502.63" height="2.8"/><rect class="cls-5" x="466.48" y="1946.06" width="3502.63" height="2.8"/><rect class="cls-5" x="466.48" y="1741.3" width="3502.63" height="2.8"/><rect class="cls-5" x="466.48" y="1536.54" width="3502.63" height="2.8"/><rect class="cls-5" x="466.48" y="1331.78" width="3502.63" height="2.8"/><rect class="cls-5" x="466.48" y="1127.02" width="3502.63" height="2.8"/><rect class="cls-5" x="466.48" y="922.26" width="3502.63" height="2.8"/><rect class="cls-5" x="466.48" y="717.5" width="3502.63" height="2.8"/><rect class="cls-5" x="466.48" y="546.3" width="3502.63" height="2.8"/><rect class="cls-5" x="466.48" y="375.09" width="3502.63" height="2.8"/></g><g class="cls-6"><path class="cls-7" d="M3093.72,2710c-960.5,179.15-1624.16,27.23-1624.16,27.23S849.88,2605.3,869.87,1929.65c2.69-91.12,12.74-169.58,28.09-237.16,272.28-19.76,544.91,71.06,791.7,191.66,198.45,97,387.35,213.86,591.69,297.71s430.52,133.76,646.72,88.54c229.43-48,422.44-196.11,623.4-316.75l6.15-3.69C3651.41,2254.44,3646.25,2607,3093.72,2710Z"/></g><ellipse class="cls-8" cx="2219.79" cy="2770.47" rx="1366.81" ry="146.82"/><path class="cls-9" d="M2755.85,2689.49c-279.34,0-513.95,17.79-579.76,41.85-65.81-24.06-300.42-41.85-579.76-41.85-330.36,0-598.17,24.89-598.17,55.59s267.81,55.6,598.17,55.6c279.34,0,514-17.79,579.76-41.86,65.81,24.07,300.42,41.86,579.76,41.86,330.36,0,598.17-24.89,598.17-55.6S3086.21,2689.49,2755.85,2689.49Z"/><path class="cls-10" d="M1119.24,816c-2.2-12.53-16.3-18-16.3-18,1-13.61-30.48-40.21-88.05-24.79-37,9.91-37,48.42-32.36,74.72,0,.14.06.29.08.43a87.83,87.83,0,0,0,17.91,39.16l6.11,7.64.16,4.79,23.7,20,46.39,2.31L1102,897.59l.49-8.54a5,5,0,0,1,2.08-3.7v0C1115.6,877,1121.44,828.53,1119.24,816Z"/><path class="cls-10" d="M1010.48,854.78c-18.58-3.49-31.67-20.62-29.52-39.4,2.12-18.57,10.82-35.94,33.93-42.13,57.57-15.42,89.05,11.18,88.05,24.79,0,0,3.29,71.63-73.7,59.9C1022.41,856.9,1016.17,855.85,1010.48,854.78Z"/><path class="cls-11" d="M980.78,822.09A36.5,36.5,0,0,0,1009,847.25c5.69,1.07,11.92,2.12,18.76,3.16,71.9,11,73.78-50.78,73.72-59a12.2,12.2,0,0,1,1.34,6.05s3.3,71.63-73.69,59.91c-6.84-1-13.07-2.1-18.77-3.16A36.37,36.37,0,0,1,980.78,822.09Z"/><path class="cls-10" d="M1051.08,806.65c3.47-18.15,50.57-8.87,51.83-8.61h0l7.43,37.89L1091,848.08l0,0c-6.84-6-6.41-24.46-6.41-24.46S1047.57,825,1051.08,806.65Z"/><path class="cls-11" d="M1051.08,806.65c3.47-18.15,50.57-8.87,51.83-8.61-1.32-.12-47.16-4.17-48.77,10-1.64,14.4,31.95,14,31.95,14,1.25,21.13,4.63,25.61,4.85,26-6.84-6-6.41-24.46-6.41-24.46S1047.57,825,1051.08,806.65Z"/><path class="cls-12" d="M1006.79,919.94V900s57,12.7,95.16-2.4l-.65,22.35L1078,956.56H998.16Z"/><path class="cls-13" d="M1682.73,2753.27h350.75a.5.5,0,0,1-.38-.26,314,314,0,0,0-22.44-29.27c-27.75-32-61.93-57.23-103.13-68.87l-40.86-11.54-165.86-37-14.44,117.38Z"/><path class="cls-14" d="M1877,2754.32h156.45a.5.5,0,0,1-.38-.26,314,314,0,0,0-22.44-29.27c-27.75-32-61.93-57.23-103.13-68.87C1907.53,2655.92,1839.46,2679.46,1877,2754.32Z"/><path class="cls-15" d="M1682.73,2754.32h350.75a.5.5,0,0,1-.38-.26c-6.95-10.22-14.42-20-25.84-29.27H1683Z"/><path class="cls-16" d="M1870.36,2626.73s-48.74,57.07-156.59,29.2a330.12,330.12,0,0,1-52.66-18.81l10-462.66L1618.38,1929l-45.86,261.81-59.41-57.25-112.79-108.71-24.16-287.31L1524.35,1631l129.86,8.71,123.51,106.35L1858,2152.2Z"/><polygon class="cls-17" points="1618.38 1929.01 1572.52 2190.82 1513.11 2133.57 1618.38 1929.01"/><path class="cls-17" d="M1661.11,2637.12l10-462.66L1618.38,1929l86.79,245.45,8.6,481.47A330.12,330.12,0,0,1,1661.11,2637.12Z"/><path class="cls-18" d="M943.48,1835.23,781.83,2146.51a.5.5,0,0,1,.4-.22,315.9,315.9,0,0,0,36.32-6.42c41.21-9.87,79.34-28.58,108.65-59.78l29.07-31L1065.53,1919,968,1852.07Z"/><path class="cls-19" d="M853,2007.18,780.89,2146a.47.47,0,0,1,.41-.21,318.48,318.48,0,0,0,36.32-6.43c41.21-9.86,79.33-28.58,108.65-59.78C926.27,2079.6,936.76,2008.34,853,2007.18Z"/><path class="cls-14" d="M942.55,1834.75,780.89,2146a.47.47,0,0,1,.41-.21c12.28-1.47,24.42-3.58,37.88-9.44l149.47-287.8Z"/><path class="cls-20" d="M1490.19,2156.41c-13.86,60.65-74.22,110.28-132.81,89.38-111.17-39.66-264.52-98.49-410.26-186.9,0,0,39.42-66.11,68.18-137.32a552.8,552.8,0,0,0,19.87-57.13s228.23,151.37,273,155.7l33.1-227L1536.88,1721S1545.37,1914.76,1490.19,2156.41Z"/><path class="cls-12" d="M1414.06,2165a.08.08,0,0,0,0,0h0Z"/><path class="cls-18" d="M1427.63,2753.27h350.75a.5.5,0,0,1-.38-.26,317.45,317.45,0,0,0-22.44-29.27c-27.75-32-61.93-57.23-103.13-68.87l-40.86-11.54-165.86-37-14.44,117.38Z"/><path class="cls-19" d="M1621.93,2754.32h156.45a.5.5,0,0,1-.38-.26,317.45,317.45,0,0,0-22.44-29.27c-27.75-32-61.93-57.23-103.13-68.87C1652.43,2655.92,1584.35,2679.46,1621.93,2754.32Z"/><path class="cls-14" d="M1427.63,2754.32h350.75a.5.5,0,0,1-.38-.26c-7-10.22-14.43-20-25.84-29.27H1427.87Z"/><path class="cls-12" d="M1631.23,2617.17c-75.24,136.59-224.43,45.07-224.43,45.07l8.07-453.82.6-33.81a81.29,81.29,0,0,0-1.41-9.63.08.08,0,0,0,0,0c-4.47-23.23-22.72-87.86-95.85-188.81-93.29-128.78-49.76-201.22-49.76-201.22l188.46-52,132.19,359.54a288.52,288.52,0,0,1,17.27,83Z"/><path class="cls-20" d="M1631.23,2617.17c-75.24,136.59-224.43,45.07-224.43,45.07l8.07-453.82C1419.31,2345.08,1447.88,2749.11,1631.23,2617.17Z"/><path class="cls-21" d="M1358.45,1764c-1.82-3.53-2.8-5.42-2.81-5.42l2.72-1.42s1,1.9,2.81,5.44Z"/><path class="cls-21" d="M1514.76,2634l-3.06,0,.07-12.2,3.07,0Zm.15-24.4-3.06,0,.07-12.19,3.06,0Zm.14-24.39-3.06,0,.07-12.19h3.06Zm.14-24.39-3.06,0,.06-12.19,3.06,0Zm.13-24.39h-3.06l0-12.19h3.07Zm.11-24.38-3.06,0,.06-12.19,3.06,0Zm.11-24.38-3.06,0,0-12.19,3.06,0Zm.1-24.39h-3.06l.05-12.19h3.06Zm.09-24.38h-3.06l0-12.19h3.06Zm.08-24.38h-3.06l0-12.21h3.06Zm.07-24.42h-3.06l0-12.19h3.06Zm0-24.38h-3.06l0-12.16H1516Zm0-24.36h-3.06v-12.19H1516Zm-3-24.38v-12.19H1516v12.14Zm0-24.38v-12.18H1516v12.18Zm0-24.36,0-12.19h3.06l0,12.19Zm-.06-24.37q0-6.2,0-12.19h3.06q0,6,0,12.19Zm-.1-24.37c0-4.15,0-8.22-.07-12.18l3.06,0q0,5.94.07,12.19Zm-.16-24.36q-.06-6.32-.11-12.19l3.06,0q.06,5.88.11,12.19Zm-.25-24.37q-.09-6.45-.18-12.18l3.06,0q.09,5.73.18,12.19Zm-.43-24.35c-.1-4.13-.2-7.8-.32-10.91,0-.41,0-.82,0-1.23l3-.16c0,.43.05.85.06,1.27.12,3.13.22,6.81.32,11Zm-1.73-24.08c-.59-3.65-1.38-7.65-2.34-11.88l3-.68c1,4.29,1.78,8.35,2.38,12.06Zm-5.29-23.66c-1-3.7-2.13-7.63-3.35-11.69l2.93-.88c1.23,4.08,2.37,8,3.38,11.77Zm-7-23.3c-1.2-3.68-2.51-7.56-3.88-11.53l2.89-1c1.38,4,2.69,7.89,3.9,11.59Zm-8-23c-1.34-3.71-2.77-7.56-4.23-11.42l2.87-1.08c1.46,3.88,2.89,7.73,4.24,11.45Zm-8.59-22.8q-2.17-5.61-4.47-11.34l2.85-1.13q2.28,5.73,4.48,11.36Zm-9-22.64q-2.3-5.6-4.66-11.26l2.83-1.18q2.37,5.67,4.66,11.29Zm-9.39-22.49c-1.58-3.72-3.19-7.46-4.8-11.2l2.81-1.22q2.43,5.63,4.81,11.22Zm-9.67-22.38q-2.45-5.6-4.93-11.19l2.79-1.24q2.49,5.6,5,11.2Zm-9.91-22.32q-2.5-5.57-5-11.09l2.79-1.27q2.51,5.54,5,11.1Zm-10.09-22.18q-2.57-5.57-5.11-11.07l2.77-1.29q2.56,5.5,5.12,11.08ZM1423,1895.41q-2.61-5.57-5.19-11l2.77-1.31c1.72,3.64,3.45,7.33,5.2,11Zm-10.42-22.05q-2.65-5.58-5.26-11L1410,1861q2.61,5.43,5.27,11Zm-10.56-22q-2.7-5.59-5.33-11l2.75-1.34q2.63,5.37,5.34,11Zm-10.69-21.93q-2.77-5.64-5.4-10.94l2.75-1.36,5.4,10.95Zm-10.82-21.88c-1.9-3.82-3.73-7.46-5.46-10.92l2.74-1.37,5.46,10.93Zm-11-21.82q-3.06-6.06-5.53-10.9l2.73-1.39c1.64,3.22,3.49,6.87,5.53,10.91Z"/><rect class="cls-21" x="1510.07" y="2646.67" width="6.12" height="3.06" transform="translate(-1145.62 4142.71) rotate(-89.6)"/><path class="cls-21" d="M1453.16,1789.3C1324,1856.67,1233.25,1794,1241.94,1765S1222,1431.82,1222,1431.82a116,116,0,0,1-18.77-9.75c-22.57-14.15-48-37.82-72.88-64.42-33.7-36.08-66.22-77.56-88.68-108.09-9.68-13.14-17.49-24.26-22.74-32-8.94-13.29-14.69-38.79-18.57-68.75-8.71-67.09-8.07-156.53-13.25-181.14-7.48-35.6,19.66-47.7,19.66-47.7,35,17.51,68.56,9.83,84.64,4.13a78.47,78.47,0,0,0,9.87-4.13c26.21,6.55,32.77,238,32.77,238l66.86,84.27,24.36,30.71,4.61,5.8,58.31,11.35,10.47-2.52,109.54-26.38,15.57-4.81s77-5,103.3,55.3a98.41,98.41,0,0,1,6.08,19.28l-58.89,49s63.64,307.32,66,332.94S1453.16,1789.3,1453.16,1789.3Z"/><path class="cls-22" d="M1533.17,1331l-58.89,49-4.37-20.36,57.18-47.89A98.41,98.41,0,0,1,1533.17,1331Z"/><path class="cls-22" d="M1052.26,1213.6a66.08,66.08,0,0,1-10.57,36c-9.68-13.14-17.49-24.26-22.74-32-8.94-13.29-14.69-38.79-18.57-68.75A66.45,66.45,0,0,1,1052.26,1213.6Z"/><path class="cls-22" d="M1200.93,1242.26l-17.93,4-52.63-73.82h-31.73l21-19.14s-4.33-86.29-7-146.7-21.22-82.52-21.22-82.52a78.47,78.47,0,0,0,9.87-4.13c26.21,6.55,32.77,238,32.77,238Z"/><path class="cls-22" d="M1298.68,1287.6l-4.53,14.29s-43.34,40.22-59.75,43.63c0,0-6.23,72.56-31.15,76.55-22.57-14.15-48-37.82-72.88-64.42,3-17,5.88-33.09,6.46-33.81,1.24-1.55,54.52-37.17,54.52-37.17l33.94-13.7,4.61,5.8,58.31,11.35Z"/><path class="cls-13" d="M2194.51,1169.33v149.93l-168.43,70.56a104.87,104.87,0,0,1-41,8.14l-156.25-.83c-7.82,19.89-12.91,55-16.17,96.24-9.48,120.25-3.36,292.69-3.36,292.69-73.38,45.35-211.86,16.58-271.91-38.35l-.47-26.66h0a56.63,56.63,0,0,0,3.37-8.14l-42-216.11h0L1533.17,1331c-8-44.45-42.68-73.64-109.38-74.58-33.53-.48-82.73,1.65-106.09,14.16a227.27,227.27,0,0,0-48.12,35c-27.18,25.56-46.52,38.09-64.24,39.38-14.3,1-27.55-5.26-43-17.93a32.12,32.12,0,0,1-6.67-7.55c-6.37-9.8-8.08-22.6-7.86-32.31a60.45,60.45,0,0,1,.55-7.18,49.89,49.89,0,0,1,17.65-31c245.66-205.08,505.82-24.69,505.82-24.69l89.46,23,52.2,9.58a304.3,304.3,0,0,0,54.8,5l118.93,2.62a46.31,46.31,0,0,0,21.21-4.63Z"/><path class="cls-23" d="M1533.17,1331c-8-44.45-42.68-73.64-109.38-74.58-33.53-.48-82.73,1.65-106.09,14.16a227.27,227.27,0,0,0-48.12,35c-27.18,25.56-46.52,38.09-64.24,39.38l4-4.67c-17.93.18-39.38-11.57-40.12-11.85-.49-.2-6.81-4.39-13.62-9-6.37-9.8-8.08-22.6-7.86-32.31l4.81-10.27s18.22-21.24,44.25-12c20.45,7.27,37.4,26,37.54,46.53l0,0s43.49-35.75,85.33-61.83C1377.28,1213.71,1562.66,1228.62,1533.17,1331Z"/><path class="cls-10" d="M1401.86,1263.44l-3.22-35.18c68.27-9.08,46.69-136.36,46.69-136.36l-4.57-28.68-9.47-59.79L1339,997l-10.45-.71-4.39,10.88-45.07,111.47s-44.88-19.56-46.32,26.81c-.64,21.82,14.88,33.92,30,40.45.06,0,.06.06.12.05,2.41,1,4.75,2,7,2.67a108.56,108.56,0,0,0,16.95,4.28,7.16,7.16,0,0,1,5.68,4.82c4.1,11.81,15.29,45.68,19.14,69.86l85.38,81.1S1412.94,1285.64,1401.86,1263.44Z"/><path class="cls-11" d="M1398.68,1228.28c-7.64,1.09-33.7,2.74-57.45-23.32,0,0,3.42,36,59.09,41.29Z"/><path class="cls-11" d="M1272.06,1141.22c1.1-6.2-6.46-10.45-11.22-6.33-3.95,3.42-6.63,9.8-.89,21.54,11.14,22.81,22.3,9.88,20,2.75s-9.55-9-7.91-17.7C1272,1141.39,1272,1141.3,1272.06,1141.22Z"/><path class="cls-11" d="M1269.91,1188.59a107.59,107.59,0,0,0,16.95,4.24s15.33-1.66,15-16.31C1301.07,1178,1292.73,1193.43,1269.91,1188.59Z"/><path class="cls-24" d="M1200.69,1032.5a1.1,1.1,0,0,0-.13-2c-5.57-2-19.89-6.43-24.68-1.25C1170.11,1035.49,1182.79,1041.78,1200.69,1032.5Z"/><path class="cls-24" d="M1204.05,1025.93a1.51,1.51,0,0,0,2.23-1.62c-1.75-7.89-7-27.65-16.52-29.41C1178.35,992.78,1180.3,1012,1204.05,1025.93Z"/><path class="cls-11" d="M1254.26,1054.88l24.81,63.71s58.78-69.53,110.39-54.67c27.06,7.8,42.62,4.35,51.3-.7l-9.47-59.79L1339,997l-14.84,10.17Z"/><path class="cls-25" d="M1214.3,1122.08h.06a244.42,244.42,0,0,0,18.56,20.66s2.75-38.81,46.15-24.14c0,0,41.13-61.8,90-67.27,8.74-1,17.53.6,25.87,3.41,12.79,4.29,46.11,10.51,63.37-19,22-37.7-6.65-66.08-8.81-68.06a.15.15,0,0,1-.07-.11s-10.43-74.13-68.17-45.09c-12.34,6.21-27.09,18.11-36.26,20-36.78,7.44-47.85-19.22-69.63,7.79-27.19,33.72-68,29.89-53.85,83.89C1221.47,1034.14,1159.57,1053.31,1214.3,1122.08Z"/><path class="cls-24" d="M1214.36,1122.07a244.42,244.42,0,0,0,18.56,20.66s2.75-38.81,46.15-24.14c0,0,41.13-61.8,90-67.27,8.74-1,17.53.6,25.87,3.41,12.79,4.29,46.11,10.51,63.37-19,22-37.7-6.65-66.08-8.81-68.06,1,2.66,19.87,54.48-18.82,72.32-39.73,18.26-52.64-25.64-95.9,6.65s-82.64,31.42-97.46,7.19C1237.27,1053.79,1256.8,1119.75,1214.36,1122.07Z"/><path class="cls-24" d="M1246,984.62s-41.12,35.74,7.93,67.78C1254,1052.4,1221,1021.77,1246,984.62Z"/><path class="cls-24" d="M1436.84,990.93s6.64,41.27-52.73,38.79C1384.11,1029.72,1422.62,1027.39,1436.84,990.93Z"/><path class="cls-24" d="M1427.86,953s-9.73-41.13-51.07-18.7C1376.79,934.29,1414.18,924.16,1427.86,953Z"/><path class="cls-24" d="M1370.56,965.4s9.83,18.89-16.86,31.46c0,0-15.91,59.1-80.34,41.33,0,0,58.36,7.44,72.86-45.2C1346.22,993,1367.47,989.63,1370.56,965.4Z"/><path class="cls-26" d="M1422,1162.92l-41.2,5.22a4,4,0,0,0-3.24,5.27c3.24,8.74,12,26.35,29.16,23s19.57-21,19.74-29.51A4,4,0,0,0,1422,1162.92Z"/><path class="cls-27" d="M1340.45,1115.81c.88,0,1.77.1,2.65.18a63.72,63.72,0,0,1,6.82,1,78.85,78.85,0,0,1,21.73,7.44v-4.34a139.79,139.79,0,0,0-20.65,11.5,28.85,28.85,0,0,0-5.7,4.81,2.57,2.57,0,0,0,0,3.55,2.53,2.53,0,0,0,3.55,0,17.31,17.31,0,0,1,1.92-1.91c.39-.34.79-.66,1.19-1l.29-.22.74-.54c2.09-1.49,4.28-2.85,6.5-4.15,3.93-2.31,8-4.43,12-6.45l2.64-1.28c1.7-.79,1.59-3.51,0-4.34a83.46,83.46,0,0,0-22.92-7.94,66.7,66.7,0,0,0-10.81-1.35c-3.23-.08-3.23,4.94,0,5Z"/><path class="cls-26" d="M1375.8,1113.83a119.07,119.07,0,0,0-17.29-8.43,2.52,2.52,0,0,0-3.09,1.76,2.59,2.59,0,0,0,1.75,3.09,112.17,112.17,0,0,1,16.1,7.91,2.51,2.51,0,0,0,2.53-4.33Z"/><path class="cls-27" d="M1434.68,1095.73a49,49,0,0,0-7.21,4,66.34,66.34,0,0,0-14.52,12.47,2.33,2.33,0,0,0,1.63,3.92c3.16.19,6.32.5,9.46.89,2.29.28,4.88.67,7.33,1.19,1.12.23,2.24.5,3.33.83.48.15,1,.31,1.42.48l.37.14c-.25-.11-.26-.11,0,0l.62.31c2.61,1.39,4.93-2.58,2.32-4-4.43-2.36-9.93-2.88-14.83-3.5-3.32-.42-6.65-.75-10-1l1.62,3.92a62,62,0,0,1,13.83-11.91,49.52,49.52,0,0,1,7-3.81,2.31,2.31,0,0,0,.82-3.14,2.36,2.36,0,0,0-3.14-.83Z"/><path class="cls-26" d="M1413.28,1110.67c-.16.2.06-.09.12-.16s.16-.21.25-.31.37-.48.56-.71c.38-.48.76-.94,1.15-1.41.78-.93,1.58-1.84,2.39-2.73,1.63-1.79,3.33-3.52,5.1-5.17a2,2,0,0,0-2.81-2.81,95,95,0,0,0-10.2,11.29,2,2,0,0,0,.72,2.72,2.05,2.05,0,0,0,2.72-.71Z"/><path class="cls-10" d="M1816.74,1175.46c-.06,0-.08,0-.13,0-2.5.8-5,1.54-7.35,2.08a108.46,108.46,0,0,1-17.66,2.74,7.34,7.34,0,0,0-6.26,4.43c-5.24,11.64-19.79,45.08-26,69.39-24.27,20.24-25.47,25.75-56.92,24.47-17.5-.72-37-15.28-33.81-32.51l5.81-40.07c-68.71-15.55-34.89-143.2-34.89-143.2l34.56-83.44,93.22-3.15L1807.42,1103s46.52-13.28,43.66,34.06C1849.72,1159.3,1832.81,1170.17,1816.74,1175.46Z"/><path class="cls-11" d="M1671.8,1224.21c57.2-.26,63.29-36.57,63.29-36.57-26.6,24.34-53,20.25-60.67,18.43Z"/><path class="cls-11" d="M1811.46,1129.12c-.55-6.41,7.55-10,12-5.41,3.71,3.85,5.84,10.6-1.08,22-13.46,22.2-23.64,8-20.61.94s10.57-8.33,9.7-17.29C1811.47,1129.3,1811.47,1129.21,1811.46,1129.12Z"/><path class="cls-11" d="M1809.26,1177.57a108.46,108.46,0,0,1-17.66,2.74s-15.46-3.1-13.74-18C1778.49,1163.92,1785.57,1180.39,1809.26,1177.57Z"/><path class="cls-11" d="M1804.43,1106s-38.2,19.36-64.62-40.82c0,0-13.66-31.43-14.66-50.31-.79-15-14.71.23-15.53,6.62,0,0-1.82-37.15-24.47-11.34,0,0-6,5.49-26.53,41.37l12.79-74.67L1722,954l79.33,18.48,26.33,39.95,21.13,55.34Z"/><path class="cls-28" d="M1858.1,1112.16c-2.93,2.7-6.13,5.44-9.51,8.2,0,0-6-27.8-42.15-15-34,12-76.67-53.91-72.62-94,.75-7.19-5.43-13.72-12.47-11.85-3.25.82-6.77,3.23-10.08,8.27,0,0-1-25.19-23.83-7s-23.43,63.82-50.83,72c-21.83,6.55-25.79-12-20.36-36.66a171.5,171.5,0,0,1,5.89-19.55c12.21-33.14.82-59.21,34-69.44,0,0,41.81-59.8,80-16.52,0,0,51.32-25.21,101.1,3.69s44.54,72.41,44.54,72.41S1929.47,1047.27,1858.1,1112.16Z"/><path d="M1858.1,1112.16c-2.93,2.7-6.13,5.44-9.51,8.2,0,0-6-27.8-42.15-15-34,12-76.67-53.91-72.62-94,.75-7.19-5.43-13.72-12.47-11.85-3.25.82-6.77,3.23-10.08,8.27,0,0-1-25.19-23.83-7s-23.43,63.82-50.83,72c-21.83,6.55-25.79-12-20.36-36.66l.07,0s1.19,33.69,22,21.8,49.17-116.86,75.51-63.13c0,0,27.13-23.64,28.71,15.87s37.61,82.27,61.42,76.3,52.39,7.83,53.8,22.71A24.07,24.07,0,0,0,1858.1,1112.16Z"/><path d="M1766.79,991.54s-4.12,65.61,62,83.36C1828.79,1074.9,1785.68,1046.06,1766.79,991.54Z"/><path d="M1878.84,1021.18s21.23,25.18-16.27,67.24C1862.57,1088.42,1884.09,1053.91,1878.84,1021.18Z"/><path d="M1729.71,939.79s-29.41-34.87-65.34,12.94C1664.37,952.73,1689.61,923,1729.71,939.79Z"/><path d="M1870.3,1000.36s-18.2-69.84-109-59.91C1761.26,940.45,1838.41,944.35,1870.3,1000.36Z"/><path class="cls-26" d="M1662.28,1141l41.2,5.21a4,4,0,0,1,3.24,5.28c-3.24,8.74-12,26.35-29.17,23s-19.56-21-19.74-29.51A4,4,0,0,1,1662.28,1141Z"/><path class="cls-27" d="M1743.79,1088.87a66.56,66.56,0,0,0-10.81,1.35,83.31,83.31,0,0,0-22.93,7.94,2.53,2.53,0,0,0,0,4.34,142.71,142.71,0,0,1,20.32,11.26c.55.38,1.09.76,1.62,1.16l.3.23c.21.15-.15-.13.18.14l.64.52a17.65,17.65,0,0,1,2.28,2.21,2.51,2.51,0,0,0,3.55-3.55c-3-3.52-7.35-6-11.27-8.35s-8.17-4.57-12.36-6.64c-.91-.45-1.81-.89-2.72-1.32v4.34a78.67,78.67,0,0,1,21.72-7.44,55,55,0,0,1,9.48-1.17c3.22-.08,3.24-5.1,0-5Z"/><path class="cls-26" d="M1711,1096.24a112.77,112.77,0,0,1,16.1-7.92,2.57,2.57,0,0,0,1.75-3.08,2.53,2.53,0,0,0-3.09-1.76,119.68,119.68,0,0,0-17.3,8.43,2.51,2.51,0,1,0,2.54,4.33Z"/><path class="cls-27" d="M1647.24,1077.78a48.53,48.53,0,0,1,7,3.81A62,62,0,0,1,1668,1093.5l1.63-3.93c-3.34.2-6.68.54-10,1-4.9.62-10.4,1.14-14.83,3.5-2.61,1.39-.29,5.36,2.32,4l.62-.31c.38-.18-.31.1.24-.1s1-.36,1.51-.51c1.1-.33,2.22-.6,3.34-.83,2.45-.52,5-.91,7.33-1.19,3.14-.39,6.3-.7,9.46-.89a2.33,2.33,0,0,0,1.62-3.92,66.29,66.29,0,0,0-14.51-12.47,49.55,49.55,0,0,0-7.21-4,2.37,2.37,0,0,0-3.14.83,2.3,2.3,0,0,0,.82,3.14Z"/><path class="cls-26" d="M1674.39,1086.74a94,94,0,0,0-10.19-11.29,2,2,0,0,0-2.81,2.81c1.76,1.65,3.47,3.38,5.1,5.17.79.87,1.56,1.75,2.32,2.65.39.47.77.93,1.15,1.41l.57.7.25.32.18.24a2,2,0,0,0,2.72.71,2,2,0,0,0,.71-2.72Z"/><path class="cls-28" d="M1893.35,1009.29a1.11,1.11,0,0,1,.13-2c5.58-2,19.9-6.43,24.68-1.24C1923.93,1012.27,1911.26,1018.56,1893.35,1009.29Z"/><path class="cls-28" d="M1890,1002.71a1.51,1.51,0,0,1-2.24-1.61c1.76-7.9,7.06-27.65,16.53-29.41C1915.7,969.57,1913.74,988.79,1890,1002.71Z"/><path class="cls-12" d="M1363.61,1289l33.45,59.67s-67.24-36.8-67.68-37.68-21.25-35.48-21.25-35.48Z"/><path class="cls-18" d="M1308.21,1250.44s-20.59,24.6-20,39.68,59.31,63.22,59.31,63.22l16.1-64.38S1329.38,1269.94,1308.21,1250.44Z"/><polygon class="cls-12" points="1400.32 1281.8 1397.06 1348.63 1412.17 1296 1404.62 1274.14 1400.32 1281.8"/><polygon class="cls-18" points="1400.32 1246.24 1408.22 1261.22 1429.21 1330.99 1400.32 1281.8 1400.32 1246.24"/><path class="cls-10" d="M1203.26,1396.66h0a3.66,3.66,0,0,1-1.83,0c-11.12-2.66-2.23-32-3.55-43.15s-13.8-4.9-15.58,39.77-50.28,55-69.41,44.76c-6.51-3.47-9.71-11-11-20.82a.08.08,0,0,1,0,0c-2.42-19.11,2.55-47,5.18-71.68,4-37.37,42.32-66.53,42.32-66.53a47.49,47.49,0,0,1,51.35-2.69c28.58,15.63,29.47,48.22,29.47,48.22C1233.06,1346.36,1214.67,1394,1203.26,1396.66Z"/><path class="cls-11" d="M1203.25,1396.66a3.66,3.66,0,0,1-1.83,0c-11.12-2.66-2.23-32-3.55-43.15s-13.8-4.9-15.58,39.77-50.28,55-69.41,44.76c-6.51-3.47-9.71-11-11-20.82.42,1.14,8.83,23.11,36.95,13.72,28.88-9.62,35-21.6,35.46-36.14s3.75-52.59,19.94-53.06S1189.92,1389.11,1203.25,1396.66Z"/><path class="cls-23" d="M2194.51,1292.12v27.14l-168.43,70.56a104.87,104.87,0,0,1-41,8.14l-156.25-.83c-7.82,19.89-12.91,55-16.17,96.24-.18-1.35-7.87-61,9.79-113.41,0,0,136.39,15.21,188.35-4.27C2042,1364,2129.69,1322.92,2194.51,1292.12Z"/><path class="cls-29" d="M2268.36,2008.23s-38.3-135.94-19.59-246.15,31.46-180.64,30.13-203.93c0,0,50.4,93.23,79.65,146,64.53,116.52,88.28,210.42,49.64,317.39,0,0,6.54,55,6.37,57.47s-49.67,63.06-49.67,63.06L2274,2100.58Z"/><path class="cls-30" d="M2344.42,2162.27s-52.25-292-52-466.77c0,0,37.3,309.1,95.71,446.65Z"/><path class="cls-31" d="M2306.31,2155.72l-.3,69.3-.29,76.95,26.09,4.29s10.47-10.6,26.16-24.67c24.22-21.64,60.81-51.47,90.44-63,48.81-19.08,125.22-93.16,183.46-226,2.06-4.67,4.17-9.13,6.37-13.38C2698.1,1862,2806.32,1892,2806.32,1892c-88-28.68-162.91-27.54-225.82-9.45h0C2386.24,1938.43,2306.31,2155.72,2306.31,2155.72Z"/><path class="cls-29" d="M2306,2225l-.29,76.95,26.09,4.29s10.47-10.6,26.16-24.67c176.23-343.63,287.43-386.44,290.91-387.72C2480.44,1933.11,2350.12,2144.62,2306,2225Z"/><path class="cls-31" d="M2394.05,2195.06l-17.44,63.55-19.39,70.55-25-2.73s-6.89-12.39-17.67-29.28c-16.65-26-42.55-62.68-66.73-80.85-39.83-30-90.89-117.32-110.3-253.88-.69-4.8-1.48-9.43-2.41-13.88-24.89-122.66-131.69-122.78-131.69-122.78,88-3.77,156.26,16.4,209.26,49h0C2376.35,1975.6,2394.05,2195.06,2394.05,2195.06Z"/><path class="cls-29" d="M2376.61,2258.61l-19.39,70.55-25-2.73s-6.89-12.39-17.67-29.28c-73.62-359.78-164.53-427.4-167.39-429.46C2291.43,1946.67,2356.75,2173.7,2376.61,2258.61Z"/><path class="cls-32" d="M2676.74,2069s-242.6,34.07-328.13,210.86C2348.61,2279.89,2422.85,2129.35,2676.74,2069Z"/><path class="cls-32" d="M2650,2036.15c-3.75,22.19-13.74,27.85-18.39,29.29a2.46,2.46,0,0,1-3.14-1.92c-.85-4.8-.39-16.27,17.62-29.75A2.46,2.46,0,0,1,2650,2036.15Z"/><path class="cls-32" d="M2622,2043.17c-2,22.41-11.52,28.83-16,30.63a2.45,2.45,0,0,1-3.28-1.66c-1.22-4.72-1.66-16.19,15.24-31A2.47,2.47,0,0,1,2622,2043.17Z"/><path class="cls-32" d="M2590.15,2054.84c1.57,20-5.86,27.11-9.58,29.37a2.2,2.2,0,0,1-3.14-1c-1.78-4-3.87-14,8.82-29.61A2.2,2.2,0,0,1,2590.15,2054.84Z"/><path class="cls-32" d="M2560.93,2064.21c5.5,19.33-.39,27.73-3.59,30.68a2.2,2.2,0,0,1-3.27-.34c-2.52-3.55-6.56-13,2.79-30.77A2.2,2.2,0,0,1,2560.93,2064.21Z"/><path class="cls-32" d="M2532.77,2075.89c7.9,17.18,3.65,25.84,1.1,29a2.06,2.06,0,0,1-3.09.16c-2.86-2.93-8-11.11-1.86-29A2.08,2.08,0,0,1,2532.77,2075.89Z"/><path class="cls-32" d="M2498.44,2084c15.58,10.71,16.35,20.33,15.8,24.39a2.06,2.06,0,0,1-2.57,1.71c-4-1.05-12.54-5.46-16.43-24A2.07,2.07,0,0,1,2498.44,2084Z"/><path class="cls-32" d="M2678.17,2099.5c-16.53-15.31-27.91-13.7-32.48-12a2.46,2.46,0,0,0-1.32,3.44c2.26,4.33,9.63,13.15,32.15,12.84A2.47,2.47,0,0,0,2678.17,2099.5Z"/><path class="cls-32" d="M2651.68,2111c-15.28-16.55-26.75-15.84-31.45-14.5a2.46,2.46,0,0,0-1.58,3.32c1.91,4.49,8.57,13.86,31,15.32A2.47,2.47,0,0,0,2651.68,2111Z"/><path class="cls-32" d="M2619.31,2121.2c-11-16.85-21.21-17.92-25.54-17.44a2.19,2.19,0,0,0-1.89,2.69c1,4.24,5.49,13.48,25.08,18.1A2.2,2.2,0,0,0,2619.31,2121.2Z"/><path class="cls-32" d="M2590.41,2131.62c-7.45-18.69-17.25-21.76-21.59-22.14a2.19,2.19,0,0,0-2.38,2.26c.16,4.36,2.72,14.3,21,22.7A2.21,2.21,0,0,0,2590.41,2131.62Z"/><path class="cls-32" d="M2561.94,2148.19c-1.45-20.07-9.86-26-13.88-27.64a2.2,2.2,0,0,0-3,1.44c-1.16,4.2-1.73,14.45,13.15,28A2.21,2.21,0,0,0,2561.94,2148.19Z"/><path class="cls-32" d="M2533.93,2159.49c.46-20.11-7.36-26.77-11.21-28.82a2.19,2.19,0,0,0-3.08,1.15c-1.55,4.07-3.09,14.22,10.45,29.11A2.21,2.21,0,0,0,2533.93,2159.49Z"/><path class="cls-32" d="M2025.76,1890.5s274.89,148.81,298.41,398.3C2324.17,2288.8,2302.46,2075.73,2025.76,1890.5Z"/><path class="cls-32" d="M2072.42,1863.12c-5.4,28.2,4,39.42,8.95,43.22a3.14,3.14,0,0,0,4.61-.9c3.15-5.36,7.71-19.28-7.82-43.43A3.15,3.15,0,0,0,2072.42,1863.12Z"/><path class="cls-32" d="M2102.77,1884c-7.59,27.69.92,39.61,5.54,43.78a3.13,3.13,0,0,0,4.66-.53c3.56-5.09,9.2-18.62-4.39-43.91A3.15,3.15,0,0,0,2102.77,1884Z"/><path class="cls-32" d="M2135.6,1912.11c-10.79,23.26-5.06,35-1.61,39.39a2.79,2.79,0,0,0,4.18.22c3.9-4,10.87-15,2.65-39.32A2.82,2.82,0,0,0,2135.6,1912.11Z"/><path class="cls-32" d="M2166.37,1936.32c-15.18,20.67-11.89,33.33-9.37,38.29a2.8,2.8,0,0,0,4.06,1.05c4.6-3.11,13.62-12.59,10.37-38A2.82,2.82,0,0,0,2166.37,1936.32Z"/><path class="cls-32" d="M2194.85,1962.84c-17.11,17-15.88,29.27-14.26,34.24a2.63,2.63,0,0,0,3.62,1.56c4.73-2.23,14.49-9.73,15.15-33.85A2.65,2.65,0,0,0,2194.85,1962.84Z"/><path class="cls-32" d="M2232.27,1987.86c-23.41,5.87-28.61,17-29.76,22.13a2.64,2.64,0,0,0,2.31,3.2c5.2.5,17.43-1,30.33-21.35A2.65,2.65,0,0,0,2232.27,1987.86Z"/><path class="cls-32" d="M2010.48,1926.3c26.57-11,39.47-4,44.18.13a3.14,3.14,0,0,1,.05,4.69c-4.63,4.17-17.38,11.43-44.17,1A3.15,3.15,0,0,1,2010.48,1926.3Z"/><path class="cls-32" d="M2037,1951.89c25.64-13,39-7,44.06-3.33a3.14,3.14,0,0,1,.42,4.68c-4.29,4.52-16.43,12.75-44,4.48A3.15,3.15,0,0,1,2037,1951.89Z"/><path class="cls-32" d="M2071.19,1978.47c20.65-15.25,33.34-12,38.3-9.47a2.8,2.8,0,0,1,1.06,4.06c-3.1,4.61-12.57,13.67-38,10.47A2.82,2.82,0,0,1,2071.19,1978.47Z"/><path class="cls-32" d="M2101.1,2003.8c17.23-19,30.31-18.33,35.67-16.86a2.81,2.81,0,0,1,1.85,3.77c-2.14,5.14-9.63,15.89-35.23,17.79A2.82,2.82,0,0,1,2101.1,2003.8Z"/><path class="cls-32" d="M2127.76,2036.3c10.67-23.36,23.35-26.65,28.91-26.87a2.8,2.8,0,0,1,2.89,3c-.48,5.54-4.36,18-28.19,27.61A2.81,2.81,0,0,1,2127.76,2036.3Z"/><path class="cls-32" d="M2156.22,2062.29c8.41-24.26,20.72-28.74,26.23-29.48a2.79,2.79,0,0,1,3.17,2.75c.05,5.56-2.63,18.38-25.45,30.15A2.81,2.81,0,0,1,2156.22,2062.29Z"/><path class="cls-33" d="M2690.09,2403.09c-41.17-45.41-179.33-180.55-321.6-125.81q-7.95,3-15.94,6.91a17.06,17.06,0,0,1-6,1.74c-3.14.26-7.23-.27-9.39-4.19a9.83,9.83,0,0,1,.59-9.94,309.09,309.09,0,0,1,39.36-48.19c39.9-39.91,106.07-83.34,187.22-50.22,108.69,44.34,131.86,175.31,136.78,224.77A6.38,6.38,0,0,1,2690.09,2403.09Z"/><path class="cls-34" d="M2642.88,2289.81c-8.09-11.27-123.22-156-274.39-12.53q-7.95,3-15.94,6.91a17.06,17.06,0,0,1-6,1.74c-3.14.26-7.23-.27-9.39-4.19a9.83,9.83,0,0,1,.59-9.94S2500.62,2091.56,2642.88,2289.81Z"/><path class="cls-35" d="M2643.3,2290.41c-.14-.21-.27-.41-.42-.6C2643.11,2290.11,2643.23,2290.3,2643.3,2290.41Z"/><path class="cls-33" d="M1937.75,2217.06c64.92-13.41,271.79-43.34,361.15,95.2q5,7.74,9.51,16.21a18.56,18.56,0,0,0,4.11,5.32c2.58,2.23,6.49,4.38,10.87,2.33a10.61,10.61,0,0,0,5.82-9.06,334.12,334.12,0,0,0-3.65-67.2c-9.39-60.31-39.5-140.44-131.51-163.27-123.22-30.58-227,69-262.82,109.12A6.89,6.89,0,0,0,1937.75,2217.06Z"/><path class="cls-34" d="M2051.23,2148.22c14.37-4.31,207.12-57.68,247.67,164q5,7.74,9.51,16.21a18.56,18.56,0,0,0,4.11,5.32c2.58,2.23,6.49,4.38,10.87,2.33a10.61,10.61,0,0,0,5.82-9.06,334.12,334.12,0,0,0-3.65-67.2C2299.13,2186.07,2230,2088.63,2051.23,2148.22Z"/><path class="cls-32" d="M2555.35,1679.82s-312.66,376-201.73,751.92C2353.62,2431.74,2261.25,2109.7,2555.35,1679.82Z"/><path class="cls-32" d="M2471.67,1667.19c24.24,37.81,17.08,59.58,12.13,68a4.9,4.9,0,0,1-7.21,1.38c-7.7-6-22.41-23.52-13.9-67.61A4.92,4.92,0,0,1,2471.67,1667.19Z"/><path class="cls-32" d="M2439.73,1715.13c27.12,35.79,21.69,58,17.41,66.8a4.9,4.9,0,0,1-7.08,1.94c-8.14-5.33-24.19-21.69-19.15-66.32A4.93,4.93,0,0,1,2439.73,1715.13Z"/><path class="cls-32" d="M2408.4,1775.08c29.21,27.49,27.72,47.91,25.25,56.24a4.38,4.38,0,0,1-5.94,2.77c-8-3.49-24.53-15.52-26.71-55.57A4.39,4.39,0,0,1,2408.4,1775.08Z"/><path class="cls-32" d="M2377.8,1828.12c34.07,21.19,36.65,41.49,35.87,50.15a4.36,4.36,0,0,1-5.28,3.88c-8.49-1.84-27.1-10.36-37.17-49.19A4.4,4.4,0,0,1,2377.8,1828.12Z"/><path class="cls-32" d="M2351.87,1883.19c34.74,14.77,40.07,33.27,40.61,41.43a4.12,4.12,0,0,1-4.35,4.38c-8.16-.49-26.7-5.72-41.67-40.36A4.13,4.13,0,0,1,2351.87,1883.19Z"/><path class="cls-32" d="M2312.08,1941.28c37.4-5.08,51.45,8.09,56.08,14.83a4.13,4.13,0,0,1-1.49,6c-7.27,3.75-25.87,8.75-56.46-13.36A4.14,4.14,0,0,1,2312.08,1941.28Z"/><path class="cls-32" d="M2598.36,1722.91c-45-.44-59.61,17.23-64.08,25.88a4.9,4.9,0,0,0,2.66,6.85c9.14,3.36,31.87,6.49,64.74-24.19A4.94,4.94,0,0,0,2598.36,1722.91Z"/><path class="cls-32" d="M2574.71,1775.51c-44.79-4-60.78,12.5-65.92,20.78a4.9,4.9,0,0,0,2.12,7c8.85,4.07,31.27,9,66.43-19A4.93,4.93,0,0,0,2574.71,1775.51Z"/><path class="cls-32" d="M2540.54,1834c-38.86-10.14-55.39,2-61.14,8.51a4.39,4.39,0,0,0,.82,6.52c7.19,4.89,26.21,12.54,61.34-6.92A4.4,4.4,0,0,0,2540.54,1834Z"/><path class="cls-32" d="M2511.83,1888.16c-36.09-17.62-54.68-9-61.61-3.74a4.38,4.38,0,0,0-.49,6.54c6.09,6.22,23.21,17.48,61.5,5.35A4.4,4.4,0,0,0,2511.83,1888.16Z"/><path class="cls-32" d="M2492,1950.85c-29.07-27.71-49.4-25.12-57.6-22.2a4.38,4.38,0,0,0-2.44,6.09c3.92,7.77,16.84,23.68,57,23.7A4.41,4.41,0,0,0,2492,1950.85Z"/><path class="cls-32" d="M2465.79,2005.14c-26.32-30.34-46.8-29.68-55.24-27.55a4.37,4.37,0,0,0-3,5.83c3.16,8.11,14.52,25.17,54.5,29A4.4,4.4,0,0,0,2465.79,2005.14Z"/><path class="cls-36" d="M2184.27,2361.46h.05a.11.11,0,0,1-.05,0Z"/><path class="cls-37" d="M2486.2,2361.46l-38.84,382.85a506.24,506.24,0,0,1-222.58.37l-1.63-.37-34.71-338.45-4.12-44.4Z"/><g class="cls-38"><path class="cls-39" d="M2486.2,2361.46l-38.84,382.85a502.78,502.78,0,0,1-54.06,9.23c61.57-493.57-204.86-347.68-204.86-347.68l-4.12-44.4Z"/></g><path class="cls-40" d="M2505.72,2286v55.58a19.86,19.86,0,0,1-19.87,19.87l-108.94,4.13q-41.64,1.57-83.31,0l-109-4.13a19.86,19.86,0,0,1-19.87-19.87V2286a19.86,19.86,0,0,1,19.87-19.87l109.84,4.13q41.64,1.56,83.31,0l108.08-4.11A19.86,19.86,0,0,1,2505.72,2286Z"/><path class="cls-41" d="M2505.72,2286v29.44a19.87,19.87,0,0,1-19.87,19.87l-108.94,4.12q-41.64,1.59-83.31,0l-109-4.12a19.87,19.87,0,0,1-19.87-19.87V2286a19.86,19.86,0,0,1,19.87-19.87l109.84,4.13q41.64,1.56,83.31,0l108.08-4.11A19.86,19.86,0,0,1,2505.72,2286Z"/><path class="cls-42" d="M2932.76,2641.47A155.09,155.09,0,0,1,2640,2641a243,243,0,0,0,118.08,30.76l56.47.1A242.67,242.67,0,0,0,2932.76,2641.47Z"/><path class="cls-19" d="M3250.28,826.13c-121.06-111.6-282.63-179.89-460.23-180.22-376.11-.69-681.58,303.65-682.28,679.76a677.88,677.88,0,0,0,121.52,389.61.1.1,0,0,1,.06,0,683.74,683.74,0,0,0,179.49,176.88v.43A154.87,154.87,0,0,1,2477,2021.33l-.16,87.05a149.93,149.93,0,0,0,146.67,149.75q1.27,0,2.55,0l79.74.15,24.31.05,134.75.24,24.31.05,58.92.11a150,150,0,0,0,149.79-149.23l.16-87a155.93,155.93,0,0,1,68.67-129c182.39-121.89,302.67-329.47,303.11-565.31C3470.18,1129.68,3385.57,950.84,3250.28,826.13Z"/><path class="cls-12" d="M3060.59,2207.75l-.41,219.34c-.17,92.09-51.75,172.63-127.42,214.38a242.67,242.67,0,0,1-118.22,30.35l-56.47-.1A243,243,0,0,1,2640,2641c-75.51-42-126.82-122.79-126.65-214.88l.4-219.34a149.24,149.24,0,0,0,112.31,51.41l322,.6A149.27,149.27,0,0,0,3060.59,2207.75Z"/><path class="cls-43" d="M3068,2553.43l-1,8a39.82,39.82,0,0,1-44.51,34.23l-215.79-28.21-298.73-39.05a39.85,39.85,0,0,1-34.2-44.54l1-7.95a39.8,39.8,0,0,1,44.51-34.22L2818,2480.71h0l215.76,28.2A39.83,39.83,0,0,1,3068,2553.43Z"/><path class="cls-43" d="M3089.92,2387.3l-1,8a39.84,39.84,0,0,1-44.52,34.23l-215.18-28.13-299.31-39.13-36.58-4.8a39.82,39.82,0,0,1-34.22-44.51l1-8a39.78,39.78,0,0,1,44.06-34.25,2.27,2.27,0,0,1,.45,0l514.5,67.25,36.57,4.8A39.83,39.83,0,0,1,3089.92,2387.3Z"/><path class="cls-21" d="M2874,2359.09l-1,8a39.82,39.82,0,0,1-43.77,34.31l-299.31-39.13-36.58-4.8a39.82,39.82,0,0,1-34.22-44.51l1-8a39.78,39.78,0,0,1,44.06-34.25l299,39.08,36.58,4.79A39.83,39.83,0,0,1,2874,2359.09Z"/><path class="cls-21" d="M2852.23,2525.22l-1,8a39.83,39.83,0,0,1-44.52,34.22l-298.73-39.05a39.85,39.85,0,0,1-34.2-44.54l1-7.95a39.8,39.8,0,0,1,44.51-34.22L2818,2480.71h0A39.84,39.84,0,0,1,2852.23,2525.22Z"/><path class="cls-18" d="M3356.79,1194.29c-.54,297.52-190.77,550.35-456,644.31q-12.75,4.51-25.73,8.54a682.25,682.25,0,0,1-157.63,29.1q-12.1.79-24.33,1.16-11.07.33-22.24.32a682.05,682.05,0,0,1-441.49-162.41.1.1,0,0,0-.06,0,677.88,677.88,0,0,1-121.52-389.61c.7-376.11,306.17-680.45,682.28-679.76,177.6.33,339.17,68.62,460.23,180.22A681.33,681.33,0,0,1,3356.79,1194.29Z"/><polygon class="cls-44" points="3118.56 1505.52 3118.56 1505.52 3118.56 1505.53 3118.56 1505.52"/><path class="cls-45" d="M3118.56,1505.53c-14-13.89-32.4-20.7-53.14-19.69-17.56.85-36.23,7.47-52.58,18.63-23.83,16.28-45,40.92-62.77,73.23-14.17,25.7-26.58,56.54-37.94,94.27-1.86,6.17-3.67,12.42-5.42,18.68-11,.65-32.12,1.73-60.68,2.39-16.5.38-33.14.58-49.79.58-17.84,0-35.69-.22-53.42-.66-20.42-.5-40.81-1.29-60.75-2.38-1.74-6.23-3.54-12.46-5.39-18.61-11.36-37.73-23.77-68.57-37.94-94.27-17.82-32.31-38.94-57-62.77-73.23a113,113,0,0,0-25.84-13.18,93.76,93.76,0,0,0-26.74-5.45c-20.73-1-39.11,5.79-53.14,19.69-20.27,20.07-30.13,54.74-25.73,90.49,6.27,50.86,26.9,83.87,63.06,100.92,30.74,14.49,67.3,15,102.67,15.58,10.28.15,20,.3,29.49.78,7.8.4,15.69.68,23.54.88,13.08,50.23,23,104.28,29.8,163.22q12.23-.36,24.33-1.16c-6.65-57.9-16.2-111.24-28.77-161,17.66.89,35.62,1.56,53.59,2,34.66.85,69.78.88,104.37.08,11.53-.27,21.87-.6,30.85-.95s16.6-.71,22.69-1a1188.3,1188.3,0,0,0-25.1,131.78q13-4,25.73-8.54a1138,1138,0,0,1,24.76-124.42c7.85-.2,15.74-.48,23.54-.88,9.51-.48,19.21-.63,29.49-.78,35.36-.54,71.93-1.09,102.66-15.58,36.17-17,56.8-50.06,63.07-100.92C3148.68,1560.26,3138.82,1525.59,3118.56,1505.53ZM2641,1689c-9.93-.5-20.31-.66-30.34-.81-32.79-.5-66.69-1-92.68-13.26-28.4-13.39-44.07-39.42-49.3-81.91-3.45-28,3.89-55.59,18.7-70.26,8.56-8.47,19.33-12.76,32-12.76.94,0,1.89,0,2.85.08,13.12.63,27.35,5.76,40,14.43,20.66,14.11,39.23,35.94,55.19,64.9,13.34,24.18,25.11,53.47,36,89.53,1.06,3.55,2.12,7.12,3.15,10.71C2651.35,1689.51,2646.14,1689.29,2641,1689Zm479.2-96c-5.23,42.49-20.89,68.52-49.3,81.91-26,12.25-59.88,12.76-92.67,13.26-10,.15-20.41.31-30.34.81-5.18.26-10.39.48-15.6.65,1-3.59,2.09-7.16,3.15-10.71,10.86-36.07,22.62-65.35,35.95-89.53,16-29,34.54-50.79,55.2-64.9,12.69-8.67,26.92-13.8,40-14.43,1,0,1.9-.08,2.83-.08,12.71,0,23.48,4.29,32,12.76,12.38,12.27,19.55,33.55,19.55,56.57A111.18,111.18,0,0,1,3120.16,1593.05Z"/><path class="cls-40" d="M2886.09,2258.65l-24.31-.05c-2.24-81.81-3.78-170.52,0-257.68,2.38-54.84,6.77-105.9,13.26-153.78q13-4,25.73-8.54c-7.3,50.52-12.18,104.73-14.72,163.38C2882.3,2088.6,2883.85,2177.05,2886.09,2258.65Z"/><path class="cls-40" d="M2727,2258.36l-24.3-.05c2.23-81.48,3.78-169.8,0-256.33-1.91-43.92-5.12-85.33-9.68-124.58q12.23-.36,24.33-1.16c4.53,39.35,7.72,80.81,9.62,124.68C2730.81,2088,2729.28,2176.63,2727,2258.36Z"/><path class="cls-40" d="M2968.38,2239.37V2257a148.86,148.86,0,0,1-23.36,1.8l-58.93-.11-24.3-.05-134.76-.24-24.3-.05-79.74-.15c-.86,0-1.71,0-2.56,0v-18.76a48.69,48.69,0,0,1,48.55-48.55h250.85A48.7,48.7,0,0,1,2968.38,2239.37Z"/><rect class="cls-46" x="2737.65" y="202.71" width="73.69" height="376.09" rx="36.85"/><path class="cls-46" d="M2215.12,790.14h0a37,37,0,0,1-51.71,6.45L1924.77,610.86a37,37,0,0,1-6.44-51.71h0A37,37,0,0,1,1970,552.7l238.63,185.73A37,37,0,0,1,2215.12,790.14Z"/><rect class="cls-46" x="3674.22" y="1155.21" width="73.69" height="376.09" rx="36.85" transform="translate(2367.81 5054.32) rotate(-90)"/><path class="cls-46" d="M3333.87,790.14h0a37,37,0,0,0,51.71,6.45l238.63-185.73a37,37,0,0,0,6.45-51.71h0A37,37,0,0,0,3579,552.7L3340.32,738.43A37,37,0,0,0,3333.87,790.14Z"/><path class="cls-45" d="M2390.17,1424.32q-15.91,0-24.28-8.8t-8.37-24.7V1155.11q0-33.48,32.65-33.49,32.23,0,32.24,33.49v235.71Q2422.41,1424.33,2390.17,1424.32Z"/><path class="cls-45" d="M2515.77,1420.55q-33.92,0-33.91-33.91V1159.3q0-33.91,33.91-33.91h81.64q75.36,0,116.81,38.3t41.45,109.07q0,70.76-41.45,109.27t-116.81,38.52Zm31-53.17h46.89q94.2,0,94.21-94.62,0-94.2-94.21-94.2h-46.89Z"/><path class="cls-45" d="M2839.82,1420.55q-33.92,0-33.92-33.91V1159.3q0-33.91,33.92-33.91h146.11q25.53,0,25.54,25.12,0,25.53-25.54,25.54H2867.87v69.08H2976.3q26,0,26,25.53t-26,25.54H2867.87v73.69h118.06q25.53,0,25.54,25.12,0,25.54-25.54,25.54Z"/><path class="cls-45" d="M3062.55,1424.32q-17.58,0-25.12-11.73t.42-28.88L3145,1148.83q6.69-14.22,15.91-20.72a38.36,38.36,0,0,1,42.7,0q9.21,6.5,15.49,20.72l108,234.88q7.95,17.58.63,29.09t-23.66,11.52q-14.23,0-22-6.7t-13.61-20.94L3251,1356.49H3113.21L3096,1396.68q-6.27,14.67-13.39,21.15T3062.55,1424.32Zm118.9-229.85L3135,1305.83h94.62l-47.31-111.36Z"/><path class="cls-13" d="M2357.11,1424.32q-15.92,0-24.28-8.8t-8.37-24.7V1155.11q0-33.48,32.65-33.49,32.23,0,32.24,33.49v235.71Q2389.35,1424.33,2357.11,1424.32Z"/><path class="cls-13" d="M2482.71,1420.55q-33.91,0-33.91-33.91V1159.3q0-33.91,33.91-33.91h81.64q75.36,0,116.81,38.3t41.45,109.07q0,70.76-41.45,109.27t-116.81,38.52Zm31-53.17h46.89q94.2,0,94.2-94.62,0-94.2-94.2-94.2h-46.89Z"/><path class="cls-13" d="M2806.76,1420.55q-33.91,0-33.92-33.91V1159.3q0-33.91,33.92-33.91h146.11q25.53,0,25.54,25.12,0,25.53-25.54,25.54H2834.81v69.08h108.43q26,0,26,25.53t-26,25.54H2834.81v73.69h118.06q25.53,0,25.54,25.12,0,25.54-25.54,25.54Z"/><path class="cls-13" d="M3029.49,1424.32q-17.58,0-25.12-11.73t.42-28.88L3112,1148.83q6.69-14.22,15.91-20.72a38.36,38.36,0,0,1,42.7,0q9.21,6.5,15.49,20.72l108,234.88q7.95,17.58.62,29.09t-23.65,11.52q-14.23,0-22-6.7t-13.61-20.94l-17.58-40.19H3080.15L3063,1396.68q-6.27,14.67-13.4,21.15T3029.49,1424.32Zm118.9-229.85-46.47,111.36h94.62l-47.31-111.36Z"/><path class="cls-14" d="M2535.47,813.73a69.36,69.36,0,0,0-32.87,8.14s-.06,0-.09.06a67.16,67.16,0,0,0-9.52,6.14,684.54,684.54,0,0,0-229.33,252,68.57,68.57,0,0,0-6.55,12.76,68.32,68.32,0,1,0,127.82,48.3.08.08,0,0,1,0-.08,684.41,684.41,0,0,1,182.86-195.79s.06,0,.09,0a68.36,68.36,0,0,0,14.09-9.84s0,0,0,0a69.8,69.8,0,0,0-46.56-121.67Z"/><path class="cls-14" d="M2338.52,1303.43a68.08,68.08,0,0,1-4.17,23.47.11.11,0,0,0,0,.09,68.56,68.56,0,0,1-64.22,44.61,68.3,68.3,0,1,1,68.42-68.17Z"/></g></svg>