<svg xmlns="http://www.w3.org/2000/svg" viewBox="0 0 4680 3120"><defs><style>.cls-1,.cls-8{fill:#fff;}.cls-1{opacity:0;}.cls-2{fill:#e4f6f8;fill-rule:evenodd;}.cls-3{fill:#e88503;}.cls-4{fill:#ffc05d;}.cls-5{fill:#ffa829;}.cls-6{fill:#0e6864;}.cls-7{fill:#f25619;}.cls-9{fill:#edb183;}.cls-10{fill:#bc835c;}.cls-11{fill:#b73108;}.cls-12{fill:#ce3d11;}.cls-13{fill:#ffddd2;}.cls-14{fill:#78c4bf;}.cls-15{fill:#6b2f05;}.cls-16{fill:#913f07;}.cls-17{fill:#a04a10;}.cls-18{fill:#0a3f3b;}.cls-19{fill:#f5ae97;}.cls-20{fill:#ed856e;}.cls-21{fill:#23b9ba;}.cls-22{fill:#1daaa6;}.cls-23{fill:#072c35;}.cls-24{fill:#131e36;}.cls-25{fill:#cb6655;}.cls-26{fill:#be5712;}.cls-27{fill:#a12412;}.cls-28{fill:#ffe6cf;}.cls-29{fill:#149995;}.cls-30{fill:#023531;}.cls-31{fill:#055451;}.cls-32{fill:#dbc0a9;}.cls-33{fill:#e99531;}.cls-34{fill:#db6a15;}.cls-35{fill:#fff6ee;}.cls-36{fill:#8b8e0a;}.cls-37{fill:#75750a;}.cls-38{fill:#a3af0b;}.cls-39{fill:#364547;}.cls-40{fill:#b6cc17;}.cls-41{fill:#eff275;}.cls-42{fill:#3c7219;}.cls-43{fill:#c7c365;}.cls-44{opacity:0.6;}.cls-45{fill:#602904;}</style></defs><title>08</title><g id="_08" data-name="08"><rect class="cls-1" width="4680" height="3120"/><path class="cls-2" d="M1619.13,2588.89s-753.56,31.23-575.47-957.22S1857.58,637.31,2287.72,404.91c470-254,1597.2,342.81,1406,1330.07S2829.25,2633.22,1619.13,2588.89Z"/><rect class="cls-3" x="996.85" y="513.1" width="1001.06" height="697.4" rx="48.69"/><path class="cls-4" d="M2036.93,561.79v600a48.83,48.83,0,0,1-48.68,48.68H1084.56a48.28,48.28,0,0,1-26.19-7.7l0,0a48.91,48.91,0,0,1-22.46-41v-600a48.83,48.83,0,0,1,48.69-48.69h903.69a48.82,48.82,0,0,1,48.68,48.69Z"/><path class="cls-5" d="M2036.93,561.79v600a48.83,48.83,0,0,1-48.68,48.68H1084.56a48.28,48.28,0,0,1-26.19-7.7l0,0-10-8.55,977.5-663.31h0A48.46,48.46,0,0,1,2036.93,561.79Z"/><path class="cls-6" d="M1099,588.92v529.13c0,7.17-.18,14.37,0,21.55,0,.3,0,.61,0,.92a9.57,9.57,0,0,0,9.43,9.43h754.49c10.19,0,20.39.16,30.58,0h1.34c12.13,0,12.15-18.86,0-18.86H1140.35c-10.17,0-20.42-.35-30.58,0h-1.34l9.43,9.43V611.39c0-7.18.17-14.38,0-21.55,0-.31,0-.62,0-.92,0-12.14-18.86-12.16-18.86,0Z"/><path class="cls-7" d="M1193.1,852.55h42.54a8.11,8.11,0,0,1,8.11,8.11V1131a2.38,2.38,0,0,1-2.38,2.38h-54A2.38,2.38,0,0,1,1185,1131V860.66A8.11,8.11,0,0,1,1193.1,852.55Z"/><path class="cls-7" d="M1507.54,890.57h43.68a7.54,7.54,0,0,1,7.54,7.54V1131.2a2.21,2.21,0,0,1-2.21,2.21h-54.35a2.21,2.21,0,0,1-2.21-2.21V898.11A7.54,7.54,0,0,1,1507.54,890.57Z"/><path class="cls-7" d="M1295,602.58h39.28a9.74,9.74,0,0,1,9.74,9.74V1129.4a4,4,0,0,1-4,4H1289.3a4,4,0,0,1-4-4V612.32A9.74,9.74,0,0,1,1295,602.58Z"/><path class="cls-7" d="M1399.76,939.47H1445a6.74,6.74,0,0,1,6.74,6.74v184.43a2.77,2.77,0,0,1-2.77,2.77h-53.22a2.77,2.77,0,0,1-2.77-2.77V946.21A6.74,6.74,0,0,1,1399.76,939.47Z"/><path class="cls-8" d="M1181.1,852.55h42.54a8.11,8.11,0,0,1,8.11,8.11V1131a2.38,2.38,0,0,1-2.38,2.38h-54A2.38,2.38,0,0,1,1173,1131V860.66A8.11,8.11,0,0,1,1181.1,852.55Z"/><path class="cls-8" d="M1495.54,890.57h43.68a7.54,7.54,0,0,1,7.54,7.54V1131.2a2.21,2.21,0,0,1-2.21,2.21h-54.35a2.21,2.21,0,0,1-2.21-2.21V898.11A7.54,7.54,0,0,1,1495.54,890.57Z"/><path class="cls-8" d="M1283,602.58h39.28a9.74,9.74,0,0,1,9.74,9.74V1129.4a4,4,0,0,1-4,4H1277.3a4,4,0,0,1-4-4V612.32A9.74,9.74,0,0,1,1283,602.58Z"/><path class="cls-8" d="M1387.76,939.47H1433a6.74,6.74,0,0,1,6.74,6.74v184.43a2.77,2.77,0,0,1-2.77,2.77h-53.22a2.77,2.77,0,0,1-2.77-2.77V946.21A6.74,6.74,0,0,1,1387.76,939.47Z"/><path class="cls-6" d="M1147.33,1082.07l16.07-21.68,38.58-52.06,46.66-63L1289,891,1302.24,873c2.08-2.82,4.31-5.57,6.27-8.48l.27-.35h-12.21l10.68,16L1333,918.82l31.08,46.56,27,40.39c4.35,6.51,8.6,13.1,13,19.54l.19.27a7.17,7.17,0,0,0,11.1,1.44l16.64-16,40.11-38.62,48.37-46.58,41.93-40.38c6.75-6.49,13.73-12.81,20.28-19.51.09-.1.18-.18.27-.27a7.07,7.07,0,0,0-10-10l-16.63,16-40.11,38.62-48.37,46.58L1426,997.23c-6.72,6.48-13.86,12.72-20.27,19.52a3.45,3.45,0,0,1-.28.26l11.11,1.44-10.68-16-25.78-38.61L1349,917.27l-27-40.39c-4.35-6.51-8.6-13.1-13-19.54l-.18-.27c-3.15-4.72-9-4.34-12.21,0l-16.07,21.68-38.57,52-46.67,63-40.32,54.41-13.27,17.92c-2.09,2.81-4.33,5.56-6.28,8.47-.08.12-.18.24-.27.36-2.21,3-.59,8,2.54,9.67,3.7,2,7.32.65,9.67-2.53Z"/><path class="cls-6" d="M1542.72,864.53l41.76-17.18a3.9,3.9,0,0,1,5.18,4.87l-14.79,43.44a3.9,3.9,0,0,1-7.24.37l-7.84-17.09a3.92,3.92,0,0,0-2.28-2.06l-14.58-5A3.9,3.9,0,0,1,1542.72,864.53Z"/><circle class="cls-7" cx="1302.67" cy="862.91" r="15.87"/><circle class="cls-7" cx="1410.4" cy="1021.09" r="15.87"/><ellipse class="cls-9" cx="2332.46" cy="2629.67" rx="1339.68" ry="143.9"/><ellipse class="cls-10" cx="2332.46" cy="2628.86" rx="1163.86" ry="78.79"/><path class="cls-11" d="M3115.22,1030.7c-2.92-109.07-37.38-207.12-94.84-290.2-46.07-66.88-107-124-178.21-169.6-128-82.21-289.33-126.82-457.18-122.36a928.65,928.65,0,0,0-112.14,9.64c-82.57,12.26-153.1,35.26-213.11,64.75h-.07A615,615,0,0,0,1834,712.1a209.45,209.45,0,0,0,42.23,290.34l-10.16,42.65h134a209.08,209.08,0,0,0,170.83-84.4c34-45.85,80.89-85.13,143.1-104.47a292.9,292.9,0,0,1,78.92-12.71c113.23-3.06,206,80.09,209.24,200.85,4.53,170.54-125.79,188.58-268.89,278.81-6.79,4.31-13.58,8.69-20.37,13.29C2201.6,1412.39,2199,1503.07,2202,1613.75l1.68,66a208,208,0,0,0,93.15,168.08l-9.52,34.66h124.52c1.82,0,3.72,0,5.62-.07,83.74-2.27,156.53-53.88,187.05-127.91a201.87,201.87,0,0,0,14.45-58c3.94-41.61,12.92-82.13,30.66-111.48v-.07c12.78-21.39,30.23-36.8,53.88-42.35,109-50,205.74-109.65,278-183.25C3067.4,1271.85,3118.8,1164.67,3115.22,1030.7Z"/><path class="cls-11" d="M2707.83,2242.86a286.89,286.89,0,0,0-207.56-210.41,290,290,0,0,0-72.15-9.22H2294.64v32.25c-94.37,49.15-157.59,149.42-154.52,264.78a286.64,286.64,0,0,0,154.52,247v32.18h127.91c4,.06,7.94.06,11.94,0,80.38-2.12,151.71-36.07,202.53-89.22a284.28,284.28,0,0,0,79.06-205.23A292.69,292.69,0,0,0,2707.83,2242.86Z"/><path class="cls-7" d="M2591.57,2304.91a294,294,0,0,0-8.25-62,286.92,286.92,0,0,0-207.57-210.41,291.41,291.41,0,0,0-81.11-9.13c-4.67.15-9.2.37-13.8.73-151.85,11.25-269.4,139.89-265.23,296.2,4.23,158.42,135.86,283.27,294.36,279.11,80.39-2.12,151.72-36.07,202.53-89.22A284.29,284.29,0,0,0,2591.57,2304.91ZM2990.7,1030.7c-2.92-109.07-37.38-207.12-94.84-290.2-46.06-66.88-107-124-178.21-169.6-128-82.21-289.33-126.82-457.18-122.36a928.65,928.65,0,0,0-112.14,9.64c-82.57,12.26-153.09,35.26-213.11,64.75h-.07A615,615,0,0,0,1709.48,712.1a209.33,209.33,0,0,0,336.86,248.59c34-45.85,80.9-85.13,143.1-104.47a292.51,292.51,0,0,1,78.92-12.71c113.23-3.06,206,80.09,209.24,200.85,4.53,170.54-125.79,188.58-268.89,278.81-6.79,4.31-13.58,8.69-20.37,13.29-111.26,75.93-113.89,166.61-110.9,277.29l1.68,66c3,113.09,95.64,202.74,208.15,202.74,1.82,0,3.72,0,5.62-.07,83.74-2.27,156.53-53.88,187.05-127.91a201.54,201.54,0,0,0,14.45-58c3.94-41.61,12.93-82.13,30.67-111.48v-.07c12.77-21.39,30.22-36.8,53.88-42.35,109-50,205.73-109.65,278-183.25C2942.88,1271.85,2994.28,1164.67,2990.7,1030.7Z"/><path class="cls-12" d="M2232.59,1752.75c70.59,48.68,177,60.24,247.35,1.76-30.52,74-103.31,125.64-187.05,127.91-1.9.07-3.8.07-5.62.07-112.51,0-205.15-89.65-208.15-202.74l-1.68-66c-3-110.68-.36-201.36,110.9-277.29,6.79-4.6,13.58-9,20.37-13.29,143.1-90.23,273.42-108.27,268.89-278.81-3.21-120.76-96-203.91-209.24-200.85a292.51,292.51,0,0,0-78.92,12.71c-62.2,19.34-109.08,58.62-143.1,104.47a209.3,209.3,0,0,1-372.27-79.51c64.32,23.37,161.12,49.58,245.68-15,226.81-173.14,485-239.35,647.65,2.08s-40.06,448.32-297.25,548C2143.7,1465.25,2191.93,1724.72,2232.59,1752.75Z"/><path class="cls-13" d="M1856.34,987.05a111.75,111.75,0,0,1-39.95-7.58c-67.88-25.68-94.47-72.76-104.83-107.74-11.18-37.76-6.35-69.15-6.14-70.47a7.3,7.3,0,0,1,14.42,2.3h0c0,.29-4.52,29.91,5.89,64.58,13.8,46,46,78.84,95.82,97.68,27.69,10.47,55.07,8.43,86.17-6.43,28.91-13.81,58.36-37.36,89.55-62.3,60.79-48.61,129.7-103.71,224.37-113.85,46.13-4.94,88.79-2.8,126.79,6.36,34.48,8.31,65.44,22.46,92,42,44.93,33.12,77.48,82.57,91.64,139.22a7.3,7.3,0,1,1-14.16,3.55c-11.9-47.58-68.3-200.93-294.73-176.66-90.42,9.69-157.57,63.37-216.81,110.74-31.85,25.47-62,49.53-92.37,64.07C1893.77,982.24,1874.84,987,1856.34,987.05Z"/><path class="cls-13" d="M2285.2,1830.86H2284c-27.89-.2-54.72-7.12-77.59-20-24.41-13.76-43-33.73-53.62-57.75-22.5-50.65-27.46-110.62-27.66-152-.21-44.67,4.77-77,5-78.38a7.3,7.3,0,1,1,14.42,2.25c-.2,1.29-19.57,129.54,21.59,222.21,18.48,41.59,64.79,68.72,118,69.1,44.27.33,101-19.8,127.47-77.19,17-36.9,20.73-66.66,24-92.91,6.44-51.8,11.53-92.72,111.46-145.76,145-77,194.88-123.91,219.75-152.51a7.3,7.3,0,0,1,11,9.58c-27.8,32-78.38,78.58-223.92,155.83-93.22,49.48-97.67,85.21-103.82,134.66-3.4,27.31-7.24,58.26-25.22,97.22a143.45,143.45,0,0,1-59.72,65.11C2341.38,1823.76,2313.78,1830.86,2285.2,1830.86Z"/><path class="cls-13" d="M2888.09,1199.12a7.51,7.51,0,0,1-2.45-.42,7.3,7.3,0,0,1-4.43-9.33c.26-.75,26.76-76.75,24.53-178-2-93-29.51-227.22-148.67-338.06C2637.45,562,2477.57,524.45,2364.51,512.53c-123-13-218.79.77-219.75.91a7.3,7.3,0,0,1-2.12-14.45c1-.14,98.29-14.11,223-1,73.32,7.7,141.73,23.1,203.31,45.77,77.19,28.42,143.82,68.4,198.05,118.85s94.88,110,120.51,176.65c20.49,53.29,31.53,111.27,32.81,172.32,2.19,103.83-24.25,179.53-25.37,182.7A7.31,7.31,0,0,1,2888.09,1199.12Z"/><path class="cls-13" d="M2372.65,1298.52a7.31,7.31,0,0,1-2.88-14c.62-.27,42.14-18.39,82.25-57.67,53.49-52.38,79.31-115.62,76.75-188a7.3,7.3,0,1,1,14.59-.52c1.5,42.23-6.42,82.19-23.52,118.77-13.67,29.21-33.18,56.31-58,80.52-42.15,41.13-84.55,59.52-86.34,60.29A7.25,7.25,0,0,1,2372.65,1298.52Z"/><path class="cls-12" d="M2512.5,2510.14c-50.81,53.15-122.14,87.1-202.53,89.22-158.5,4.16-290.13-120.69-294.36-279.11-4.17-156.31,113.38-285,265.23-296.2,4.6-.36,9.13-.58,13.8-.73a291.41,291.41,0,0,1,81.11,9.13c-95.71,14.82-257.57,66.29-250.85,244.43,9.64,252.31,298.31,239.76,372.34,62.06,27.89-66.81,58.62-94,86.08-96.08a294,294,0,0,1,8.25,62A284.29,284.29,0,0,1,2512.5,2510.14Z"/><path class="cls-13" d="M2300.91,2551.05a236.16,236.16,0,0,1-236.17-236.17c0-64.61,21.07-124.88,59.32-169.69,40-46.89,96.12-72.71,157.93-72.71a7.3,7.3,0,1,1,0,14.6c-115.53,0-202.65,97.93-202.65,227.8,0,122.18,99.39,221.57,221.57,221.57s221.57-99.39,221.57-221.57a7.3,7.3,0,1,1,14.6,0,236.16,236.16,0,0,1-236.17,236.17Z"/><path class="cls-6" d="M1207,1759.4a70.08,70.08,0,0,0-6.85-13.23,68.3,68.3,0,0,0-63.45-30.4,69.51,69.51,0,0,0-18.91,4.5c-1,.41-2,.82-3,1.27h0l-32.15,11.57-23.21,40.05,32.68,67.11,38.42,21.18,35.74-12.86h0l1.43-.53a68.92,68.92,0,0,0,38.17-36.31A67.68,67.68,0,0,0,1207,1759.4Z"/><path class="cls-6" d="M1193.67,1441.83a126.07,126.07,0,0,0-44.63-57.36,148,148,0,0,0-53.59-23.62c-35.29-8.09-75-5.08-112.26,9.45a221.3,221.3,0,0,0-24.34,11.2,171.18,171.18,0,0,0-42.51,31.69h0a146.53,146.53,0,0,0-35.3,60.56,49.43,49.43,0,0,0,5.7,40.73,50,50,0,0,0,16.6,16.18l9,16,31.59-11.37c1.18-.37,2.34-.79,3.48-1.25h0a49.76,49.76,0,0,0,29.12-31.8c3.93-13,11.26-25.59,23.63-34.94a70.11,70.11,0,0,1,16.65-9.21c25.12-9.81,52.61,1.33,63.06,28.12,14.76,37.83-13,52.38-37.75,84.13-1.17,1.51-2.34,3-3.49,4.61-18.8,26-12.08,46.5-2.48,71l5.69,14.65a49.35,49.35,0,0,0,14.54,20.14l-2.87,5.3,19.15,14.76,32.15-11.57c.41-.15.83-.3,1.25-.47a49.62,49.62,0,0,0,31.59-43.73,48.07,48.07,0,0,0-1.45-14.17c-2.47-9.63-3.72-19.43-2.12-27.44h0c1.14-5.83,3.8-10.68,8.65-13.83,20.38-20,37.24-41.15,47.5-63.46C1202.4,1499.69,1205.28,1471.54,1193.67,1441.83Z"/><path class="cls-14" d="M1174.85,1771a70.38,70.38,0,0,0-6.85-13.23,68.31,68.31,0,0,0-63.46-30.4,69.44,69.44,0,0,0-18.9,4.5c-1,.41-2,.82-3,1.27a68.59,68.59,0,1,0,91.07,90.2A67.63,67.63,0,0,0,1174.85,1771Zm-13.33-317.57a126.09,126.09,0,0,0-44.64-57.36,147.72,147.72,0,0,0-53.58-23.61c-35.3-8.1-75-5.08-112.27,9.45a223,223,0,0,0-24.34,11.19,171.55,171.55,0,0,0-42.51,31.69h0a146.3,146.3,0,0,0-35.3,60.56,49.83,49.83,0,0,0,95.49,28.52c3.92-13,11.26-25.59,23.63-34.94a69.74,69.74,0,0,1,16.65-9.2c25.12-9.82,52.6,1.32,63.06,28.11,14.76,37.84-13,52.38-37.75,84.13-1.17,1.51-2.34,3-3.49,4.62-18.8,26-12.08,46.49-2.49,71l5.7,14.65a49.59,49.59,0,0,0,63,28.63c.41-.15.83-.3,1.25-.47a49.61,49.61,0,0,0,31.58-43.73,47.63,47.63,0,0,0-1.44-14.16c-2.47-9.64-3.73-19.44-2.12-27.45h0c1.13-5.82,3.8-10.68,8.65-13.83,20.38-20,37.24-41.15,47.5-63.46C1170.25,1511.27,1173.12,1483.12,1161.52,1453.4Z"/><path class="cls-6" d="M3377.08,1133.08a62.83,62.83,0,0,0,5.31-12.2,61,61,0,0,0-14.67-61.11,61.69,61.69,0,0,0-13.76-10.58c-.87-.48-1.72-.94-2.59-1.38h0L3325.23,1032l-40.83,6.46L3256.27,1099l7,38.57,29.06,17.53h0l1.17.69a61.57,61.57,0,0,0,46.67,6A60.48,60.48,0,0,0,3377.08,1133.08Z"/><path class="cls-6" d="M3589.74,945a112.47,112.47,0,0,0,14.62-63.25,131.82,131.82,0,0,0-13.81-50.45c-14.26-29-38.73-54.88-69.78-72.51a195.74,195.74,0,0,0-21.48-10.57,153.17,153.17,0,0,0-45.91-11.63h0a130.73,130.73,0,0,0-61.87,9.64,44.58,44.58,0,0,0-26.89,47.51L3358.56,809l25.67,15.49c.92.61,1.87,1.18,2.83,1.71h0a44.47,44.47,0,0,0,38.45,2.28c11.23-4.61,24.08-6.61,37.53-3.3a62,62,0,0,1,15.77,6.36c21,11.88,28.71,37.22,16,59.55-17.91,31.55-43.62,20.51-79.59,21.22-1.7,0-3.42.09-5.16.18-28.6,1.6-39,17.82-50.66,38.29l-7,12.2a44.14,44.14,0,0,0-5.78,21.43l-5.29,1L3342,1007l26.13,15.77,1,.61a44.31,44.31,0,0,0,48.11-2.74,43,43,0,0,0,9-9c5.29-7.15,11.38-13.54,17.83-16.93h0c4.67-2.49,9.54-3.38,14.46-1.79,25.34,2.87,49.5,2.64,70.75-2.82C3554.54,983.61,3575.67,969.75,3589.74,945Z"/><path class="cls-14" d="M3350.94,1117.31a62.28,62.28,0,0,0,5.32-12.2,61,61,0,0,0-14.67-61.12,62.41,62.41,0,0,0-13.76-10.57c-.87-.49-1.72-.94-2.6-1.38A61.27,61.27,0,1,0,3314,1146,60.44,60.44,0,0,0,3350.94,1117.31Zm212.67-188.12a112.65,112.65,0,0,0,14.62-63.25,132,132,0,0,0-13.81-50.46c-14.27-29-38.74-54.88-69.78-72.51a199.22,199.22,0,0,0-21.48-10.56,153,153,0,0,0-45.91-11.63h0a130.83,130.83,0,0,0-61.87,9.64,44.51,44.51,0,0,0,34,82.27c11.23-4.6,24.08-6.61,37.53-3.29a62,62,0,0,1,15.76,6.36c20.95,11.88,28.71,37.21,16,59.55-17.92,31.55-43.62,20.51-79.59,21.22-1.71,0-3.43.09-5.17.18-28.6,1.59-39,17.81-50.65,38.29l-6.95,12.2A44.29,44.29,0,0,0,3342,1007l1,.61a44.33,44.33,0,0,0,48.11-2.74,42.79,42.79,0,0,0,9-9c5.29-7.14,11.38-13.53,17.84-16.92v0c4.68-2.49,9.55-3.37,14.47-1.79,25.33,2.88,49.5,2.65,70.74-2.81C3528.41,967.84,3549.54,954,3563.61,929.19Z"/><path class="cls-6" d="M1185.49,2193.28A39.33,39.33,0,0,0,1187,2185a38.44,38.44,0,0,0-17.7-35.44,39.18,39.18,0,0,0-10-4.54c-.61-.17-1.19-.33-1.79-.48h0l-18.3-6-24.15,9.78-8.67,41.13,9.76,22.7,20.33,6.63h0l.81.25a38.81,38.81,0,0,0,29.52-3A38.12,38.12,0,0,0,1185.49,2193.28Z"/><path class="cls-6" d="M1289.32,2047.5a71,71,0,0,0,0-40.92,83.17,83.17,0,0,0-15.66-29c-12.89-15.8-31.6-28.19-53.17-34.6a125.26,125.26,0,0,0-14.69-3.43,96.59,96.59,0,0,0-29.85-.61h0a82.33,82.33,0,0,0-36.62,14.72,28.08,28.08,0,0,0-9.75,33l-1.55,10.24,18,5.87c.66.24,1.32.45,2,.64h0a28,28,0,0,0,23.93-4.07,37.81,37.81,0,0,1,22.58-7.36,39.18,39.18,0,0,1,10.58,1.66c14.56,4.32,22.93,18.77,18.32,34.29-6.52,21.92-23.87,18.8-45.86,24.35-1,.27-2.09.54-3.14.85-17.34,5-21.44,16.49-25.66,30.72l-2.53,8.48a27.73,27.73,0,0,0-.5,14l-3.11,1.36,3.41,13.18,18.29,6,.72.22a27.9,27.9,0,0,0,29.15-8.52,27,27,0,0,0,4.26-6.79c2.23-5.14,5.06-9.93,8.54-12.94h0a11.4,11.4,0,0,1,8.63-3.16c16-1.84,30.77-5.42,43-11.79C1273.2,2076.24,1284.21,2064.72,1289.32,2047.5Z"/><path class="cls-14" d="M1167.19,2187.31a38.66,38.66,0,0,0-26.13-48.23c-.6-.17-1.18-.33-1.79-.48a38.62,38.62,0,1,0,9.32,71.58A38.13,38.13,0,0,0,1167.19,2187.31ZM1271,2041.53a71.07,71.07,0,0,0,0-40.92,83.33,83.33,0,0,0-15.66-29c-12.89-15.8-31.6-28.19-53.17-34.6a125.26,125.26,0,0,0-14.69-3.43,96.59,96.59,0,0,0-29.85-.61h0a82.33,82.33,0,0,0-36.62,14.72,28.06,28.06,0,0,0,32.59,45.68,37.81,37.81,0,0,1,22.58-7.36,39.24,39.24,0,0,1,10.58,1.66c14.56,4.32,22.93,18.77,18.32,34.29-6.52,21.92-23.87,18.8-45.86,24.35-1,.27-2.09.55-3.15.85-17.33,5-21.44,16.5-25.66,30.72l-2.53,8.48a27.92,27.92,0,0,0,18.1,34.49l.72.23a27.94,27.94,0,0,0,29.15-8.53,27.26,27.26,0,0,0,4.26-6.79c2.23-5.14,5.06-9.93,8.54-12.93h0a11.43,11.43,0,0,1,8.63-3.16c16-1.84,30.77-5.42,43-11.79C1254.91,2070.28,1265.91,2058.75,1271,2041.53Z"/><rect class="cls-15" x="1278.35" y="2151.43" width="527.51" height="462.88" rx="39.07"/><path class="cls-16" d="M1934,2190.51v384.73a39.08,39.08,0,0,1-39.07,39.08H1445.54a39.08,39.08,0,0,1-39.08-39.08V2190.51a39.08,39.08,0,0,1,39.08-39.08H1894.9a39.1,39.1,0,0,1,39.07,39.08Z"/><path class="cls-17" d="M1920.74,2161.21l-508.77,434a38.84,38.84,0,0,1-5.51-20V2190.51a39.08,39.08,0,0,1,39.08-39.08H1894.9A38.92,38.92,0,0,1,1920.74,2161.21Z"/><path class="cls-3" d="M1691.06,2519.23c5,2.39,14.12.33,17.43-4.06,6.43-8.55,2.31-19.93,6.36-29.6a11.53,11.53,0,0,0-3.82-13.66,23.48,23.48,0,0,1,5.67-40.65,11.57,11.57,0,0,0,7.18-12.28,128.39,128.39,0,0,0-7.9-30.54,11.81,11.81,0,0,0-12.19-7.47,23.49,23.49,0,0,1-24.24-32.61,11.77,11.77,0,0,0-3.63-13.8,127.93,127.93,0,0,0-27-16.38,11.58,11.58,0,0,0-13.83,3.33,23.44,23.44,0,0,1-21.95,8.82c-8.8-1.29-7.94-11.37-10.83-19.15-1.85-5-14.49-4.09-19.76-3.53a128,128,0,0,0-30.84,7.16,11.59,11.59,0,0,0-7.47,12.62,23.52,23.52,0,0,1-9.2,22.57c-7.45,5.54-8.34,5-16.07,1-5-2.55-19.8-.17-23.29,4.18a128,128,0,0,0-16.3,26.28,11.67,11.67,0,0,0,4.08,14.64,23.5,23.5,0,0,1-6.77,42.25,11.63,11.63,0,0,0-8.31,12.65,127.86,127.86,0,0,0,7.32,30,11.66,11.66,0,0,0,13.49,7.34,23.52,23.52,0,0,1,25.73,34.61,11.67,11.67,0,0,0,3.14,15,127.71,127.71,0,0,0,26.61,15.64,11.63,11.63,0,0,0,14.51-4.32,23.5,23.5,0,0,1,42.42,5.73,11.63,11.63,0,0,0,12.83,8.08,127.58,127.58,0,0,0,29.87-8,11.79,11.79,0,0,0,7.23-13,23.5,23.5,0,0,1,9.07-23.2C1667.89,2513.46,1683.44,2515.56,1691.06,2519.23Zm-48.91-21.8A77,77,0,1,1,1658,2389.71,77,77,0,0,1,1642.15,2497.43Z"/><circle class="cls-3" cx="1607.61" cy="2435.4" r="89.42"/><circle class="cls-8" cx="1602.82" cy="2436.7" r="74.94"/><path class="cls-4" d="M1696.34,2516.55a11.59,11.59,0,0,0,14.24-3.52,127.86,127.86,0,0,0,15.74-27.46,11.54,11.54,0,0,0-3.82-13.66,23.48,23.48,0,0,1,5.67-40.65,11.55,11.55,0,0,0,7.17-12.28,127.92,127.92,0,0,0-7.9-30.54,11.81,11.81,0,0,0-12.19-7.47,23.49,23.49,0,0,1-24.24-32.61,11.78,11.78,0,0,0-3.62-13.8,128,128,0,0,0-27-16.38,11.57,11.57,0,0,0-13.82,3.33,23.49,23.49,0,0,1-40.57-6.27,11.52,11.52,0,0,0-12-7.59,128.09,128.09,0,0,0-30.84,7.16,11.58,11.58,0,0,0-7.46,12.62,23.51,23.51,0,0,1-34,24.57,11.78,11.78,0,0,0-14.53,3.19,127.59,127.59,0,0,0-16.3,26.28,11.66,11.66,0,0,0,4.07,14.64,23.5,23.5,0,0,1-6.76,42.25,11.63,11.63,0,0,0-8.32,12.65,127.86,127.86,0,0,0,7.32,30,11.66,11.66,0,0,0,13.49,7.34,23.51,23.51,0,0,1,25.73,34.61,11.66,11.66,0,0,0,3.15,15,127.46,127.46,0,0,0,26.61,15.64,11.61,11.61,0,0,0,14.5-4.32,23.5,23.5,0,0,1,42.42,5.73,11.64,11.64,0,0,0,12.84,8.08,127.64,127.64,0,0,0,29.86-8,11.78,11.78,0,0,0,7.23-13,23.51,23.51,0,0,1,33.33-25.51Zm-42.73-19.12a77,77,0,1,1,15.84-107.72A77,77,0,0,1,1653.61,2497.43Z"/><path class="cls-3" d="M1817.42,2333.29c3.2,1.54,9.14.21,11.28-2.63,4.16-5.54,1.5-12.91,4.12-19.17a7.47,7.47,0,0,0-2.48-8.84,15.21,15.21,0,0,1,3.68-26.32,7.49,7.49,0,0,0,4.64-7.95,82.38,82.38,0,0,0-5.12-19.77,7.63,7.63,0,0,0-7.89-4.83,15.21,15.21,0,0,1-15.69-21.12,7.6,7.6,0,0,0-2.35-8.93,82.79,82.79,0,0,0-17.47-10.61,7.48,7.48,0,0,0-9,2.16A15.2,15.2,0,0,1,1767,2211c-5.7-.84-5.14-7.36-7-12.4-1.2-3.22-9.38-2.65-12.8-2.29a83,83,0,0,0-20,4.64,7.51,7.51,0,0,0-4.84,8.17,15.22,15.22,0,0,1-5.95,14.61c-4.83,3.59-5.4,3.25-10.41.66-3.2-1.66-12.82-.11-15.07,2.7a83,83,0,0,0-10.56,17,7.56,7.56,0,0,0,2.64,9.48,15.21,15.21,0,0,1-4.38,27.35,7.53,7.53,0,0,0-5.38,8.19,82.28,82.28,0,0,0,4.74,19.41,7.54,7.54,0,0,0,8.73,4.75,15.23,15.23,0,0,1,16.66,22.41,7.54,7.54,0,0,0,2,9.73,83,83,0,0,0,17.22,10.13,7.52,7.52,0,0,0,9.39-2.8,15.22,15.22,0,0,1,27.47,3.7,7.53,7.53,0,0,0,8.31,5.24,82.88,82.88,0,0,0,19.33-5.21,7.61,7.61,0,0,0,4.68-8.41,15.22,15.22,0,0,1,5.87-15C1802.41,2329.55,1812.48,2330.91,1817.42,2333.29Zm-31.67-14.12a49.85,49.85,0,1,1,10.25-69.74A49.85,49.85,0,0,1,1785.75,2319.17Z"/><circle class="cls-3" cx="1763.39" cy="2279.01" r="57.89"/><circle class="cls-8" cx="1760.28" cy="2279.86" r="48.52"/><path class="cls-4" d="M1820.83,2331.55a7.5,7.5,0,0,0,9.22-2.28,83,83,0,0,0,10.19-17.78,7.47,7.47,0,0,0-2.47-8.84,15.2,15.2,0,0,1,3.67-26.32,7.47,7.47,0,0,0,4.64-7.95,82.83,82.83,0,0,0-5.11-19.77,7.63,7.63,0,0,0-7.89-4.83,15.21,15.21,0,0,1-15.7-21.12,7.61,7.61,0,0,0-2.34-8.93,82.86,82.86,0,0,0-17.48-10.61,7.48,7.48,0,0,0-9,2.16,15.2,15.2,0,0,1-26.26-4.06,7.46,7.46,0,0,0-7.75-4.92,83,83,0,0,0-20,4.64,7.49,7.49,0,0,0-4.83,8.17,15.22,15.22,0,0,1-22,15.91,7.62,7.62,0,0,0-9.41,2.06,82.53,82.53,0,0,0-10.55,17,7.56,7.56,0,0,0,2.63,9.48,15.21,15.21,0,0,1-4.38,27.35,7.53,7.53,0,0,0-5.38,8.19,82.77,82.77,0,0,0,4.74,19.41,7.54,7.54,0,0,0,8.73,4.75,15.23,15.23,0,0,1,16.66,22.41,7.55,7.55,0,0,0,2,9.73,83.47,83.47,0,0,0,17.22,10.13,7.54,7.54,0,0,0,9.4-2.8,15.21,15.21,0,0,1,27.46,3.7,7.54,7.54,0,0,0,8.31,5.24,83.09,83.09,0,0,0,19.34-5.21,7.63,7.63,0,0,0,4.68-8.41,15.22,15.22,0,0,1,21.57-16.52Zm-27.66-12.38a49.85,49.85,0,1,1,10.25-69.74A49.85,49.85,0,0,1,1793.17,2319.17Z"/><path class="cls-8" d="M1885.9,2272.79l.24,1.53a7.13,7.13,0,0,1,.11.77s-.12-.91,0-.34c.13,1,.26,2.05.36,3.08q.32,3,.48,6c.22,4,.25,8,.08,12-.08,2.06-.22,4.12-.4,6.18-.09,1-.18,1.93-.29,2.89,0,.45-.11.9-.16,1.35,0,.25-.07.51-.1.76-.12,1,.09-.57,0,.05-.59,4-1.29,7.9-2.21,11.81s-2,7.76-3.27,11.56c-.63,1.9-1.31,3.79-2,5.66-.35.9-.71,1.8-1.07,2.7l-.3.72c-.27.66.33-.76,0-.1-.2.48-.41.95-.61,1.43A130.25,130.25,0,0,1,1865,2362c-1.24,1.81-2.53,3.59-3.85,5.34-.55.72-.05.06,0-.07l-.59.76c-.36.46-.73.91-1.09,1.36-.7.85-1.4,1.69-2.11,2.53a125.59,125.59,0,0,1-9.53,9.91,4.92,4.92,0,0,0,0,6.91,5,5,0,0,0,6.91,0,130.87,130.87,0,0,0,29.27-40.48,138.42,138.42,0,0,0,12.68-49.32,130.25,130.25,0,0,0-1.4-28.72c-.4-2.53-3.7-4.16-6-3.41-2.76.89-3.84,3.29-3.42,6Z"/><path class="cls-8" d="M1857.56,2274.41a139.8,139.8,0,0,1,.71,19.52c-.12,3.06-.35,6.13-.7,9.17,0,.38-.1.75-.14,1.12a3.11,3.11,0,0,1-.06.44c-.11.74-.22,1.47-.34,2.2-.24,1.45-.51,2.89-.81,4.33q-.88,4.21-2.16,8.33c-.42,1.34-.87,2.68-1.35,4-.2.55-.41,1.09-.62,1.64-.12.32-.25.65-.38,1-.06.14-.62,1.47-.27.66a79.3,79.3,0,0,1-8,14.38c-.46.65-.93,1.3-1.41,1.94l-.41.54c.52-.68-.36.44-.45.56q-1.51,1.88-3.13,3.66a82.43,82.43,0,0,1-6.76,6.59,3.94,3.94,0,0,0,0,5.55,4,4,0,0,0,5.55,0,81.51,81.51,0,0,0,20.69-27.67,100.85,100.85,0,0,0,8.47-35.7,137.55,137.55,0,0,0-.58-22.23c-.21-2-1.66-4-3.92-3.93-2,.09-4.15,1.74-3.93,3.93Z"/><path class="cls-8" d="M1534.68,2312.76c.87-.8,1.77-1.58,2.68-2.33,1.09-.89,1.39-1.12,2.67-2,1.92-1.38,3.91-2.66,6-3.85a74.31,74.31,0,0,1,12.72-5.89,106.77,106.77,0,0,1,30.85-5.8,188.45,188.45,0,0,1,19.31.09,4,4,0,0,0,4-4,4.12,4.12,0,0,0-4-4c-22.34-1.15-45.55.91-65.48,11.87a76,76,0,0,0-14.38,10.29,4,4,0,0,0,0,5.68,4.11,4.11,0,0,0,5.68,0Z"/><path class="cls-8" d="M1487.61,2310.35a153.6,153.6,0,0,1,11.13-10.67q2.92-2.52,6-4.9a3,3,0,0,1,.4-.31l.61-.47,1.55-1.15c1.08-.81,2.18-1.59,3.28-2.37a162.42,162.42,0,0,1,26.82-15.16l1.59-.7,1.06-.46c-.16.07-.63.26.11,0,1.24-.52,2.5-1,3.76-1.52q3.58-1.39,7.25-2.63,7.41-2.49,15-4.28c5-1.17,10.08-2.11,15.17-2.81l1-.14,1.72-.2c1.41-.16,2.81-.3,4.22-.42q3.84-.33,7.7-.48a156.61,156.61,0,0,1,17.33.29c2.82.2,5.63.5,8.44.85,1.22.15-.47-.07.27,0l1.33.19,1.91.3c1.53.24,3,.51,4.56.8,2.06.39,4.44-.57,4.94-2.8.46-2-.59-4.52-2.8-4.94a163.24,163.24,0,0,0-64.2.75,167.75,167.75,0,0,0-58.28,24.37,159.73,159.73,0,0,0-27.58,23.19,4,4,0,1,0,5.68,5.68Z"/><path class="cls-4" d="M2118.7,2563.76l323.19-117.22a.5.5,0,0,1-.44-.12A311.89,311.89,0,0,0,2411,2427c-36.27-20.23-76.19-32-118-29l-41.51,3-165.18,21.36,25.92,113Z"/><path class="cls-5" d="M2298.08,2499.79l144.16-52.28a.51.51,0,0,1-.44-.12,309.51,309.51,0,0,0-30.46-19.47c-36.27-20.23-76.19-32-118-29C2293.3,2398.93,2238.44,2443.37,2298.08,2499.79Z"/><path class="cls-8" d="M2119.05,2564.73l323.19-117.22a.51.51,0,0,1-.44-.12c-9.82-7.09-20-13.63-33.59-18.33L2109.4,2537.44Z"/><path class="cls-4" d="M1883.77,2625.11h343.79a.5.5,0,0,1-.37-.26,309.39,309.39,0,0,0-22-28.69c-27.2-31.39-60.7-56.1-101.08-67.5l-40.06-11.31-162.56-36.24-14.16,115Z"/><path class="cls-5" d="M2074.21,2626.14h153.35a.47.47,0,0,1-.37-.26,309.39,309.39,0,0,0-22-28.69c-27.2-31.39-60.7-56.09-101.08-67.5C2104.11,2529.69,2037.38,2552.76,2074.21,2626.14Z"/><path class="cls-8" d="M1883.77,2626.14h343.79a.47.47,0,0,1-.37-.26c-6.82-10-14.14-19.63-25.33-28.69H1884Z"/><path class="cls-18" d="M2021.8,1951.58a55.69,55.69,0,0,0-63.15-28.73l-152.8,38.26-268.95,198.1h266.62l68.41-40.31c3.07,27.07,41.22,339,168.71,342.62,133.28,3.77,196.14-88.18,196.14-88.18Z"/><path class="cls-6" d="M2102.8,2488.13c-65.47,79.5-167.17,78.28-220.08,71a268.07,268.07,0,0,1-34.65-6.77l-49.43-436.21-245.22,41a185,185,0,0,1-65.24-.52c-101.07-19.31-95.18-107.22-95.18-107.22l5.56-86.68,95.52-62.74L1657,1920.37,1878.69,1896a79.67,79.67,0,0,1,8.85-.49,80.82,80.82,0,0,1,78.26,60.67Z"/><path class="cls-18" d="M1892.11,2557.29l-9.39,1.88a268.07,268.07,0,0,1-34.65-6.77l-49.43-436.21Z"/><path class="cls-14" d="M1474.48,1996.54l-6-.81a55.15,55.15,0,0,1,1.17-6.26l5.8,1.54-2.9-.77,2.9.77A49.1,49.1,0,0,0,1474.48,1996.54Z"/><path class="cls-14" d="M1982.1,2523.83l-2.62-11.65,5.85-1.32,2.62,11.65Zm-5.24-23.3-2.62-11.65,5.85-1.31,2.62,11.64Zm-5.24-23.3-2.62-11.64,5.85-1.32,2.62,11.65Zm-5.24-23.29-2.62-11.65,5.85-1.32,2.62,11.65Zm-5.24-23.3-2.62-11.64,5.85-1.32,2.62,11.65Zm-5.24-23.29-2.62-11.65,5.85-1.32,2.62,11.65Zm-5.24-23.3L1948,2372.4l5.85-1.31,2.62,11.64Zm-5.24-23.3-2.62-11.64,5.85-1.32,2.62,11.65Zm-5.24-23.29-2.62-11.65,5.86-1.31,2.61,11.64Zm-5.24-23.3-2.62-11.64,5.86-1.32,2.62,11.65Zm-5.24-23.29-2.62-11.65,5.86-1.32,2.62,11.65Zm-5.24-23.3-2.62-11.65,5.86-1.31,2.62,11.65Zm-5.24-23.29-2.62-11.65,5.86-1.32,2.62,11.65ZM1914,2221l-2.62-11.65,5.86-1.31,2.62,11.64Zm-5.24-23.3-2.61-11.64,5.85-1.32,2.62,11.65Zm-5.23-23.29-2.62-11.65,5.85-1.32,2.62,11.65Zm-5.24-23.3-2.62-11.65,5.85-1.31,2.62,11.65ZM1893,2127.8l-2.62-11.65,5.85-1.32,2.62,11.65Zm-5.24-23.3-2.62-11.65,5.85-1.31,2.62,11.64Zm-5.24-23.29-2.62-11.65,5.85-1.32,2.62,11.65Zm-345-18.67-.06-6c3.73,0,7.67-.22,11.71-.55l.49,6C1545.5,2062.31,1541.42,2062.5,1537.54,2062.54Zm-12.19-.41a100.93,100.93,0,0,1-12.16-1.7l1.2-5.88a95.45,95.45,0,0,0,11.45,1.6Zm36.3-1.33-.64-6c3.72-.4,7.7-.86,11.82-1.37l.74,5.95C1569.42,2059.92,1565.41,2060.39,1561.65,2060.8Zm315.66-2.89-.79-3.49a51.07,51.07,0,0,0-2.3-7.55l5.58-2.19a58.11,58.11,0,0,1,2.58,8.42l.78,3.49Zm-291.85,0-.81-5.95q5.77-.78,11.8-1.67l.87,5.94Q1591.26,2057.08,1585.46,2057.87Zm-84.19-.86a58.41,58.41,0,0,1-11.19-5.68l3.3-5a52.16,52.16,0,0,0,10,5.08Zm107.89-2.59-.91-5.93q5.8-.9,11.78-1.86l1,5.92Q1615,2053.52,1609.16,2054.42Zm23.63-3.8-1-5.92q5.84-1,11.77-2l1,5.91Q1638.65,2049.64,1632.79,2050.62Zm23.58-4.06-1-5.9q5.85-1,11.75-2.11l1.07,5.91ZM1480.48,2043a46.93,46.93,0,0,1-7-10.57l5.39-2.63a41.22,41.22,0,0,0,6.14,9.23Zm199.42-.73-1.09-5.9q5.87-1.08,11.74-2.19l1.11,5.9Zm23.52-4.43-1.13-5.89,11.72-2.26,1.15,5.89Zm165.58-1a52.31,52.31,0,0,0-7.27-8.6l4.14-4.34a58,58,0,0,1,8.11,9.59Zm-142.11-3.57-1.16-5.88,11.72-2.33,1.17,5.89Zm23.45-4.68-1.18-5.88,11.7-2.38,1.2,5.88Zm23.43-4.79-1.21-5.87,11.69-2.43,1.23,5.87Zm79-2.39a51.75,51.75,0,0,0-10.21-4.75l1.92-5.68a58.11,58.11,0,0,1,11.4,5.29Zm-383.45-.92a66.06,66.06,0,0,1-1.48-12.41l6-.16a59.23,59.23,0,0,0,1.34,11.28Zm327.85-1.58-1.24-5.87,11.69-2.47,1.25,5.86C1805.11,2017.29,1801.2,2018.11,1797.18,2019Zm23.13-4.66-.67-6a58.14,58.14,0,0,1,12.58,0l-.65,6A52.33,52.33,0,0,0,1820.31,2014.3Z"/><rect class="cls-14" x="1985.28" y="2534.65" width="6" height="6" transform="translate(-508.5 498.29) rotate(-12.68)"/><path class="cls-19" d="M1715.29,1672.78s.34.7,1,2q1.93,3.86,3.85,7.59c44.29,85,87,109.38,109.85,116.25a23.09,23.09,0,0,0,25.45-8.61c58.86-82.73,102.43-223.85,112.46-258.14a20.61,20.61,0,0,1,8.62-11.55c80.87-50.55,83.95-126.28,62-139.13a17.92,17.92,0,0,0-4.32-1.82c-22.06-6.12-50.2,31.37-50.2,31.37,3.56-13.2-12.3-24.35-16.74-13.89s-29.82,29.17-67.3,43.25c-26,9.83-33.74,39.59-36,56.84a104.91,104.91,0,0,1-8.42,29.48l-41.23,91.26v0l-9.12,20-28.13-32.16-12.88-15.86s0-.09-.06-.08Z"/><path class="cls-20" d="M1976.55,1520.33a20.52,20.52,0,0,0-8.61,11.55c-10,34.29-53.61,175.41-112.47,258.14a23.08,23.08,0,0,1-25.44,8.61c-23.47-7.07-68.08-32.69-113.71-123.85,8.08,15.53,62,115,112.32,104.66,54.6-11.24,106.3-248.35,106.3-248.35s-50.23-5.79-60.21-31.17c2.67,2.07,69.27,52.8,140-31.54,0,0,42.69-52.8,19.57-89a18.37,18.37,0,0,1,4.32,1.83C2060.51,1394.05,2057.43,1469.78,1976.55,1520.33Z"/><path class="cls-20" d="M1810.79,1675.71a240.4,240.4,0,0,0-5.58-38l9.12-20C1824.13,1639.5,1810.79,1675.71,1810.79,1675.71Z"/><path class="cls-20" d="M1984,1410.76s-22.62,23.92-63.38,40.89C1920.66,1451.65,1965.83,1446.61,1984,1410.76Z"/><path class="cls-21" d="M1730.58,1701.3l-32.65-49.66c-30.58,87.14-40.92,268.73-40.92,268.73-95.73-12.15-171.79,58.87-220.63,100.51-32,27.29-52.32,42-58.81,12.33-12.13-55.41,25.42-259,66.12-389.55,14.28-45.8,28.94-82.62,42-100.9,30.58-42.84,65.2-58.52,87.61-64.22h0c14.4-3.66,23.76-3.21,23.76-3.21s48.37-16.17,89.84,10.55h0a88.83,88.83,0,0,1,8.14,5.89c43,34.83,78.54,109.47,78.54,109.47C1729.4,1623.59,1730.58,1701.3,1730.58,1701.3Z"/><path class="cls-22" d="M1419.37,1806.35s-47,209.09,17,214.53c-32,27.29-52.32,42-58.81,12.33-12.13-55.41,25.42-259,66.12-389.55l98.87-25.93S1513.21,1745.41,1419.37,1806.35Z"/><path class="cls-19" d="M1502.78,1675.09s-.34.69-1,2c-1.29,2.57-2.58,5.11-3.86,7.6-44.28,85-94.28,103.71-117.09,110.59a23.08,23.08,0,0,1-25.44-8.61c-58.86-82.74-102.44-223.85-112.47-258.15a20.63,20.63,0,0,0-8.61-11.55c-80.88-50.55-84-126.27-62-139.13a18.76,18.76,0,0,1,4.32-1.82c22.05-6.12,50.2,31.38,50.2,31.38-3.57-13.21,12.29-24.36,16.74-13.89s29.82,29.16,67.29,43.25c26,9.82,33.75,39.58,36,56.83a105.26,105.26,0,0,0,8.43,29.48l41.23,91.26v.05l9.13,20,28.12-32.17,12.89-15.86s0-.09.06-.08l38.75-1.68,31.44,40.27Z"/><path class="cls-20" d="M1234.27,1517a20.6,20.6,0,0,1,8.62,11.55c10,34.3,53.61,175.41,112.47,258.14a23.08,23.08,0,0,0,25.44,8.62c23.46-7.08,75.32-27,121-118.19-8.09,15.53-69.26,109.36-119.56,99-54.6-11.25-106.31-248.36-106.31-248.36s50.23-5.78,60.22-31.17c-2.68,2.07-69.28,52.8-139.95-31.54,0,0-42.69-52.79-19.57-89a18.16,18.16,0,0,0-4.32,1.82C1150.32,1390.69,1153.4,1466.42,1234.27,1517Z"/><path class="cls-20" d="M1400,1672.35a238.81,238.81,0,0,1,5.58-38l-9.13-20C1386.7,1636.15,1400,1672.35,1400,1672.35Z"/><path class="cls-20" d="M1226.79,1407.41s22.61,23.91,63.37,40.88C1290.16,1448.29,1245,1443.26,1226.79,1407.41Z"/><path class="cls-21" d="M1543.7,1490s-49.52,13.63-116.48,119.65c0,0,49.88,11,61.87,91C1489.09,1700.62,1650.78,1498.52,1543.7,1490Z"/><path class="cls-22" d="M1619.59,1528.25c-18-10.89-45.56-48.88-46.3-49.71h0c14.4-3.66,23.76-3.21,23.76-3.21s48.37-16.17,89.84,10.55h0C1698.14,1543.17,1636.8,1538.69,1619.59,1528.25Z"/><path class="cls-19" d="M1562.32,1386.36c.06,0,0,.06.11.06,2,1.52,4.06,3,6,4.22a106.61,106.61,0,0,0,15.23,8.07,7,7,0,0,1,4.31,6c1.11,12.27,3.84,47.34,1.81,71.44,22.13,25.36,31.33,36.55,44.17,40.25,16.24,4.67,38.52-2.27,41.07-19l7.34-38.36c67.53,7.49,76.94-119.54,76.94-119.54l-5.2-86.94-84-32.27-76.5,102.89s-38.21-26.77-50.53,17.28C1537.35,1361.23,1549.34,1376.47,1562.32,1386.36Z"/><path class="cls-20" d="M1679.07,1476.49c-52.06-18.27-46.17-53.29-46.17-53.29,16.58,30.57,41.92,35.16,49.5,35.92Z"/><path class="cls-20" d="M1581.74,1345.78c2.52-5.67-3.71-11.54-9.24-8.72-4.6,2.35-8.67,7.82-6,20.42,5.27,24.48,19,14.74,18.48,7.36s-7-10.93-3.39-18.83C1581.67,1345.94,1581.7,1345.86,1581.74,1345.78Z"/><path class="cls-23" d="M1748.56,1338.77c-.13-3.86-4.42-8.11-8.06-9.08-4.22-1.13-8.78,2-11.65,5.48a3.55,3.55,0,1,1-5.07-5c4.41-5.26,11.86-9.42,18.84-7.29,6.59,2,12.8,8.57,13,15.67a3.55,3.55,0,0,1-7.09.18Z"/><ellipse class="cls-23" cx="1736.88" cy="1355.72" rx="10.08" ry="6.32" transform="translate(298.37 3024.68) rotate(-87.21)"/><ellipse class="cls-23" cx="1679.03" cy="1352.91" rx="10.63" ry="6.67" transform="translate(246.14 2964.22) rotate(-87.21)"/><path class="cls-20" d="M1568.47,1390.64a106.61,106.61,0,0,0,15.23,8.07s15.07,2,18.2-12.07C1600.82,1387.89,1589.18,1400.68,1568.47,1390.64Z"/><path class="cls-20" d="M1595.44,1326.92s28.72,29.68,71.77-16.85c0,0,22.36-24.34,29.22-41.24,5.44-13.41,13.34,4.85,12.07,10.93,0,0,13.37-33.28,25.88-2.62,0,0,3.7,6.89,11.14,46.07l11.88-72.09-38.93-36.8-78.13-8.17-36.6,28.12L1567,1278.05Z"/><path class="cls-24" d="M1544.57,1315.62c1.82,3.38,3.87,6.89,6.08,10.47,0,0,14.21-23.46,43.14-.35,27.18,21.66,86.88-25,95.82-62.77,1.58-6.8,9.28-10.8,15.11-6.88,2.69,1.78,5.15,5.08,6.58,10.72,0,0,8.88-22.63,23.91,1.16s1.25,65.56,23.64,81.65c17.84,12.86,27.29-2.82,30.12-27a163.46,163.46,0,0,0,.78-19.67c-.67-34.06,17.93-54.23-9.06-74,0,0-19.26-67.69-67.75-40.28,0,0-38.83-39.16-93.32-28.51s-63.42,52-63.42,52S1500,1234,1544.57,1315.62Z"/><path d="M1544.57,1315.62c1.82,3.38,3.87,6.89,6.08,10.47,0,0,14.21-23.46,43.14-.35,27.18,21.66,86.88-25,95.82-62.77,1.58-6.8,9.28-10.8,15.11-6.88,2.69,1.78,5.15,5.08,6.58,10.72,0,0,8.88-22.63,23.91,1.16s1.25,65.56,23.64,81.65c17.84,12.86,27.29-2.82,30.12-27l-.06,0s-11.7,30.33-26.87,13-8-122-48.94-81.35c0,0-17.28-30.1-31.16,5.42s-60.23,63.14-80,50.18-50.22-9.37-56.19,3.75C1545.38,1314.18,1545,1314.9,1544.57,1315.62Z"/><path d="M1665.83,1234.45s-16.93,61.11-82.8,56.45C1583,1290.9,1631.42,1278.19,1665.83,1234.45Z"/><path d="M1554.35,1226.15s-27.3,16.26-6.37,66.42C1548,1292.57,1539.24,1254.32,1554.35,1226.15Z"/><path d="M1715.94,1199s37.8-22.52,55.48,32.4C1771.42,1231.37,1757.77,1196.33,1715.94,1199Z"/><path d="M1568.7,1209.87s38.6-57.93,118.27-20.24C1687,1189.63,1615.41,1168.86,1568.7,1209.87Z"/><path class="cls-25" d="M1690.9,1413.54c-2.48,10.94,2.1,17.92,9.34,19.56s14.39-2.67,16.87-13.61-2.54-16-9.78-17.67S1693.38,1402.6,1690.9,1413.54Z"/><path class="cls-23" d="M1676.71,1324.7a8,8,0,0,0-5.39-1.79,9.93,9.93,0,0,0-6.21,2.42c-3.4,2.78-6.26,8.86-4.14,13,.88,1.7-.51,4-2.14,4.53-2,.72-3.66-.43-4.54-2.14-1.85-3.61-1.23-7.9,0-11.59a21.33,21.33,0,0,1,6.72-9.61c5.71-4.64,14.42-5,20.19-.29,3.52,2.91-1,8.38-4.52,5.47Z"/><polygon class="cls-18" points="2856.25 1561.8 2945.33 1595.33 3016.45 1555.59 3018.29 1455.46 2936.96 1393.55 2873.98 1413.11 2856.25 1561.8"/><path class="cls-19" d="M2835.33,1555c-.46,26.34-7.83,63.62-45.51,66.19-58.67,4-84.09-27.73-80.54-40.72,0,0-12.61-7.94-12.37-20.49s15.11-58.36,27.4-64.32,103.6,18.08,103.6,18.08l5.78,15.3A158.08,158.08,0,0,1,2835.33,1555Z"/><path class="cls-19" d="M2809.57,1543.11c17.32,6.91,26.74,26,21.1,43.75-5.59,17.58-17.3,32.74-40.85,34.35-58.67,4-84.09-27.73-80.54-40.72,0,0,10.42-70,82.73-44Q2801.64,1540,2809.57,1543.11Z"/><path class="cls-20" d="M2832.12,1580.4a36.06,36.06,0,0,0-22.55-29.72c-5.31-2.11-11.14-4.31-17.56-6.62-67.52-24.25-81.07,35.15-82.57,43.13a12.16,12.16,0,0,1-.16-6.11s10.42-70,82.73-44c6.42,2.31,12.25,4.51,17.56,6.62A35.89,35.89,0,0,1,2832.12,1580.4Z"/><path class="cls-19" d="M2761.12,1582c-6.8,16.91-50.64-1-51.81-1.5h0V1542.4l21.1-8.07h0c5.5,7.1,1.57,24.9,1.57,24.9S2768,1564.86,2761.12,1582Z"/><path class="cls-20" d="M2761.12,1582c-6.8,16.91-50.64-1-51.81-1.5,1.26.36,44.86,13,49.12-.45,4.32-13.62-28.27-19.63-28.27-19.63,2.8-20.7.38-25.68.23-26.08,5.5,7.1,1.57,24.9,1.57,24.9S2768,1564.86,2761.12,1582Z"/><path class="cls-16" d="M3028,2556.4l-321.62,48.84c.13,0,.23-.12.32-.3a292.54,292.54,0,0,1,16.5-30c21-33.23,48.81-61.1,85-77.51L2844,2481.2l146.93-57,29.59,105.63Z"/><path class="cls-26" d="M2850,2584.42l-143.46,21.78a.46.46,0,0,0,.31-.29,294.47,294.47,0,0,1,16.5-30c21-33.23,48.82-61.11,85-77.51C2808.28,2498.44,2874,2510.54,2850,2584.42Z"/><path class="cls-15" d="M3028.11,2557.36l-321.62,48.84a.46.46,0,0,0,.31-.29,294.47,294.47,0,0,1,16.5-30l297.36-45.16Z"/><path class="cls-6" d="M3030.17,2459.07c-36.59,18.6-74.61,26-107.78,27.95h0c-54.83,3.26-96.4-8.24-96.4-8.24l-65.34-490a96.39,96.39,0,0,1,.61-29.07l60.87-349.42,8.71-50,62.1-17.2,105.29-29.15L2986,1622.25l-37.49,331.52a152.29,152.29,0,0,0,1.28,43.11Z"/><path class="cls-18" d="M2949.76,1996.88a152.29,152.29,0,0,1-1.28-43.11l49.75-439.92-84.56,23.41-20.73,5.74-62.1,17.2-8.71,50c27.59,12.41,79.91,16.87,79.91,16.87h0L2855.23,1989l67.16,498h0c33.17-2,71.19-9.35,107.78-27.95Z"/><path class="cls-16" d="M3243.51,2615.23H2904.75a.47.47,0,0,0,.37-.26,306.42,306.42,0,0,1,21.67-28.27c26.8-30.93,59.81-55.27,99.61-66.51l39.46-11.14,160.19-35.72L3240,2586.7Z"/><path class="cls-26" d="M3055.85,2616.24h-151.1a.48.48,0,0,0,.37-.25,306.42,306.42,0,0,1,21.67-28.27c26.8-30.93,59.81-55.27,99.61-66.51C3026.4,2521.21,3092.15,2543.94,3055.85,2616.24Z"/><path class="cls-15" d="M3243.51,2616.24H2904.75a.48.48,0,0,0,.37-.25,306.42,306.42,0,0,1,21.67-28.27H3240Z"/><path class="cls-6" d="M2933.72,1548.5l39.8,473.57,88.59,487.5s113.84,47.67,198.6-40l-88.81-419.66a641.53,641.53,0,0,1-16.22-170.21c4.13-106,2.88-318.93-31.87-374.6C3073.23,1424,2933.72,1548.5,2933.72,1548.5Z"/><path class="cls-27" d="M2986.1,1630c.24-.11,4.6-1.14,12.13-2.89a47.72,47.72,0,0,1-5.1,1.4C2988.48,1629.53,2986.25,1630,2986.1,1630Z"/><path class="cls-21" d="M3124.37,1300c4.06,114.75,37.89,267.59,37.89,267.59-44.57,24.7-86.74,38.08-125.37,44a321.87,321.87,0,0,1-123.29-4.9l-3.72-118.44-27.15,109.51c-45.16-15.52-71.49-35.7-71.49-35.7l11.28-39.93a72.91,72.91,0,0,1-34.4,7.75c-43.2-.88-78.66-37.93-78.66-37.93l91.83-250.66,54.41-184.39c12-40.69,48.54-89.22,89.15-101.48,16.17-4.88,26.55-6,26.55-6s103.73-15.67,133.36,1.19,76.44,59.86,76.44,59.86-13.41,62.49-31.51,134.48h0c-1.66,6.6-3.4,13.27-5.22,20-3.73,13.72-7.79,27.51-12.17,41C3124.92,1228.56,3123,1262.21,3124.37,1300Z"/><polygon class="cls-28" points="3039.69 994.07 3025.87 1031.01 3001.09 1093.41 2942.52 1218.68 2961.95 1060.29 2965.27 1010.82 2972.13 981.9 3004.33 967.21 3039.69 994.07"/><path class="cls-29" d="M3103.2,1047.34l7.23-72.48c.14-3.64,1.14-7,.84-11.18a2.53,2.53,0,0,0-4.79.71l-9,90.07c-23.21,10.52-56.29,20.92-55,24.87,3.4,19.26,6.85,38.79,10.3,58.29l-78.75,89c-4.66,6.59-21,20.09-16.52,22.77,3,1.58,4.48-2.06,6.82-4.33l61.17-69.17c10.4-13.34,24.19-24.21,32.31-38.27-3.28-19.3-6.73-38-10.09-57.23C3110.24,1053.78,3101.29,1062.36,3103.2,1047.34Z"/><path class="cls-29" d="M2956.57,962.13c-41.34,78.93-37.4,46.79-16.34,96.9-8.71,5-19.37,8.38-26.63,15,.21,13.35,1.37,26.52,1.84,40,1.85,38.68,3.68,76.77,5.54,115.48.58,2-1,6.47,1.67,8.32,5.63,1.92,2.88-6.88,3.19-10.08-2.46-51.12-4.84-101-7.3-152,12.1-7.16,24-10.17,27.28-16-5.14-12.75-11.38-24.41-17-37C2936.59,1006.63,2971.73,952.78,2956.57,962.13Z"/><path class="cls-19" d="M3075.75,942.48c3.78-23.7,14.75-56.9,18.76-68.47a7,7,0,0,1,5.57-4.72,107.2,107.2,0,0,0,16.61-4.2c2.21-.69,4.5-1.66,6.86-2.62.06,0,.07-.05.12,0,14.87-6.41,30.07-18.27,29.44-39.66-1.41-45.45-45.39-26.27-45.39-26.27l-44.19-109.26-4.3-10.66-10.23.69-90.49,6.35-9.28,58.61-4.47,28.11S2923.6,895.09,2990.51,904l-3.15,34.49c-.63,6.92-.68,28.76,4.8,33C3005.21,981.74,3035.78,978.14,3075.75,942.48Z"/><path class="cls-20" d="M2990.48,904c7.49,1.07,33,2.69,56.31-22.85,0,0-3.36,35.25-57.92,40.46Z"/><path class="cls-20" d="M3114.59,818.68c-1.09-6.08,6.33-10.24,11-6.2,3.87,3.35,6.5,9.6.88,21.11-10.92,22.35-21.86,9.68-19.58,2.69s9.36-8.87,7.75-17.35C3114.62,818.85,3114.6,818.76,3114.59,818.68Z"/><path class="cls-23" d="M3027.83,772a8.41,8.41,0,0,1,5.79-1.57,10.42,10.42,0,0,1,6.39,2.92c3.43,3.13,6.08,9.71,3.59,13.93-1,1.75.31,4.19,2,4.91,2.07.87,3.88-.25,4.91-2,2.17-3.7,1.77-8.25.66-12.21a22.58,22.58,0,0,0-6.51-10.52c-5.74-5.23-14.9-6.17-21.25-1.5-3.88,2.85.55,8.88,4.43,6Z"/><path class="cls-23" d="M2956.13,773.21c1.12-3.67,6.33-6.64,10.08-6.63,4.34,0,7.89,4.24,9.75,8.26a3.56,3.56,0,0,0,4.8,1.36,3.6,3.6,0,0,0,1.36-4.8c-2.87-6.19-8.95-12.1-16.19-11.86-6.84.23-14.5,4.91-16.56,11.66a3.53,3.53,0,0,0,6.76,2Z"/><ellipse class="cls-23" cx="2962.58" cy="791.29" rx="10.01" ry="6.28" transform="translate(1615.95 3546.21) rotate(-78.9)"/><ellipse class="cls-23" cx="3019.05" cy="802.36" rx="10.56" ry="6.62" transform="translate(1650.68 3610.57) rotate(-78.9)"/><path class="cls-20" d="M3116.69,865.11a104.85,104.85,0,0,1-16.61,4.15s-15-1.63-14.68-16C3086.15,854.75,3094.33,869.86,3116.69,865.11Z"/><path class="cls-30" d="M3184.54,712.12a1.09,1.09,0,0,1,.12-2c5.47-2,19.5-6.3,24.19-1.22C3214.51,715,3202.09,721.21,3184.54,712.12Z"/><path class="cls-30" d="M3181.25,705.68a1.49,1.49,0,0,1-2.19-1.59c1.71-7.74,6.91-27.1,16.19-28.83C3206.44,673.19,3204.52,692,3181.25,705.68Z"/><path class="cls-20" d="M3132,734.05l-24.31,62.45s-57.62-68.15-108.21-53.58c-26.52,7.64-41.77,4.26-50.28-.69l9.28-58.61,90.49-6.35,14.53,10Z"/><path class="cls-31" d="M3171.2,799.92h-.06A240,240,0,0,1,3153,820.16s-2.69-38-45.23-23.66c0,0-40.32-60.57-88.16-65.94-8.57-.94-17.19.59-25.37,3.35-12.54,4.2-45.19,10.3-62.11-18.67-21.59-37,6.52-64.77,8.64-66.7a.24.24,0,0,0,.07-.11s10.22-72.67,66.81-44.2c12.1,6.08,26.56,17.75,35.55,19.63,36,7.29,46.89-18.83,68.24,7.64,26.65,33,66.65,29.29,52.78,82.22C3164.17,713.72,3224.85,732.51,3171.2,799.92Z"/><path class="cls-30" d="M3171.14,799.91A240,240,0,0,1,3153,820.16s-2.69-38-45.23-23.66c0,0-40.32-60.57-88.16-65.94-8.57-.94-17.19.59-25.37,3.35-12.54,4.2-45.19,10.3-62.11-18.67-21.59-37,6.52-64.77,8.64-66.7-1,2.6-19.48,53.39,18.44,70.88,38.94,17.9,51.59-25.14,94,6.51s81,30.8,95.53,7.06C3148.69,733,3129.55,797.64,3171.14,799.91Z"/><path class="cls-30" d="M3140.09,665.18s40.3,35-7.77,66.44C3132.32,731.62,3164.67,701.6,3140.09,665.18Z"/><path class="cls-30" d="M2953.08,671.37s-6.51,40.45,51.68,38C3004.76,709.4,2967,707.11,2953.08,671.37Z"/><path class="cls-30" d="M2961.88,634.19s9.54-40.32,50.06-18.34C3011.94,615.85,2975.29,605.92,2961.88,634.19Z"/><path class="cls-30" d="M3018,646.35s-9.63,18.52,16.53,30.83c0,0,15.59,57.93,78.75,40.51,0,0-57.21,7.29-71.42-44.3C3041.9,673.39,3021.07,670.1,3018,646.35Z"/><path class="cls-25" d="M2992,856.06c.49,11.38-5.36,17.51-12.89,17.83s-13.88-5.29-14.36-16.66,5.45-15.54,13-15.86S2991.53,844.69,2992,856.06Z"/><polygon class="cls-32" points="2965.91 1008.09 2997.14 992.51 3025.88 1031.01 3043.36 990.57 3004.32 967.21 2983.24 976.04 2965.91 1008.09"/><polygon class="cls-6" points="3001.09 1093.41 2987.8 1126.9 2942.52 1218.68 2940.23 1059.03 2975.24 1030.63 2975.25 1030.62 2986.93 1017.52 2998.03 1030.36 3004.2 1037.49 3001.09 1093.41"/><path class="cls-33" d="M3028.3,991.12l-24.1,46.37c-17.13-9.88-28.59-7-28.95-6.87h0l1.8-34.92,4.49-28.18,22.8-.32,20.6,20.55Z"/><path class="cls-34" d="M3004.2,1037.49l-3.11,55.92-13.29,33.49,10.8-85.58c-3.4-10.14-23.36-10.69-23.36-10.69h0c4.69-4.45,22.78-.26,22.78-.26l17-31.56s5.22-6,9.93-11l3.37,3.36Z"/><path class="cls-35" d="M3004.32,967.21l-38.41,40.88,5.48-58.73,17.48-27.74S2990.47,962,3004.32,967.21Z"/><path class="cls-35" d="M3004.32,967.21l21.56,63.8s46-38.35,78.88-80.46l-7.34-20.14a31.52,31.52,0,0,0-14.84-17h0S3070.56,947.35,3004.32,967.21Z"/><path class="cls-29" d="M3132.3,1205.85c-7.38,22.71-9.27,56.36-7.93,94.13-21.86,14.35-48.35,25.28-77,23.31-75.63-5.2-73.27-96.63-73.27-96.63l30.55-11.24,78.14-54.42,61.69,3.86C3140.74,1178.58,3136.68,1192.37,3132.3,1205.85Z"/><path class="cls-19" d="M3037,911.24h0c-9.26,5.88-21.88,9.61-21.88,9.61-7.74,4.88,10.57,48.22,10.57,48.22l-10.24,3.85-60.22,22.65c-28.45-44.78-28-80.71-31.29-123.74-1.78-23.25,1.66-43.94,6.32-51.68h0a7.24,7.24,0,0,1,2.77-2.95,5.92,5.92,0,0,1,8.52,4.84c.16,2,.48,5,.74,8.45,1.1,14.57,7.58,62.93,53.26,65.11,43.11,2.06,45.29-11.11,49.73-1.11.26.59.53,1.27.82,2C3048.17,902.1,3043.38,907.18,3037,911.24Z"/><path class="cls-20" d="M3045.25,894.49c-8.74,4.81-24.86,9.62-53.21,6.9-51.15-4.91-52.75-50.69-54-68.7-1.22-17.57-7.51-12.78-7.81-12.54a7.24,7.24,0,0,1,2.77-2.95,5.92,5.92,0,0,1,8.52,4.84c.16,2,.48,5,.74,8.45,1.1,14.57,7.58,62.93,53.26,65.11C3038.63,897.66,3040.81,884.49,3045.25,894.49Z"/><path class="cls-20" d="M3025.65,969.08l-10.24,3.85c-5-13-20.3-54.73-10.77-53.93,11.08.94,31.56-7.44,32.32-7.75-9.26,5.88-21.88,9.61-21.88,9.61C3007.34,925.74,3025.65,969.08,3025.65,969.08Z"/><path class="cls-35" d="M2931.8,987.76,2924,962.23s42.4-38.73,104.33-32.27v34.9Z"/><path class="cls-21" d="M3162.71,1197.86c-16.48,42.09-42.49,74-70.26,91.12-38.94,24-81.34,18.9-105.77-28a156.14,156.14,0,0,1-12.59-34.28c-31-124-51-244.75-51-244.75s37.06-44.27,112-38.5l29.69,198s21.48-59.62,49.63-100.82a0,0,0,0,0,0,0c20.61-30.17,44.8-50.46,66.75-30.21C3181.2,1010.41,3224.12,1041,3162.71,1197.86Z"/><path class="cls-14" d="M3092.45,1289c-38.94,24-81.34,18.9-105.77-28a63.11,63.11,0,0,1,105.77,28Z"/><path class="cls-29" d="M3114.44,1040.63c-31.74,47.1-44,132.59-44,132.59l-5.66-31.77S3086.29,1081.83,3114.44,1040.63Z"/><ellipse class="cls-6" cx="2944.43" cy="999.11" rx="7.16" ry="13.93" transform="translate(-130.12 535.37) rotate(-10.17)"/><ellipse class="cls-6" cx="2951.34" cy="1035.8" rx="7.16" ry="13.93" transform="matrix(0.98, -0.18, 0.18, 0.98, -136.48, 537.17)"/><ellipse class="cls-6" cx="2959.38" cy="1069.77" rx="7.16" ry="13.93" transform="translate(-142.35 539.12) rotate(-10.17)"/><path class="cls-29" d="M2849.79,1291.05l-18.15,69.07h0l-38.84,169.56a62.92,62.92,0,0,0,29.42-7.91c12.59-43.94,29-171.73,29-172.09h0l9.12-56,17.57-169.49Z"/><path class="cls-29" d="M2929.72,1268.42l-.54,5.35-1.47,14.59-2.16,21.57-2.65,26.32-2.88,28.69-2.92,29.1-2.73,27.12-2.3,22.92-1.65,16.43c-.26,2.6-.61,5.22-.79,7.83l0,.34c-.21,2.09,2,4.09,4,4a4.11,4.11,0,0,0,4-4l.54-5.36,1.46-14.58,2.17-21.57,2.64-26.32,2.89-28.7,2.92-29.09,2.72-27.12,2.31-22.93,1.65-16.42c.26-2.61.61-5.22.78-7.83,0-.12,0-.23,0-.34.21-2.09-2-4.09-4-4a4.1,4.1,0,0,0-4,4Z"/><path class="cls-14" d="M2998.23,1393.55s58.78,5,113.09-12.81c0,0,7.93,108.84,17.45,120.73s-101.11,52.94-120.74,21.41S2998.23,1393.55,2998.23,1393.55Z"/><path class="cls-36" d="M3246.34,1829.81s-41.77-148.3-21.36-268.53,34.32-197.06,32.87-222.46c0,0,55,101.7,86.88,159.31,70.39,127.11,96.31,229.54,54.16,346.23,0,0,7.12,60,7,62.7s-54.19,68.79-54.19,68.79l-99.2-45.31Z"/><path class="cls-37" d="M3329.31,1997.84s-57-318.53-56.74-509.19c0,0,40.69,337.19,104.41,487.24Z"/><path class="cls-38" d="M3287.74,1990.69l-.32,75.61-.32,83.93,28.46,4.69s11.43-11.57,28.54-26.92c26.42-23.6,66.34-56.14,98.66-68.76,53.25-20.82,136.6-101.63,200.13-246.54,2.25-5.1,4.55-10,7-14.6,65.3-127.86,183.36-95.07,183.36-95.07-96-31.28-177.72-30-246.35-10.3h0C3374.94,1753.65,3287.74,1990.69,3287.74,1990.69Z"/><path class="cls-36" d="M3287.42,2066.3l-.32,83.93,28.46,4.69s11.43-11.57,28.54-26.92c192.24-374.85,313.55-421.55,317.35-422.95C3477.7,1747.86,3335.54,1978.59,3287.42,2066.3Z"/><path class="cls-38" d="M3383.45,2033.61l-19,69.33-21.15,77-27.26-3s-7.52-13.52-19.27-32c-18.17-28.37-46.42-68.37-72.8-88.19-43.45-32.67-99.15-128-120.32-277-.76-5.24-1.62-10.29-2.63-15.14-27.15-133.81-143.66-133.94-143.66-133.94,96-4.11,170.46,17.89,228.28,53.51h0C3364.15,1794.21,3383.45,2033.61,3383.45,2033.61Z"/><path class="cls-36" d="M3364.43,2102.94l-21.15,77-27.26-3s-7.52-13.52-19.27-32c-80.31-392.46-179.49-466.23-182.61-468.48C3271.51,1762.65,3342.76,2010.31,3364.43,2102.94Z"/><path class="cls-39" d="M3691.84,1896.12s-264.65,37.18-358,230C3333.88,2126.16,3414.87,1961.93,3691.84,1896.12Z"/><path class="cls-39" d="M3662.63,1860.26c-4.09,24.2-15,30.38-20.07,32a2.69,2.69,0,0,1-3.43-2.09c-.92-5.24-.42-17.75,19.23-32.46A2.69,2.69,0,0,1,3662.63,1860.26Z"/><path class="cls-39" d="M3632.09,1867.91c-2.18,24.45-12.57,31.46-17.51,33.43a2.69,2.69,0,0,1-3.58-1.82c-1.33-5.15-1.81-17.66,16.63-33.87A2.69,2.69,0,0,1,3632.09,1867.91Z"/><path class="cls-39" d="M3597.38,1880.65c1.71,21.86-6.39,29.57-10.45,32a2.41,2.41,0,0,1-3.43-1.07c-1.93-4.34-4.21-15.29,9.62-32.3A2.4,2.4,0,0,1,3597.38,1880.65Z"/><path class="cls-39" d="M3565.51,1890.87c6,21.08-.43,30.25-3.92,33.46a2.38,2.38,0,0,1-3.56-.37c-2.76-3.86-7.16-14.15,3-33.56A2.4,2.4,0,0,1,3565.51,1890.87Z"/><path class="cls-39" d="M3534.78,1903.61c8.63,18.74,4,28.19,1.2,31.69a2.26,2.26,0,0,1-3.37.17c-3.12-3.2-8.7-12.13-2-31.65A2.26,2.26,0,0,1,3534.78,1903.61Z"/><path class="cls-39" d="M3497.33,1912.49c17,11.69,17.84,22.18,17.24,26.61a2.25,2.25,0,0,1-2.8,1.87c-4.32-1.15-13.68-6-17.93-26.16A2.26,2.26,0,0,1,3497.33,1912.49Z"/><path class="cls-39" d="M3693.4,1929.36c-18-16.7-30.45-14.94-35.44-13.08a2.69,2.69,0,0,0-1.44,3.75c2.47,4.72,10.51,14.34,35.08,14A2.69,2.69,0,0,0,3693.4,1929.36Z"/><path class="cls-39" d="M3664.5,1942c-16.67-18.06-29.18-17.28-34.3-15.82a2.67,2.67,0,0,0-1.73,3.62c2.08,4.9,9.35,15.12,33.87,16.71A2.69,2.69,0,0,0,3664.5,1942Z"/><path class="cls-39" d="M3629.19,1953c-12-18.38-23.14-19.55-27.86-19a2.4,2.4,0,0,0-2.07,2.93c1.12,4.63,6,14.71,27.36,19.75A2.41,2.41,0,0,0,3629.19,1953Z"/><path class="cls-39" d="M3597.66,1964.41c-8.12-20.39-18.81-23.74-23.55-24.16a2.4,2.4,0,0,0-2.6,2.47c.18,4.75,3,15.6,22.91,24.77A2.41,2.41,0,0,0,3597.66,1964.41Z"/><path class="cls-39" d="M3566.6,1982.48c-1.57-21.89-10.75-28.31-15.14-30.15a2.4,2.4,0,0,0-3.22,1.57c-1.27,4.58-1.89,15.77,14.34,30.54A2.41,2.41,0,0,0,3566.6,1982.48Z"/><path class="cls-39" d="M3536.05,1994.81c.5-21.94-8-29.21-12.22-31.45a2.4,2.4,0,0,0-3.36,1.26c-1.7,4.44-3.38,15.52,11.39,31.75A2.41,2.41,0,0,0,3536.05,1994.81Z"/><path class="cls-39" d="M2981.7,1701.38s299.88,162.33,325.52,434.49C3307.22,2135.87,3283.54,1903.44,2981.7,1701.38Z"/><path class="cls-39" d="M3032.6,1671.51c-5.89,30.76,4.39,43,9.76,47.14a3.43,3.43,0,0,0,5-1c3.44-5.85,8.41-21-8.53-47.38A3.43,3.43,0,0,0,3032.6,1671.51Z"/><path class="cls-39" d="M3065.71,1694.26c-8.29,30.21,1,43.21,6,47.76a3.42,3.42,0,0,0,5.09-.57c3.88-5.57,10-20.32-4.8-47.9A3.43,3.43,0,0,0,3065.71,1694.26Z"/><path class="cls-39" d="M3101.53,1725c-11.78,25.37-5.53,38.21-1.77,43a3.06,3.06,0,0,0,4.57.25c4.25-4.32,11.85-16.4,2.88-42.9A3.06,3.06,0,0,0,3101.53,1725Z"/><path class="cls-39" d="M3135.09,1751.36c-16.56,22.55-13,36.36-10.22,41.77a3,3,0,0,0,4.42,1.14c5-3.39,14.87-13.73,11.31-41.48A3.06,3.06,0,0,0,3135.09,1751.36Z"/><path class="cls-39" d="M3166.15,1780.29c-18.66,18.56-17.31,31.93-15.55,37.35a2.87,2.87,0,0,0,4,1.7c5.16-2.43,15.81-10.62,16.52-36.93A2.88,2.88,0,0,0,3166.15,1780.29Z"/><path class="cls-39" d="M3207,1807.58c-25.53,6.41-31.21,18.58-32.46,24.14a2.88,2.88,0,0,0,2.52,3.49c5.68.55,19-1,33.08-23.29A2.88,2.88,0,0,0,3207,1807.58Z"/><path class="cls-39" d="M2965,1740.43c29-11.94,43-4.31,48.19.13a3.43,3.43,0,0,1,.06,5.13c-5.05,4.55-19,12.47-48.19,1.12A3.44,3.44,0,0,1,2965,1740.43Z"/><path class="cls-39" d="M2994,1768.35c28-14.18,42.58-7.67,48.06-3.64a3.42,3.42,0,0,1,.45,5.1c-4.68,4.93-17.92,13.92-47.95,4.9A3.44,3.44,0,0,1,2994,1768.35Z"/><path class="cls-39" d="M3031.25,1797.34c22.53-16.64,36.37-13.07,41.79-10.34a3.06,3.06,0,0,1,1.16,4.43c-3.39,5-13.72,14.91-41.51,11.42A3.07,3.07,0,0,1,3031.25,1797.34Z"/><path class="cls-39" d="M3063.88,1825c18.8-20.76,33.07-20,38.92-18.39a3.05,3.05,0,0,1,2,4.11c-2.32,5.61-10.49,17.33-38.42,19.4A3.07,3.07,0,0,1,3063.88,1825Z"/><path class="cls-39" d="M3093,1860.42c11.64-25.48,25.47-29.07,31.53-29.31a3.06,3.06,0,0,1,3.16,3.32c-.52,6-4.76,19.69-30.76,30.11A3.06,3.06,0,0,1,3093,1860.42Z"/><path class="cls-39" d="M3124,1888.77c9.18-26.46,22.61-31.35,28.62-32.16a3.06,3.06,0,0,1,3.46,3c0,6.07-2.88,20.06-27.77,32.9A3.08,3.08,0,0,1,3124,1888.77Z"/><path class="cls-40" d="M3706.41,2260.54c-44.92-49.53-195.64-196.95-350.83-137.24q-8.68,3.32-17.39,7.55a19,19,0,0,1-6.5,1.89c-3.43.28-7.9-.3-10.25-4.58a10.71,10.71,0,0,1,.65-10.84,337.24,337.24,0,0,1,42.94-52.57c43.52-43.54,115.71-90.91,204.23-54.78,118.57,48.37,143.84,191.24,149.2,245.2A7,7,0,0,1,3706.41,2260.54Z"/><path class="cls-41" d="M3654.9,2137c-8.82-12.29-134.42-170.17-299.32-13.67q-8.68,3.32-17.39,7.55a19,19,0,0,1-6.5,1.89c-3.43.28-7.9-.3-10.25-4.58a10.71,10.71,0,0,1,.65-10.84S3499.71,1920.7,3654.9,2137Z"/><path class="cls-42" d="M3655.36,2137.62c-.16-.23-.29-.44-.46-.65C3655.15,2137.29,3655.28,2137.51,3655.36,2137.62Z"/><path class="cls-40" d="M2885.69,2057.61c70.83-14.62,296.49-47.28,394,103.85q5.48,8.45,10.38,17.69a20.42,20.42,0,0,0,4.47,5.8c2.82,2.44,7.09,4.77,11.87,2.54a11.58,11.58,0,0,0,6.35-9.89,364.72,364.72,0,0,0-4-73.3c-10.25-65.79-43.1-153.2-143.46-178.1-134.42-33.37-247.61,75.32-286.71,119A7.52,7.52,0,0,0,2885.69,2057.61Z"/><path class="cls-41" d="M3009.49,1982.52c15.67-4.7,225.93-62.92,270.17,178.94q5.48,8.45,10.38,17.69a20.42,20.42,0,0,0,4.47,5.8c2.82,2.44,7.09,4.77,11.87,2.54a11.58,11.58,0,0,0,6.35-9.89,364.72,364.72,0,0,0-4-73.3C3279.91,2023.8,3204.46,1917.51,3009.49,1982.52Z"/><path class="cls-39" d="M3559.42,1471.55s-341.08,410.11-220.07,820.25C3339.35,2291.8,3238.59,1940.49,3559.42,1471.55Z"/><path class="cls-39" d="M3468.13,1457.77c26.45,41.24,18.63,65,13.23,74.13a5.34,5.34,0,0,1-7.86,1.51c-8.4-6.49-24.45-25.65-15.16-73.76A5.37,5.37,0,0,1,3468.13,1457.77Z"/><path class="cls-39" d="M3433.29,1510.07c29.59,39,23.66,63.33,19,72.86a5.35,5.35,0,0,1-7.73,2.12c-8.88-5.81-26.38-23.66-20.89-72.34A5.37,5.37,0,0,1,3433.29,1510.07Z"/><path class="cls-39" d="M3399.12,1575.46c31.85,30,30.23,52.27,27.54,61.36a4.77,4.77,0,0,1-6.49,3c-8.68-3.8-26.75-16.92-29.13-60.62A4.8,4.8,0,0,1,3399.12,1575.46Z"/><path class="cls-39" d="M3365.73,1633.33c37.16,23.11,40,45.26,39.14,54.7a4.79,4.79,0,0,1-5.77,4.24c-9.26-2-29.57-11.3-40.54-53.66A4.79,4.79,0,0,1,3365.73,1633.33Z"/><path class="cls-39" d="M3337.45,1693.4c37.89,16.11,43.71,36.3,44.29,45.2a4.49,4.49,0,0,1-4.74,4.77c-8.91-.53-29.13-6.23-45.46-44A4.51,4.51,0,0,1,3337.45,1693.4Z"/><path class="cls-39" d="M3294,1756.77c40.8-5.54,56.13,8.83,61.18,16.18a4.49,4.49,0,0,1-1.63,6.53c-7.93,4.1-28.22,9.54-61.59-14.58A4.51,4.51,0,0,1,3294,1756.77Z"/><path class="cls-39" d="M3606.34,1518.56c-49.05-.48-65,18.78-69.91,28.22a5.36,5.36,0,0,0,2.9,7.48c10,3.66,34.77,7.08,70.62-26.39A5.38,5.38,0,0,0,3606.34,1518.56Z"/><path class="cls-39" d="M3580.53,1575.94c-48.86-4.32-66.3,13.63-71.9,22.66a5.35,5.35,0,0,0,2.31,7.68c9.65,4.43,34.11,9.78,72.47-20.78A5.38,5.38,0,0,0,3580.53,1575.94Z"/><path class="cls-39" d="M3543.26,1639.71c-42.4-11-60.42,2.17-66.7,9.29a4.79,4.79,0,0,0,.9,7.11c7.85,5.34,28.59,13.68,66.91-7.55A4.81,4.81,0,0,0,3543.26,1639.71Z"/><path class="cls-39" d="M3511.94,1698.82c-39.37-19.22-59.65-9.82-67.21-4.08a4.78,4.78,0,0,0-.53,7.14c6.64,6.79,25.32,19.06,67.09,5.83A4.8,4.8,0,0,0,3511.94,1698.82Z"/><path class="cls-39" d="M3490.32,1767.21c-31.71-30.23-53.89-27.41-62.83-24.22a4.77,4.77,0,0,0-2.67,6.64c4.28,8.48,18.37,25.83,62.18,25.85A4.8,4.8,0,0,0,3490.32,1767.21Z"/><path class="cls-39" d="M3461.72,1826.43c-28.71-33.09-51-32.38-60.26-30a4.78,4.78,0,0,0-3.28,6.36c3.45,8.84,15.85,27.45,59.46,31.62A4.8,4.8,0,0,0,3461.72,1826.43Z"/><path class="cls-43" d="M3154.61,2215.14h.06l-.06,0Z"/><path class="cls-26" d="M3484,2215.13l-42.37,417.65a552.28,552.28,0,0,1-242.81.4l-1.79-.4-37.86-369.21-4.5-48.44Z"/><g class="cls-44"><path class="cls-45" d="M3484,2215.13l-42.37,417.65a549.13,549.13,0,0,1-59,10.06c67.16-538.42-223.48-379.27-223.48-379.27l-4.5-48.44Z"/></g><path class="cls-15" d="M3505.28,2132.82v60.63a21.67,21.67,0,0,1-21.68,21.68l-118.84,4.51q-45.42,1.71-90.88,0L3155,2215.13a21.67,21.67,0,0,1-21.67-21.68v-60.63a21.67,21.67,0,0,1,21.67-21.67l119.83,4.5q45.42,1.71,90.88,0l117.9-4.48A21.67,21.67,0,0,1,3505.28,2132.82Z"/><path class="cls-16" d="M3505.28,2132.82v32.12a21.68,21.68,0,0,1-21.68,21.68l-118.84,4.49q-45.42,1.72-90.88,0L3155,2186.62a21.68,21.68,0,0,1-21.67-21.68v-32.12a21.67,21.67,0,0,1,21.67-21.67l119.83,4.5q45.42,1.71,90.88,0l117.9-4.48A21.67,21.67,0,0,1,3505.28,2132.82Z"/></g></svg>