<svg xmlns="http://www.w3.org/2000/svg" xmlns:xlink="http://www.w3.org/1999/xlink" viewBox="0 0 4680 3120"><defs><style>.cls-1{fill:none;}.cls-2{isolation:isolate;}.cls-10,.cls-3{fill:#fff;}.cls-3{opacity:0;}.cls-4{fill:#e4f6f8;}.cls-5{fill:#edb183;}.cls-6{fill:#bc835c;}.cls-57,.cls-6,.cls-60{fill-rule:evenodd;}.cls-7{fill:#e88503;}.cls-8{fill:#ffc05d;}.cls-9{fill:#ffa829;}.cls-11{fill:#f25619;}.cls-12{fill:#23b9ba;}.cls-13{fill:#0e6864;}.cls-14{fill:#78c4bf;}.cls-15{fill:#93dbd7;}.cls-16{fill:#023531;}.cls-17{fill:#eff4f4;}.cls-18{clip-path:url(#clip-path);}.cls-19{fill:#b6cc17;}.cls-20{fill:#8b8e0a;}.cls-21{fill:#75750a;}.cls-22{fill:#a3af0b;}.cls-23{fill:#364547;}.cls-24{fill:#eff275;}.cls-25{fill:#3c7219;}.cls-26{fill:#c7c365;}.cls-27{fill:#be5712;}.cls-28{opacity:0.6;}.cls-29{fill:#602904;}.cls-30{fill:#6b2f05;}.cls-31{fill:#913f07;}.cls-32{fill:#ffcf19;}.cls-33{fill:#ffad1b;}.cls-34{fill:#b73108;}.cls-35{fill:#bcd7dd;}.cls-36{mix-blend-mode:screen;}.cls-37{opacity:0.3;}.cls-38{fill:#ff9271;}.cls-39{fill:#ffe273;}.cls-40{fill:#f4f3e9;}.cls-41{fill:#1daaa6;}.cls-42{fill:#e3e3e3;}.cls-43{fill:#ff4557;}.cls-44{fill:#565252;}.cls-45{fill:#bfbfbf;}.cls-46{fill:#f43d47;}.cls-47{fill:#f9647d;}.cls-48{fill:#0a3f3b;}.cls-49{fill:#f5ae97;}.cls-50{fill:#ed856e;}.cls-51{fill:#072c35;}.cls-52{fill:#055451;}.cls-53{fill:#cb6655;}.cls-54{fill:#c66d02;}.cls-55,.cls-57{fill:#82484d;}.cls-56,.cls-60{fill:#542b30;}.cls-58{fill:#5a1f20;}.cls-59{fill:#351314;}</style><clipPath id="clip-path"><rect class="cls-1" x="2678.44" y="1278.02" width="805.3" height="1117.43" rx="39.95"/></clipPath></defs><title>05</title><g class="cls-2"><g id="_05" data-name="05"><rect class="cls-3" width="4680" height="3120"/><path class="cls-4" d="M1179.71,2579.12s-520.07-488.52,18.1-1052.87S1649,587.81,2509.55,711.77s1161.34,942.76,1067.7,1331.15-447,597.53-447,597.53Z"/><ellipse class="cls-5" cx="2306.09" cy="2608.06" rx="1369.82" ry="120.28"/><path class="cls-6" d="M3128.49,2556.27c-142.8,0-271.19,6.45-360,16.71-126.78-17.85-430.12-30.41-784.19-30.41-468.08,0-847.54,22-847.54,49.06s379.46,49.06,847.54,49.06c277.2,0,523.3-7.7,677.94-19.61,58.39,21.16,245,36.64,466.23,36.64,268,0,485.19-22.71,485.19-50.73S3396.45,2556.27,3128.49,2556.27Z"/><rect class="cls-7" x="2228.4" y="391.67" width="756.05" height="520.92" rx="39.88"/><path class="cls-8" d="M2944,431.55V872.71a40,40,0,0,1-39.88,39.88H2227.81a39.79,39.79,0,0,1-28.18-11.72l-.05-.06a38.16,38.16,0,0,1-3.37-3.83,39.61,39.61,0,0,1-8.29-24.27V431.55a40,40,0,0,1,39.89-39.89h676.28A40,40,0,0,1,2944,431.55Z"/><path class="cls-9" d="M2932.84,404h0l-733.2,496.87-.05-.06-3.37-3.83a39.61,39.61,0,0,1-8.29-24.27V431.55a40,40,0,0,1,39.89-39.89h676.28A39.74,39.74,0,0,1,2932.84,404Z"/><rect class="cls-7" x="2275.07" y="448.52" width="580.06" height="17.13" rx="8.57"/><rect class="cls-7" x="2275.07" y="607.46" width="291.78" height="89.28" rx="12.94"/><rect class="cls-7" x="2275.07" y="523.3" width="495.63" height="17.13" rx="8.57"/><rect class="cls-7" x="2325.85" y="721.47" width="357.1" height="17.13" rx="8.57"/><rect class="cls-7" x="2350.31" y="570.22" width="38.78" height="5.39" rx="2.7" transform="translate(531.6 2174.5) rotate(-54.66)"/><rect class="cls-7" x="2275.07" y="563.21" width="79.06" height="17.13" rx="8.57"/><rect class="cls-7" x="2390.8" y="563.21" width="124.21" height="17.13" rx="8.57"/><rect class="cls-7" x="2275.07" y="483.45" width="380.96" height="17.13" rx="8.57"/><circle class="cls-7" cx="2291.66" cy="730.04" r="14.35"/><rect class="cls-7" x="2325.85" y="780.21" width="212.46" height="17.13" rx="8.57"/><circle class="cls-7" cx="2291.66" cy="788.77" r="14.35"/><rect class="cls-7" x="2325.85" y="838.94" width="78.13" height="17.13" rx="8.57"/><circle class="cls-7" cx="2291.66" cy="847.51" r="14.35"/><rect class="cls-10" x="2265.62" y="442.39" width="580.06" height="17.13" rx="8.57"/><rect class="cls-10" x="2265.62" y="601.33" width="291.78" height="89.28" rx="12.94"/><rect class="cls-11" x="2265.62" y="517.17" width="495.63" height="17.13" rx="8.57"/><rect class="cls-12" x="2316.39" y="715.34" width="357.1" height="17.13" rx="8.57"/><rect class="cls-10" x="2340.86" y="564.09" width="38.78" height="5.39" rx="2.7" transform="translate(532.61 2164.21) rotate(-54.66)"/><rect class="cls-10" x="2265.62" y="557.08" width="79.06" height="17.13" rx="8.57"/><rect class="cls-10" x="2381.34" y="557.08" width="124.21" height="17.13" rx="8.57"/><rect class="cls-10" x="2265.62" y="477.32" width="380.96" height="17.13" rx="8.57"/><circle class="cls-12" cx="2282.21" cy="723.91" r="14.35"/><rect class="cls-10" x="2316.39" y="774.08" width="212.46" height="17.13" rx="8.57"/><circle class="cls-10" cx="2282.21" cy="782.64" r="14.35"/><rect class="cls-10" x="2316.39" y="832.81" width="78.13" height="17.13" rx="8.57"/><circle class="cls-10" cx="2282.21" cy="841.38" r="14.35"/><rect class="cls-13" x="2618.81" y="653.33" width="1070.39" height="1941.86" rx="63"/><rect class="cls-14" x="3639.57" y="793.55" width="25.21" height="214.47" rx="10.41"/><rect class="cls-15" x="3644.68" y="793.55" width="25.21" height="214.47" rx="10.41"/><rect class="cls-14" x="3639.57" y="1039.54" width="25.21" height="214.47" rx="10.41"/><rect class="cls-15" x="3644.68" y="1039.54" width="25.21" height="214.47" rx="10.41"/><path class="cls-14" d="M3612.91,716.34V2532.19a63,63,0,0,1-63,63H2605.53a63,63,0,0,1-63-63V716.34a63,63,0,0,1,63-63h944.38a63,63,0,0,1,63,63Z"/><path class="cls-15" d="M3599.23,677.13l-1035.73,1902-16.89-24.59a62.7,62.7,0,0,1-4.09-22.34V716.34a63,63,0,0,1,63-63h944.38A62.87,62.87,0,0,1,3599.23,677.13Z"/><path class="cls-10" d="M3529,2547.83H2605.53a15.31,15.31,0,0,1-10.4-4,15.47,15.47,0,0,1-5.24-11.67V737.25a36.6,36.6,0,0,1,36.55-36.55h923.47a15.63,15.63,0,0,1,15.64,15.64V2511.27A36.6,36.6,0,0,1,3529,2547.83ZM2626.44,711.22a26.06,26.06,0,0,0-26,26V2532.19a4.82,4.82,0,0,0,.34,1.85,5.22,5.22,0,0,0,1.4,2,4.9,4.9,0,0,0,3.38,1.27H3529a26.06,26.06,0,0,0,26-26V716.34a4.84,4.84,0,0,0-1.1-3.17,5,5,0,0,0-4-1.95Z"/><path class="cls-16" d="M3022,793.55h-35.36a24.5,24.5,0,0,1,0-49H3022a24.5,24.5,0,0,0,0,49Z"/><path class="cls-13" d="M3179.56,769.06a24.57,24.57,0,0,1-24.48,24.49H3022a24.5,24.5,0,0,1,0-49h133A24.56,24.56,0,0,1,3179.56,769.06Z"/><rect class="cls-13" x="2678.44" y="853.59" width="808.49" height="29.77" rx="14.89"/><rect class="cls-13" x="2678.44" y="927.74" width="485.27" height="29.77" rx="14.89"/><path class="cls-13" d="M3470.63,1311H2745.24a40.06,40.06,0,0,0-39.95,40V2388.44a40.06,40.06,0,0,0,39.95,39.95h725.39a40.06,40.06,0,0,0,39.95-39.95V1350.92A40.06,40.06,0,0,0,3470.63,1311Z"/><path class="cls-10" d="M3483.74,1318V2355.48a40.07,40.07,0,0,1-39.95,40H2718.4a40.08,40.08,0,0,1-40-40V1318a40.07,40.07,0,0,1,40-40h725.39a39.79,39.79,0,0,1,25.45,9.21h0A39.89,39.89,0,0,1,3483.74,1318Z"/><path class="cls-17" d="M3483.74,1318V2355.48a40.07,40.07,0,0,1-39.95,40H2718.4a39.87,39.87,0,0,1-30.34-14h0l781.18-1094.17A39.89,39.89,0,0,1,3483.74,1318Z"/><g class="cls-18"><rect class="cls-13" x="2773.28" y="1359.58" width="1.05" height="1174.88"/><rect class="cls-13" x="2873.03" y="1359.58" width="1.05" height="1174.88"/><rect class="cls-13" x="2972.77" y="1359.58" width="1.05" height="1174.88"/><rect x="3072.52" y="1359.58" width="1.05" height="1174.88"/><rect x="3172.27" y="1359.58" width="1.05" height="1174.88"/><rect x="3272.01" y="1359.58" width="1.05" height="1174.88"/><rect x="3371.76" y="1359.58" width="1.05" height="1174.88"/><rect class="cls-13" x="2511.46" y="1481.93" width="1174.88" height="1.05"/><rect class="cls-13" x="2511.46" y="1581.68" width="1174.88" height="1.05"/><rect class="cls-13" x="2511.46" y="1681.43" width="1174.88" height="1.05"/><rect x="2511.46" y="1781.17" width="1174.88" height="1.05"/><rect x="2511.46" y="1880.92" width="1174.88" height="1.05"/><rect x="2511.46" y="1980.67" width="1174.88" height="1.05"/><rect x="2511.46" y="2080.41" width="1174.88" height="1.05"/><rect x="2511.46" y="2172.05" width="1174.88" height="1.05"/><rect x="2511.46" y="2263.69" width="1174.88" height="1.05"/><rect x="2511.46" y="2355.33" width="1174.88" height="1.05"/></g><path class="cls-11" d="M3483.74,1318v79.34h-805.3V1318a40.07,40.07,0,0,1,40-40h725.39A40.06,40.06,0,0,1,3483.74,1318Z"/><path class="cls-10" d="M2818,1371.9q-7.86,0-7.86-7.86v-52.68q0-7.86,7.86-7.86h18.92q17.46,0,27.07,8.88t9.6,25.27q0,16.39-9.6,25.32t-27.07,8.93Zm7.18-12.32H2836q21.84,0,21.83-21.93T2836,1315.82h-10.86Z"/><path class="cls-10" d="M2893.05,1371.9q-7.86,0-7.85-7.86v-52.68q0-7.86,7.85-7.86h33.87q5.91,0,5.91,5.82c0,3.94-2,5.92-5.91,5.92h-27.37v16h25.13q6,0,6,5.92t-6,5.91h-25.13v17.08h27.37q5.91,0,5.91,5.82t-5.91,5.92Z"/><path class="cls-10" d="M2944.67,1372.77q-4.07,0-5.82-2.71t.1-6.7l24.84-54.43a11.84,11.84,0,0,1,3.68-4.8,8.87,8.87,0,0,1,9.9,0,11.22,11.22,0,0,1,3.59,4.8l25,54.43q1.85,4.08.15,6.75a6,6,0,0,1-5.48,2.66,7.55,7.55,0,0,1-5.1-1.55,12.69,12.69,0,0,1-3.15-4.85l-4.08-9.31h-31.92l-4,9.31a14.27,14.27,0,0,1-3.11,4.9A6.68,6.68,0,0,1,2944.67,1372.77Zm27.56-53.26-10.77,25.81h21.93l-11-25.81Z"/><path class="cls-10" d="M3023.65,1371.9q-7.86,0-7.86-7.86v-52.68q0-7.86,7.86-7.86h18.92q17.46,0,27.07,8.88t9.61,25.27q0,16.39-9.61,25.32t-27.07,8.93Zm7.18-12.32h10.87q21.83,0,21.83-21.93t-21.83-21.83h-10.87Z"/><path class="cls-10" d="M3098.55,1371.9a7.62,7.62,0,0,1-5.72-2,7.8,7.8,0,0,1-1.94-5.67V1311a7.82,7.82,0,0,1,1.94-5.68,7.53,7.53,0,0,1,5.63-2q7.47,0,7.47,7.67v48.22h26q6.5,0,6.5,6.31t-6.5,6.4Z"/><path class="cls-10" d="M3154.05,1372.77a7.37,7.37,0,0,1-5.62-2,8,8,0,0,1-1.94-5.73v-54.62q0-7.77,7.56-7.77t7.47,7.77V1365Q3161.52,1372.78,3154.05,1372.77Z"/><path class="cls-10" d="M3182.29,1372.77q-7,0-7-7.27v-55.31a8,8,0,0,1,1.8-5.63,6.22,6.22,0,0,1,4.8-1.94,6.84,6.84,0,0,1,4,1,17.13,17.13,0,0,1,3.3,3.35l31.43,40.07V1309.8q0-7.17,7-7.18t7,7.18v56a7.52,7.52,0,0,1-1.65,5.09,5.64,5.64,0,0,1-4.47,1.89,7.72,7.72,0,0,1-4.32-1.06,16.21,16.21,0,0,1-3.44-3.4l-31.44-40.07v37.26Q3189.27,1372.78,3182.29,1372.77Z"/><path class="cls-10" d="M3256.22,1371.9q-7.86,0-7.86-7.86v-52.68q0-7.86,7.86-7.86h33.86q5.93,0,5.92,5.82c0,3.94-2,5.92-5.92,5.92h-27.36v16h25.13q6,0,6,5.92t-6,5.91h-25.13v17.08h27.36q5.93,0,5.92,5.82t-5.92,5.92Z"/><path class="cls-10" d="M3330.54,1373a58.17,58.17,0,0,1-12.41-1.36,37.6,37.6,0,0,1-10.77-4,6.34,6.34,0,0,1-3.4-3.93,7.19,7.19,0,0,1,.29-4.8,6,6,0,0,1,3.11-3.3c1.42-.65,3.13-.48,5.14.49a30.74,30.74,0,0,0,8.63,3.29,42.39,42.39,0,0,0,9.41,1.07q7,0,10.05-2.18a6.54,6.54,0,0,0,3-5.48,5.36,5.36,0,0,0-2.13-4.47c-1.43-1.1-3.92-2-7.47-2.81l-11-2.33q-18.33-3.89-18.33-19a19.13,19.13,0,0,1,3.49-11.4,22.81,22.81,0,0,1,9.75-7.61,36.17,36.17,0,0,1,14.5-2.72,44,44,0,0,1,10.68,1.31,31.32,31.32,0,0,1,9.22,3.83,6.09,6.09,0,0,1,3,3.79,6.75,6.75,0,0,1-.34,4.46,5.49,5.49,0,0,1-3.1,3c-1.46.58-3.25.35-5.39-.68a27.48,27.48,0,0,0-6.79-2.43,35.24,35.24,0,0,0-7.37-.77q-6.12,0-9.46,2.37a7.27,7.27,0,0,0-3.35,6.16,5.7,5.7,0,0,0,2,4.56q2,1.76,7.08,2.82l11,2.33q18.81,4.07,18.82,18.43a18.71,18.71,0,0,1-3.45,11.21,22.39,22.39,0,0,1-9.7,7.47A37.51,37.51,0,0,1,3330.54,1373Z"/><path class="cls-7" d="M3018.2,1031.49H2890.06l-12.33-17.12a27,27,0,0,0-21.93-11.23H2737.74a16.24,16.24,0,0,0-12.41,5.77l-21.53,25.55a12.62,12.62,0,0,0-4.51,9.66v164.76a12.67,12.67,0,0,0,12.63,12.63H3018.2a12.67,12.67,0,0,0,12.63-12.63V1044.12A12.66,12.66,0,0,0,3018.2,1031.49Z"/><path class="cls-8" d="M3007.6,1044.12v164.75A12.66,12.66,0,0,1,2995,1221.5H2688.68a12.7,12.7,0,0,1-12.63-12.63V1044.12a12.6,12.6,0,0,1,4.52-9.66l21.53-25.55a16.26,16.26,0,0,1,12.41-5.77h118a27.06,27.06,0,0,1,21.94,11.23l12.33,17.12H2995a12.67,12.67,0,0,1,12.63,12.63Z"/><path class="cls-9" d="M3004.93,1036.38l-326.49,176.39-2.29-2.38a12.65,12.65,0,0,1-.1-1.52V1044.12a12.6,12.6,0,0,1,4.52-9.66l21.53-25.55a16.26,16.26,0,0,1,12.41-5.77h118a27.06,27.06,0,0,1,21.94,11.23l12.33,17.12H2995A12.58,12.58,0,0,1,3004.93,1036.38Z"/><path class="cls-7" d="M3483.76,1031.49H3355.62l-12.33-17.12a27,27,0,0,0-21.93-11.23H3203.31a16.21,16.21,0,0,0-12.41,5.77l-21.53,25.55a12.6,12.6,0,0,0-4.52,9.66v164.76a12.67,12.67,0,0,0,12.63,12.63h306.28a12.67,12.67,0,0,0,12.63-12.63V1044.12A12.66,12.66,0,0,0,3483.76,1031.49Z"/><path class="cls-8" d="M3473.16,1044.12v164.75a12.66,12.66,0,0,1-12.62,12.63H3154.25a12.61,12.61,0,0,1-12.63-12.63V1044.12a12.62,12.62,0,0,1,4.51-9.66l21.54-25.55a16.25,16.25,0,0,1,12.41-5.77h118a27.05,27.05,0,0,1,21.94,11.23l12.33,17.12h128.15a12.67,12.67,0,0,1,12.62,12.63Z"/><path class="cls-9" d="M3470.49,1036.38,3144,1212.77l-2.3-2.38a12.66,12.66,0,0,1-.09-1.52V1044.12a12.62,12.62,0,0,1,4.51-9.66l21.54-25.55a16.25,16.25,0,0,1,12.41-5.77h118a27.05,27.05,0,0,1,21.94,11.23l12.33,17.12h128.15A12.55,12.55,0,0,1,3470.49,1036.38Z"/><rect class="cls-11" x="2778.3" y="1486.03" width="30.13" height="26.4" rx="5.2"/><rect class="cls-11" x="2881.4" y="1589.82" width="30.13" height="26.4" rx="5.2"/><rect class="cls-11" x="2779.96" y="1688.45" width="30.13" height="26.4" rx="5.2"/><rect class="cls-11" x="3182.09" y="1688.9" width="30.13" height="26.4" rx="5.2"/><path class="cls-19" d="M2969.82,1895.41a12,12,0,0,0-16.86,0l-37,37-14.22-14.22a12,12,0,0,0-16.87,0h0a12,12,0,0,0,0,16.86l22.61,22.61a12.1,12.1,0,0,0,17,0l45.38-45.38A12,12,0,0,0,2969.82,1895.41Z"/><path class="cls-19" d="M3365.34,1787a12,12,0,0,0-16.87,0l-37,37-14.22-14.22a12,12,0,0,0-16.87,0h0a12,12,0,0,0,0,16.86l22.61,22.61a12.1,12.1,0,0,0,17,0l45.38-45.38A12,12,0,0,0,3365.34,1787Z"/><path class="cls-19" d="M2776.48,2078.11a12,12,0,0,0-16.86,0l-37,37-14.22-14.22a12,12,0,0,0-16.86,0h0a12,12,0,0,0,0,16.87l22.6,22.6a12.07,12.07,0,0,0,17,0l45.38-45.38A12,12,0,0,0,2776.48,2078.11Z"/><path class="cls-8" d="M2901.76,1562.63c-17.49,3.4-34.88,10.61-49.08,21.48-6.91,5.28-13,12-15.3,20.56a24.41,24.41,0,0,0,0,13,28.15,28.15,0,0,0,6.83,11.22,50.8,50.8,0,0,0,21.66,13.85c9.18,2.82,19.33,2.28,28.75,1.24,17.63-2,35.8-8.17,47.69-22,2.93-3.39,5.34-7.27,5.73-11.82.4-4.75-1.59-9.33-3.45-13.57-3.3-7.49-7.61-14.85-13.78-20.34a39.78,39.78,0,0,0-4.93-3.75c-2.85-1.85-5.5,2.71-2.66,4.54,6.24,4,10.7,10.12,14.13,16.61a62.81,62.81,0,0,1,4.67,10.71,14.16,14.16,0,0,1,.74,5.95,12.86,12.86,0,0,1-2,5,37.84,37.84,0,0,1-7.88,8.54,55.6,55.6,0,0,1-9.48,6.38,75.77,75.77,0,0,1-23.69,7.74,112.18,112.18,0,0,1-13.06,1.32,72.48,72.48,0,0,1-13.42-.33,42.2,42.2,0,0,1-21.25-10,35.52,35.52,0,0,1-7.67-8.51,18,18,0,0,1-2.51-10.65c.55-7.77,5.49-14.31,11.17-19.25,6.15-5.33,13.44-9.54,20.73-13.1a118.31,118.31,0,0,1,23.42-8.47c2-.49,4-.93,6-1.32a2.63,2.63,0,1,0-1.4-5.08Z"/><path class="cls-20" d="M3329,1914.16s-36.32-128.94-18.57-233.48,29.84-171.34,28.57-193.43c0,0,47.81,88.43,75.55,138.52,61.2,110.52,83.74,199.58,47.09,301,0,0,6.19,52.17,6,54.52s-47.11,59.81-47.11,59.81l-86.26-39.4Z"/><path class="cls-21" d="M3401.14,2060.26s-49.55-277-49.33-442.73c0,0,35.38,293.18,90.78,423.64Z"/><path class="cls-22" d="M3365,2054.05l-.28,65.73-.28,73,24.74,4.08s9.94-10.06,24.82-23.4c23-20.53,57.68-48.82,85.78-59.79,46.3-18.11,118.78-88.37,174-214.37,2-4.43,4-8.66,6-12.69,56.79-111.17,159.43-82.66,159.43-82.66-83.5-27.2-154.52-26.13-214.19-9h0C3440.82,1848,3365,2054.05,3365,2054.05Z"/><path class="cls-20" d="M3364.72,2119.78l-.28,73,24.74,4.08s9.94-10.06,24.82-23.4c167.15-325.93,272.62-366.54,275.93-367.76C3530.16,1842.91,3406.56,2043.52,3364.72,2119.78Z"/><path class="cls-22" d="M3448.22,2091.36l-16.55,60.28-18.38,66.92-23.71-2.59s-6.53-11.75-16.76-27.78c-15.79-24.67-40.35-59.45-63.29-76.68-37.78-28.41-86.21-111.28-104.62-240.8q-1-6.84-2.28-13.17c-23.61-116.34-124.91-116.46-124.91-116.46,83.43-3.57,148.21,15.56,198.48,46.53h0C3431.43,1883.21,3448.22,2091.36,3448.22,2091.36Z"/><path class="cls-20" d="M3431.67,2151.64l-18.38,66.92-23.71-2.59s-6.53-11.75-16.76-27.78C3303,1847,3216.77,1782.81,3214.05,1780.85,3350.88,1855.77,3412.84,2071.1,3431.67,2151.64Z"/><path class="cls-23" d="M3716.35,1971.82s-230.11,32.32-311.23,200C3405.12,2171.83,3475.54,2029,3716.35,1971.82Z"/><path class="cls-23" d="M3691,1940.64c-3.55,21-13,26.41-17.45,27.78a2.32,2.32,0,0,1-3-1.82c-.81-4.55-.37-15.44,16.71-28.22A2.34,2.34,0,0,1,3691,1940.64Z"/><path class="cls-23" d="M3664.4,1947.29c-1.9,21.26-10.92,27.35-15.22,29.06a2.32,2.32,0,0,1-3.11-1.58c-1.16-4.47-1.58-15.36,14.45-29.44A2.34,2.34,0,0,1,3664.4,1947.29Z"/><path class="cls-23" d="M3634.23,1958.37c1.48,19-5.57,25.71-9.1,27.85a2.08,2.08,0,0,1-3-.93c-1.69-3.77-3.67-13.29,8.36-28.08A2.1,2.1,0,0,1,3634.23,1958.37Z"/><path class="cls-23" d="M3606.51,1967.25c5.21,18.33-.37,26.3-3.41,29.1a2.09,2.09,0,0,1-3.1-.32c-2.39-3.37-6.22-12.31,2.65-29.18A2.09,2.09,0,0,1,3606.51,1967.25Z"/><path class="cls-23" d="M3579.79,1978.33c7.5,16.29,3.47,24.51,1.05,27.55a2,2,0,0,1-2.93.15c-2.72-2.78-7.57-10.54-1.76-27.51A2,2,0,0,1,3579.79,1978.33Z"/><path class="cls-23" d="M3547.23,1986.05c14.78,10.16,15.51,19.28,15,23.14a2,2,0,0,1-2.44,1.62c-3.75-1-11.89-5.19-15.59-22.74A2,2,0,0,1,3547.23,1986.05Z"/><path class="cls-23" d="M3717.71,2000.72c-15.68-14.52-26.47-13-30.81-11.38a2.33,2.33,0,0,0-1.25,3.26c2.14,4.11,9.13,12.47,30.5,12.18A2.34,2.34,0,0,0,3717.71,2000.72Z"/><path class="cls-23" d="M3692.58,2011.66c-14.49-15.7-25.37-15-29.82-13.75a2.33,2.33,0,0,0-1.51,3.15c1.82,4.26,8.13,13.15,29.46,14.53A2.34,2.34,0,0,0,3692.58,2011.66Z"/><path class="cls-23" d="M3661.88,2021.31c-10.43-16-20.12-17-24.23-16.54a2.08,2.08,0,0,0-1.79,2.55c1,4,5.21,12.79,23.79,17.17A2.09,2.09,0,0,0,3661.88,2021.31Z"/><path class="cls-23" d="M3634.47,2031.19c-7.07-17.73-16.36-20.64-20.48-21a2.08,2.08,0,0,0-2.26,2.15c.15,4.13,2.58,13.56,19.92,21.53A2.09,2.09,0,0,0,3634.47,2031.19Z"/><path class="cls-23" d="M3607.46,2046.91c-1.37-19-9.35-24.62-13.16-26.22a2.09,2.09,0,0,0-2.81,1.37c-1.1,4-1.64,13.71,12.48,26.55A2.09,2.09,0,0,0,3607.46,2046.91Z"/><path class="cls-23" d="M3580.89,2057.63c.44-19.08-7-25.4-10.62-27.35a2.09,2.09,0,0,0-2.92,1.1c-1.48,3.86-2.94,13.49,9.9,27.61A2.1,2.1,0,0,0,3580.89,2057.63Z"/><path class="cls-23" d="M3098.9,1802.49s260.74,141.15,283,377.79C3381.94,2180.28,3361.34,1978.18,3098.9,1802.49Z"/><path class="cls-23" d="M3143.15,1776.52c-5.12,26.75,3.82,37.39,8.49,41a3,3,0,0,0,4.37-.85c3-5.08,7.32-18.29-7.41-41.19A3,3,0,0,0,3143.15,1776.52Z"/><path class="cls-23" d="M3171.94,1796.3c-7.2,26.27.88,37.57,5.25,41.53a3,3,0,0,0,4.43-.5c3.38-4.84,8.72-17.66-4.17-41.65A3,3,0,0,0,3171.94,1796.3Z"/><path class="cls-23" d="M3203.09,1823c-10.24,22.06-4.81,33.22-1.54,37.35a2.66,2.66,0,0,0,4,.22c3.7-3.76,10.31-14.27,2.51-37.3A2.66,2.66,0,0,0,3203.09,1823Z"/><path class="cls-23" d="M3232.27,1846c-14.4,19.6-11.28,31.62-8.89,36.32a2.66,2.66,0,0,0,3.85,1c4.36-3,12.92-11.94,9.83-36.07A2.67,2.67,0,0,0,3232.27,1846Z"/><path class="cls-23" d="M3259.28,1871.1c-16.23,16.15-15.06,27.77-13.52,32.48a2.49,2.49,0,0,0,3.43,1.48c4.49-2.11,13.74-9.23,14.36-32.11A2.51,2.51,0,0,0,3259.28,1871.1Z"/><path class="cls-23" d="M3294.77,1894.83c-22.2,5.57-27.14,16.16-28.23,21a2.5,2.5,0,0,0,2.19,3c4.94.47,16.54-.91,28.77-20.25A2.51,2.51,0,0,0,3294.77,1894.83Z"/><path class="cls-23" d="M3084.4,1836.44c25.21-10.38,37.44-3.74,41.91.12a3,3,0,0,1,0,4.46c-4.39,4-16.48,10.84-41.89,1A3,3,0,0,1,3084.4,1836.44Z"/><path class="cls-23" d="M3109.57,1860.72c24.32-12.33,37-6.66,41.79-3.16a3,3,0,0,1,.39,4.43c-4.06,4.29-15.58,12.1-41.69,4.26A3,3,0,0,1,3109.57,1860.72Z"/><path class="cls-23" d="M3142,1885.93c19.59-14.47,31.63-11.37,36.34-9a2.66,2.66,0,0,1,1,3.85c-2.94,4.38-11.92,13-36.08,9.93A2.67,2.67,0,0,1,3142,1885.93Z"/><path class="cls-23" d="M3170.35,1910c16.35-18,28.76-17.39,33.84-16a2.66,2.66,0,0,1,1.75,3.58c-2,4.87-9.12,15.07-33.41,16.87A2.68,2.68,0,0,1,3170.35,1910Z"/><path class="cls-23" d="M3195.64,1940.78c10.12-22.15,22.15-25.28,27.42-25.48a2.65,2.65,0,0,1,2.75,2.88c-.45,5.25-4.14,17.12-26.74,26.18A2.67,2.67,0,0,1,3195.64,1940.78Z"/><path class="cls-23" d="M3222.64,1965.43c8-23,19.65-27.26,24.88-28a2.66,2.66,0,0,1,3,2.6c0,5.28-2.5,17.44-24.15,28.6A2.66,2.66,0,0,1,3222.64,1965.43Z"/><path class="cls-19" d="M3729,2288.68c-39.06-43.07-170.1-171.25-305-119.33q-7.55,2.88-15.12,6.56a16.32,16.32,0,0,1-5.65,1.64c-3,.25-6.87-.26-8.91-4a9.31,9.31,0,0,1,.56-9.43,292.76,292.76,0,0,1,37.34-45.71c37.84-37.86,100.6-79,177.57-47.63,103.09,42.06,125.07,166.28,129.73,213.19A6,6,0,0,1,3729,2288.68Z"/><path class="cls-24" d="M3684.23,2181.24c-7.67-10.69-116.87-148-260.25-11.89q-7.55,2.88-15.12,6.56a16.32,16.32,0,0,1-5.65,1.64c-3,.25-6.87-.26-8.91-4a9.31,9.31,0,0,1,.56-9.43S3549.3,1993.19,3684.23,2181.24Z"/><path class="cls-25" d="M3684.64,2181.8a6.23,6.23,0,0,0-.41-.56C3684.45,2181.51,3684.57,2181.7,3684.64,2181.8Z"/><path class="cls-19" d="M3015.42,2112.23c61.58-12.72,257.79-41.11,342.55,90.3q4.76,7.33,9,15.37a17.81,17.81,0,0,0,3.9,5c2.44,2.12,6.15,4.15,10.31,2.2a10,10,0,0,0,5.52-8.59,316.1,316.1,0,0,0-3.46-63.74c-8.91-57.2-37.47-133.2-124.73-154.85-116.88-29-215.3,65.49-249.29,103.49A6.54,6.54,0,0,0,3015.42,2112.23Z"/><path class="cls-24" d="M3123.06,2046.94c13.63-4.09,196.45-54.71,234.91,155.59q4.76,7.33,9,15.37a17.81,17.81,0,0,0,3.9,5c2.44,2.12,6.15,4.15,10.31,2.2a10,10,0,0,0,5.52-8.59,316.1,316.1,0,0,0-3.46-63.74C3358.19,2082.84,3292.58,1990.41,3123.06,2046.94Z"/><path class="cls-23" d="M3601.21,1602.66s-296.56,356.59-191.34,713.19C3409.87,2315.85,3322.26,2010.4,3601.21,1602.66Z"/><path class="cls-23" d="M3521.84,1590.68c23,35.86,16.2,56.51,11.51,64.46a4.65,4.65,0,0,1-6.84,1.31c-7.3-5.65-21.26-22.31-13.18-64.14A4.67,4.67,0,0,1,3521.84,1590.68Z"/><path class="cls-23" d="M3491.54,1636.15c25.74,33.95,20.58,55.06,16.52,63.36a4.64,4.64,0,0,1-6.71,1.84c-7.72-5.06-22.94-20.57-18.17-62.9A4.67,4.67,0,0,1,3491.54,1636.15Z"/><path class="cls-23" d="M3461.83,1693c27.7,26.08,26.29,45.44,24,53.35a4.14,4.14,0,0,1-5.64,2.62c-7.55-3.31-23.26-14.72-25.33-52.71A4.17,4.17,0,0,1,3461.83,1693Z"/><path class="cls-23" d="M3432.81,1743.32c32.31,20.1,34.76,39.36,34,47.57a4.15,4.15,0,0,1-5,3.68c-8.05-1.75-25.71-9.83-35.25-46.66A4.17,4.17,0,0,1,3432.81,1743.32Z"/><path class="cls-23" d="M3408.22,1795.55c32.94,14,38,31.56,38.51,39.3a3.91,3.91,0,0,1-4.13,4.15c-7.74-.46-25.32-5.42-39.52-38.28A3.93,3.93,0,0,1,3408.22,1795.55Z"/><path class="cls-23" d="M3370.47,1850.65c35.48-4.81,48.8,7.68,53.2,14.07a3.91,3.91,0,0,1-1.42,5.68c-6.89,3.56-24.54,8.3-53.55-12.68A3.93,3.93,0,0,1,3370.47,1850.65Z"/><path class="cls-23" d="M3642,1643.53c-42.65-.41-56.54,16.34-60.78,24.54a4.65,4.65,0,0,0,2.52,6.5c8.67,3.19,30.23,6.16,61.4-22.94A4.68,4.68,0,0,0,3642,1643.53Z"/><path class="cls-23" d="M3619.57,1693.42c-42.48-3.75-57.64,11.86-62.52,19.71a4.65,4.65,0,0,0,2,6.67c8.4,3.86,29.66,8.51,63-18.06A4.68,4.68,0,0,0,3619.57,1693.42Z"/><path class="cls-23" d="M3587.16,1748.87c-36.86-9.61-52.53,1.89-58,8.08a4.17,4.17,0,0,0,.78,6.18c6.83,4.64,24.86,11.9,58.18-6.56A4.18,4.18,0,0,0,3587.16,1748.87Z"/><path class="cls-23" d="M3559.94,1800.26c-34.23-16.71-51.87-8.53-58.45-3.54a4.16,4.16,0,0,0-.45,6.21c5.77,5.9,22,16.57,58.32,5.07A4.18,4.18,0,0,0,3559.94,1800.26Z"/><path class="cls-23" d="M3541.13,1859.73c-27.57-26.28-46.85-23.83-54.63-21.06a4.15,4.15,0,0,0-2.31,5.78c3.71,7.37,16,22.46,54.06,22.48A4.18,4.18,0,0,0,3541.13,1859.73Z"/><path class="cls-23" d="M3516.27,1911.22c-25-28.77-44.39-28.15-52.4-26.13a4.17,4.17,0,0,0-2.85,5.54c3,7.68,13.78,23.86,51.7,27.49A4.18,4.18,0,0,0,3516.27,1911.22Z"/><path class="cls-26" d="M3249.24,2249.2h.05l-.05,0Z"/><path class="cls-27" d="M3535.63,2249.19l-36.84,363.14a480.27,480.27,0,0,1-211.12.35l-1.55-.35-32.92-321-3.91-42.12Z"/><g class="cls-28"><path class="cls-29" d="M3535.63,2249.19l-36.84,363.14a477.16,477.16,0,0,1-51.28,8.75c58.4-468.15-194.31-329.77-194.31-329.77l-3.91-42.12Z"/></g><path class="cls-30" d="M3554.14,2177.63v52.71a18.84,18.84,0,0,1-18.85,18.85L3432,2253.11q-39.48,1.48-79,0l-103.37-3.92a18.84,18.84,0,0,1-18.85-18.85v-52.71a18.84,18.84,0,0,1,18.85-18.85l104.18,3.92q39.49,1.49,79,0l102.51-3.9A18.84,18.84,0,0,1,3554.14,2177.63Z"/><path class="cls-31" d="M3554.14,2177.63v27.92a18.84,18.84,0,0,1-18.85,18.85L3432,2228.31q-39.48,1.5-79,0l-103.37-3.91a18.84,18.84,0,0,1-18.85-18.85v-27.92a18.84,18.84,0,0,1,18.85-18.85l104.18,3.92q39.49,1.49,79,0l102.51-3.9A18.84,18.84,0,0,1,3554.14,2177.63Z"/><circle class="cls-32" cx="951.86" cy="862.92" r="45.84" transform="translate(-80.62 98.3) rotate(-5.67)"/><path class="cls-33" d="M980.91,827.46A45.53,45.53,0,0,0,943.66,818a43.71,43.71,0,0,1,4.71,3.13,45.6,45.6,0,0,1-20.84,80.34,45.72,45.72,0,0,0,53.38-74Z"/><path class="cls-33" d="M917.45,893a45.77,45.77,0,1,0,63.46-65.52,42.81,42.81,0,0,0-5-3.3A271.35,271.35,0,0,0,917.45,893Z"/><path class="cls-34" d="M1007.69,1287.22a14.43,14.43,0,0,0,2.69,1.91c17.1-.87,105.14-92.38,203.06-211.9,98.08-119.7,170.33-223.83,167.82-240.77a14.61,14.61,0,0,0-2.4-2.26c-15.64-1.29-104.45,90.8-203.56,211.77C1076.33,1166.77,1003.35,1272.14,1007.69,1287.22Z"/><rect class="cls-35" x="1175.1" y="990.47" width="72.36" height="170" transform="translate(2810.86 820.1) rotate(129.33)"/><g class="cls-36"><rect class="cls-35" x="1194.31" y="1009.76" width="19.52" height="170" transform="translate(2813.99 857.19) rotate(129.33)"/></g><path class="cls-11" d="M992.89,1276c4.9,4,9.78,7.71,14.79,11.22-4.33-15.09,68.65-120.46,167.61-241.25,99.12-121,187.92-213.06,203.56-211.78-4.42-4.23-9-8.29-13.9-12.31-125.33-102.69-310.25-84.48-413.09,41C849.17,988.25,867.55,1173.32,992.89,1276Z"/><g class="cls-37"><path class="cls-33" d="M1000.08,1281.46c2.53,1.92,5,4,7.59,5.76-1.45-5.11,6.14-20.81,20.46-43.78Q1013.18,1263.23,1000.08,1281.46Z"/><path class="cls-34" d="M1365,821.89c-124-101.6-306.25-84.68-409.7,37.28,99.94-30.73,221.78-7.69,321.1,69.37,53-58.13,92.55-95.16,102.49-94.34C1374.44,830,1369.86,825.92,1365,821.89Z"/></g><path class="cls-38" d="M1161,1034.51c-92.43,112.81-150.35,202.91-159.83,247.76,2.18,1.63,4.32,3.4,6.53,5-4.33-15.07,68.65-120.45,167.61-241.24,99.11-121,187.92-213.06,203.57-211.78-2.17-2.07-4.57-4-6.84-6.05C1333,842.8,1251.06,924.55,1161,1034.51Z"/><path class="cls-38" d="M932.67,936.29s-102.54,125.85,61.53,301.56l48.51-89.65S898.8,1077.9,932.67,936.29Z"/><path class="cls-38" d="M1320.1,837s-169-110.83-310-12c0,0,140.05-53.06,278.95,45Z"/><ellipse class="cls-39" cx="918.92" cy="859.01" rx="17.52" ry="8.9" transform="translate(-62.36 1646.04) rotate(-81.8)"/><path class="cls-39" d="M930.67,835.2c.44,1.49-1,3.22-3.15,3.86s-4.3,0-4.74-1.54,1-3.22,3.16-3.86S930.23,833.71,930.67,835.2Z"/><circle class="cls-32" cx="2102.49" cy="525.37" r="45.84" transform="translate(-64.61 537.8) rotate(-14.36)"/><path class="cls-33" d="M2069.63,519.31a44.38,44.38,0,0,1-11.24-5.77,45.74,45.74,0,1,0,69.46-26.11c-.21.81-.2,1.61-.47,2.42A45.84,45.84,0,0,1,2069.63,519.31Z"/><path class="cls-33" d="M2147.7,532.08a46.3,46.3,0,0,1-1.61,7.43,45.84,45.84,0,1,1-87.2-28.28,43.18,43.18,0,0,1,2.4-5.46,271.19,271.19,0,0,1,86.41,26.31Z"/><path class="cls-34" d="M2284.73,912.59a14.67,14.67,0,0,1-1.23,3.06c-14.86,8.51-138.38-20.94-285.36-68.62-147.2-47.75-264.25-96.34-271.29-111.95a14.25,14.25,0,0,1,.8-3.2c12.47-9.53,136.95,20,285.71,68.24C2161.9,848.31,2280.23,897.55,2284.73,912.59Z"/><rect class="cls-35" x="1962.82" y="759.38" width="72.36" height="170" transform="translate(358.08 -575.61) rotate(17.97)"/><rect class="cls-40" x="1898.65" y="831.74" width="170" height="23.16" transform="translate(569.4 2469.96) rotate(-72.03)"/><path class="cls-11" d="M2291.13,895.16c-2,6-4.06,11.77-6.39,17.43-4.5-15-122.84-64.28-271.38-112.47-148.76-48.25-273.24-77.77-285.71-68.24,1.44-6,3.09-11.84,5-17.87,50-154.12,215.45-238.71,369.79-188.64C2256.61,575.37,2341.12,741,2291.13,895.16Z"/><path class="cls-34" d="M2129.12,535.53A347.19,347.19,0,0,1,2094,827.4c108.67,38.35,187.09,73,190.73,85.19,2.34-5.66,4.44-11.41,6.39-17.44C2338.16,750.18,2266.12,595.05,2129.12,535.53Z"/><path class="cls-38" d="M2019.21,782.74c138.73,45,236.14,89.53,268.35,122.15-.95,2.55-1.8,5.2-2.82,7.7-4.51-15-122.84-64.28-271.38-112.47-148.75-48.25-273.24-77.77-285.71-68.24.71-2.92,1.66-5.86,2.49-8.78C1770.91,714.33,1884,738.87,2019.21,782.74Z"/><path class="cls-38" d="M2158.28,576.75s154.27,50.5,111.13,287l-89.25-49.23S2263.29,677.62,2158.28,576.75Z"/><path class="cls-38" d="M1778.61,702.49S1860.93,517.94,2033,524.93c0,0-146.52,31-210.41,188.61Z"/><path class="cls-39" d="M2069.87,503.65c2.41,4.28,11.2,3.91,19.63-.83s13.31-12.06,10.9-16.34-11.19-3.92-19.63.82S2067.46,499.36,2069.87,503.65Z"/><path class="cls-39" d="M2104.56,487.9c.44,1.49,2.56,2.18,4.73,1.54s3.59-2.36,3.15-3.85-2.55-2.18-4.73-1.54S2104.12,486.41,2104.56,487.9Z"/><rect class="cls-38" x="1526.14" y="739.25" width="67.39" height="137.83" transform="translate(-164.42 471.77) rotate(-16.35)"/><rect class="cls-11" x="1515.25" y="740.82" width="67.39" height="60.5" transform="translate(-154.42 467.2) rotate(-16.35)"/><path class="cls-11" d="M1601.06,829c-10.88,2.54-21.75,5.35-32.6,8.53s-21.53,6.7-32.06,10.44l10.5,35.79,64.66-19Z"/><circle class="cls-41" cx="1741.33" cy="1426.86" r="582.73"/><circle class="cls-14" cx="1741.33" cy="1426.86" r="521.47"/><circle class="cls-41" cx="1741.33" cy="1426.86" r="484.72" transform="translate(-498.92 1649.22) rotate(-45)"/><circle class="cls-10" cx="1741.33" cy="1426.86" r="465.57" transform="translate(-498.92 1649.22) rotate(-45)"/><path class="cls-42" d="M2027,1625.3a5.86,5.86,0,0,1-6-.13l-351.39-219.45a5.91,5.91,0,0,1-1.88-8.11,6,6,0,0,1,8.11-1.87l351.39,219.46a5.91,5.91,0,0,1,1.87,8.1A5.85,5.85,0,0,1,2027,1625.3Z"/><path class="cls-43" d="M1747.94,1424.92a6.89,6.89,0,1,0-4.67,8.55A6.89,6.89,0,0,0,1747.94,1424.92Z"/><path class="cls-11" d="M1631.6,753.6,1470,801a49,49,0,0,1-60.82-33.23h0A49,49,0,0,1,1442.36,707L1604,659.55a49,49,0,0,1,60.82,33.23h0A49,49,0,0,1,1631.6,753.6Z"/><path class="cls-34" d="M1623.52,726l-161.66,47.43a48.85,48.85,0,0,1-54.49-20.13,48.45,48.45,0,0,0,1.75,14.45A49,49,0,0,0,1470,801l161.66-47.43a48.36,48.36,0,0,0,26.89-73.93A48.83,48.83,0,0,1,1623.52,726Z"/><circle class="cls-44" cx="1622.77" cy="1022.73" r="24.5" transform="translate(-52.8 1956.45) rotate(-61.35)"/><path class="cls-44" d="M1636.73,1018.63a14.55,14.55,0,1,0-9.86,18.06A14.53,14.53,0,0,0,1636.73,1018.63Z"/><path class="cls-44" d="M1446.63,1125.62a14.55,14.55,0,1,0,.49,20.57A14.54,14.54,0,0,0,1446.63,1125.62Z"/><path class="cls-44" d="M1335.5,1313.33a14.55,14.55,0,1,0,10.7,17.57A14.55,14.55,0,0,0,1335.5,1313.33Z"/><path class="cls-44" d="M1333.1,1531.45a14.55,14.55,0,1,0,18.06,9.87A14.54,14.54,0,0,0,1333.1,1531.45Z"/><circle class="cls-44" cx="1450.62" cy="1731.59" r="14.55" transform="translate(-724.75 2340.29) rotate(-65.68)"/><circle class="cls-44" cx="1641.93" cy="1836.12" r="14.55" transform="translate(-693.33 1052.65) rotate(-29.65)"/><circle class="cls-44" cx="1859.88" cy="1830.99" r="14.55" transform="translate(-433.98 586.04) rotate(-16.06)"/><circle class="cls-44" cx="2046.06" cy="1717.57" r="14.55" transform="matrix(0.33, -0.94, 0.94, 0.33, -257.12, 3070.98)"/><path class="cls-44" d="M2147.16,1540.39a14.55,14.55,0,1,0-10.71-17.57A14.56,14.56,0,0,0,2147.16,1540.39Z"/><path class="cls-44" d="M2149.55,1322.26a14.55,14.55,0,1,0-18.05-9.86A14.55,14.55,0,0,0,2149.55,1322.26Z"/><circle class="cls-44" cx="2032.04" cy="1122.12" r="14.55" transform="translate(172.59 2511.65) rotate(-65.68)"/><path class="cls-44" d="M1854.86,1021a14.55,14.55,0,1,0-17.57,10.7A14.57,14.57,0,0,0,1854.86,1021Z"/><path class="cls-45" d="M1586.13,1035.3a5.36,5.36,0,1,0-2.91,7A5.35,5.35,0,0,0,1586.13,1035.3Z"/><path class="cls-45" d="M1546.06,1053.66a5.36,5.36,0,1,0-2.18,7.26A5.37,5.37,0,0,0,1546.06,1053.66Z"/><path class="cls-45" d="M1508.12,1076.12a5.36,5.36,0,1,0-1.41,7.45A5.36,5.36,0,0,0,1508.12,1076.12Z"/><path class="cls-45" d="M1472.73,1102.42a5.36,5.36,0,1,0-.61,7.55A5.36,5.36,0,0,0,1472.73,1102.42Z"/><path class="cls-45" d="M1411.15,1165.35a5.36,5.36,0,1,0,1,7.52A5.36,5.36,0,0,0,1411.15,1165.35Z"/><path class="cls-45" d="M1385.62,1201.3a5.36,5.36,0,1,0,1.75,7.37A5.36,5.36,0,0,0,1385.62,1201.3Z"/><path class="cls-45" d="M1364,1239.71a5.36,5.36,0,1,0,2.51,7.16A5.36,5.36,0,0,0,1364,1239.71Z"/><path class="cls-45" d="M1346.5,1280.18a5.36,5.36,0,1,0,3.24,6.85A5.38,5.38,0,0,0,1346.5,1280.18Z"/><path class="cls-45" d="M1324.63,1365.48a5.36,5.36,0,1,0,4.6,6A5.36,5.36,0,0,0,1324.63,1365.48Z"/><path class="cls-45" d="M1320.49,1409.37a5.36,5.36,0,1,0,5.21,5.51A5.36,5.36,0,0,0,1320.49,1409.37Z"/><path class="cls-45" d="M1321,1453.45a5.36,5.36,0,1,0,5.75,4.94A5.37,5.37,0,0,0,1321,1453.45Z"/><path class="cls-45" d="M1326.05,1497.25a5.36,5.36,0,1,0,6.24,4.31A5.36,5.36,0,0,0,1326.05,1497.25Z"/><circle class="cls-45" cx="1337.2" cy="1545.41" r="5.36" transform="translate(-345.28 385.39) rotate(-14.55)"/><path class="cls-45" d="M1349.76,1582.05a5.36,5.36,0,1,0,7,2.92A5.36,5.36,0,0,0,1349.76,1582.05Z"/><path class="cls-45" d="M1368.13,1622.13a5.36,5.36,0,1,0,7.26,2.17A5.36,5.36,0,0,0,1368.13,1622.13Z"/><path class="cls-45" d="M1390.59,1660.07a5.36,5.36,0,1,0,7.45,1.4A5.35,5.35,0,0,0,1390.59,1660.07Z"/><path class="cls-45" d="M1416.89,1695.45a5.36,5.36,0,1,0,7.55.62A5.36,5.36,0,0,0,1416.89,1695.45Z"/><path class="cls-45" d="M1479.82,1757a5.36,5.36,0,1,0,7.52-1A5.37,5.37,0,0,0,1479.82,1757Z"/><path class="cls-45" d="M1515.77,1782.56a5.36,5.36,0,1,0,7.37-1.75A5.36,5.36,0,0,0,1515.77,1782.56Z"/><path class="cls-45" d="M1554.18,1804.19a5.36,5.36,0,1,0,7.16-2.51A5.38,5.38,0,0,0,1554.18,1804.19Z"/><path class="cls-45" d="M1594.65,1821.69a5.36,5.36,0,1,0,6.85-3.25A5.37,5.37,0,0,0,1594.65,1821.69Z"/><path class="cls-45" d="M1680,1843.56a5.36,5.36,0,1,0,6-4.6A5.35,5.35,0,0,0,1680,1843.56Z"/><path class="cls-45" d="M1723.84,1847.69a5.36,5.36,0,1,0,5.51-5.2A5.35,5.35,0,0,0,1723.84,1847.69Z"/><path class="cls-45" d="M1767.92,1847.21a5.36,5.36,0,1,0,4.94-5.75A5.37,5.37,0,0,0,1767.92,1847.21Z"/><path class="cls-45" d="M1811.72,1842.13a5.36,5.36,0,1,0,4.31-6.24A5.36,5.36,0,0,0,1811.72,1842.13Z"/><path class="cls-45" d="M1854.74,1832.5a5.36,5.36,0,1,0,3.63-6.66A5.36,5.36,0,0,0,1854.74,1832.5Z"/><path class="cls-45" d="M1896.52,1818.42a5.36,5.36,0,1,0,2.92-7A5.36,5.36,0,0,0,1896.52,1818.42Z"/><path class="cls-45" d="M1936.6,1800.05a5.36,5.36,0,1,0,2.17-7.26A5.35,5.35,0,0,0,1936.6,1800.05Z"/><path class="cls-45" d="M1974.54,1777.6a5.36,5.36,0,1,0,1.4-7.45A5.36,5.36,0,0,0,1974.54,1777.6Z"/><path class="cls-45" d="M2009.92,1751.3a5.36,5.36,0,1,0,.62-7.56A5.37,5.37,0,0,0,2009.92,1751.3Z"/><path class="cls-45" d="M2071.51,1688.36a5.36,5.36,0,1,0-1-7.51A5.36,5.36,0,0,0,2071.51,1688.36Z"/><path class="cls-45" d="M2097,1652.42a5.36,5.36,0,1,0-1.75-7.38A5.37,5.37,0,0,0,2097,1652.42Z"/><path class="cls-45" d="M2118.66,1614a5.36,5.36,0,1,0-2.51-7.15A5.37,5.37,0,0,0,2118.66,1614Z"/><path class="cls-45" d="M2136.16,1573.53a5.36,5.36,0,1,0-3.25-6.85A5.35,5.35,0,0,0,2136.16,1573.53Z"/><path class="cls-45" d="M2158,1488.24a5.36,5.36,0,1,0-4.6-6A5.36,5.36,0,0,0,2158,1488.24Z"/><path class="cls-45" d="M2162.16,1444.34a5.36,5.36,0,1,0-5.21-5.51A5.35,5.35,0,0,0,2162.16,1444.34Z"/><path class="cls-45" d="M2161.68,1400.26a5.36,5.36,0,1,0-5.75-4.94A5.36,5.36,0,0,0,2161.68,1400.26Z"/><path class="cls-45" d="M2156.6,1356.47a5.36,5.36,0,1,0-6.24-4.31A5.37,5.37,0,0,0,2156.6,1356.47Z"/><path class="cls-45" d="M2147,1313.44a5.36,5.36,0,1,0-6.66-3.63A5.36,5.36,0,0,0,2147,1313.44Z"/><path class="cls-45" d="M2132.89,1271.67a5.36,5.36,0,1,0-7-2.92A5.37,5.37,0,0,0,2132.89,1271.67Z"/><path class="cls-45" d="M2114.52,1231.59a5.36,5.36,0,1,0-7.26-2.18A5.36,5.36,0,0,0,2114.52,1231.59Z"/><path class="cls-45" d="M2092.07,1193.65a5.36,5.36,0,1,0-7.45-1.4A5.36,5.36,0,0,0,2092.07,1193.65Z"/><path class="cls-45" d="M2065.77,1158.26a5.36,5.36,0,1,0-7.56-.61A5.36,5.36,0,0,0,2065.77,1158.26Z"/><path class="cls-45" d="M2002.83,1096.68a5.36,5.36,0,1,0-7.52,1A5.35,5.35,0,0,0,2002.83,1096.68Z"/><path class="cls-45" d="M1966.89,1071.15a5.36,5.36,0,1,0-7.38,1.75A5.37,5.37,0,0,0,1966.89,1071.15Z"/><path class="cls-45" d="M1928.47,1049.52a5.36,5.36,0,1,0-7.15,2.51A5.36,5.36,0,0,0,1928.47,1049.52Z"/><path class="cls-45" d="M1888,1032a5.36,5.36,0,1,0-6.85,3.24A5.36,5.36,0,0,0,1888,1032Z"/><path class="cls-45" d="M1802.71,1010.16a5.36,5.36,0,1,0-6,4.6A5.37,5.37,0,0,0,1802.71,1010.16Z"/><circle class="cls-45" cx="1753.46" cy="1005.87" r="5.36" transform="translate(-212.1 1478.08) rotate(-43.35)"/><path class="cls-45" d="M1714.73,1006.5a5.36,5.36,0,1,0-4.94,5.75A5.37,5.37,0,0,0,1714.73,1006.5Z"/><path class="cls-45" d="M1670.94,1011.59a5.36,5.36,0,1,0-4.31,6.23A5.36,5.36,0,0,0,1670.94,1011.59Z"/><circle class="cls-44" cx="1337.2" cy="1545.41" r="24.5" transform="translate(-428.4 516.31) rotate(-18.9)"/><circle class="cls-44" cx="1859.88" cy="1830.99" r="24.5" transform="translate(-66.4 69.99) rotate(-2.12)"/><path class="cls-44" d="M2152.35,1331.81a24.5,24.5,0,1,0-30.41-16.61A24.5,24.5,0,0,0,2152.35,1331.81Z"/><path class="cls-42" d="M1783.55,1539.5a23.47,23.47,0,0,1-29.15-15.92l-114.46-390.17a23.49,23.49,0,0,1,45.07-13.23l114.46,390.18A23.47,23.47,0,0,1,1783.55,1539.5Z"/><path class="cls-42" d="M1815,1359.08a23.46,23.46,0,0,0-33.19,1.42l-28.06,30.57a44,44,0,0,0-49.88,54.37l-137,149.31a23.49,23.49,0,0,0,34.61,31.76l136.22-148.44a43.89,43.89,0,0,0,21.65-.64,44.4,44.4,0,0,0,30.12-55.13c0-.15-.14-.29-.19-.44l27.16-29.6A23.5,23.5,0,0,0,1815,1359.08Z"/><path class="cls-13" d="M1771.5,1531.07a23.48,23.48,0,0,1-29.15-15.93L1627.89,1125a23.48,23.48,0,0,1,45.07-13.22l114.46,390.17A23.48,23.48,0,0,1,1771.5,1531.07Z"/><path class="cls-13" d="M1810.23,1350.91a23.45,23.45,0,0,0-33.19,1.42L1749,1382.9a44,44,0,0,0-49.88,54.37l-137,149.31a23.48,23.48,0,1,0,34.6,31.76l136.23-148.44a43.89,43.89,0,0,0,21.65-.64,44.41,44.41,0,0,0,30.12-55.13c0-.15-.14-.29-.19-.44l27.16-29.6A23.5,23.5,0,0,0,1810.23,1350.91Z"/><circle class="cls-13" cx="1742.06" cy="1426.64" r="44.22" transform="translate(-506.86 1538.19) rotate(-42.15)"/><path class="cls-46" d="M2030.32,1609.38a5.92,5.92,0,0,1-6-.13l-351.4-219.48a5.88,5.88,0,1,1,6.23-10l351.4,219.48a5.86,5.86,0,0,1-.23,10.1Z"/><circle class="cls-46" cx="1742.06" cy="1426.64" r="27.57" transform="translate(-24.92 30.99) rotate(-1.01)"/><path class="cls-47" d="M1728.62,1416.35c3.75.65,5.91,6.24,4.82,12.49s-5,10.79-8.76,10.14-5.91-6.25-4.82-12.5S1724.87,1415.69,1728.62,1416.35Z"/><path class="cls-47" d="M1737.63,1408.92c.67,1.18-.37,3-2.31,4.12s-4.06,1-4.72-.16.37-3,2.31-4.12S1737,1407.74,1737.63,1408.92Z"/><path class="cls-8" d="M1184.53,2607H840.74a.47.47,0,0,0,.37-.26,310.73,310.73,0,0,1,22-28.69c27.2-31.39,60.7-56.09,101.08-67.5l40-11.31L1166.81,2463l14.16,115Z"/><path class="cls-9" d="M994.09,2608.06H840.74a.48.48,0,0,0,.37-.25,309.39,309.39,0,0,1,22-28.69c27.2-31.39,60.7-56.1,101.08-67.51C964.19,2511.61,1030.92,2534.68,994.09,2608.06Z"/><path class="cls-10" d="M1184.53,2608.06H840.74a.48.48,0,0,0,.37-.25c6.82-10,14.14-19.63,25.33-28.69H1184.3Z"/><path class="cls-48" d="M2432.25,1588.85s.91,80.5-37.56,131.48l-49.93-77.54,12.44-44.34,18-16.63Z"/><path class="cls-49" d="M2496,1730.32c-21.71,21.25-92.75-19.31-92.75-19.31l-13.41-3.43-34.4-48.24,7.73-38,26.67-32.53s44.46,12.37,81,26c9.14,3.39,17.78,6.86,25.13,10.24.73.34,1.44.69,2.13,1.08C2532.13,1644.61,2517.27,1709.49,2496,1730.32Z"/><path class="cls-50" d="M2498.14,1626.13c-.69-.39-1.4-.74-2.13-1.08-7.35-3.38-16-6.85-25.13-10.24l-6.77,1.72-13.67,1.8s-22.25,28.2-5.4,27.46c8.74-.39,15.63-4.79,20.23-8.93-.58,9.58.18,28.3,14.94,29.52C2500.1,1668,2498.14,1626.13,2498.14,1626.13Z"/><path class="cls-49" d="M2483.39,1602.14c-25.64-13.31-49.3,0-49.3,0l-15.41-5.12-21.14,28.62,42.47,14.94c17.74,5.42,30.56-15.27,30.56-15.27s-2.87,35.59,8,40.74S2509,1615.45,2483.39,1602.14Z"/><path class="cls-41" d="M2194.35,2594.16h-205.3l-92.58-148.44,23.6-20.7,69-60.48,28.17-49,52.33,44.28,36.25,140.59,1.93.55c46.32,13.28,68.34,44.92,78.48,67.65C2192.74,2583.23,2194.35,2594.16,2194.35,2594.16Z"/><path class="cls-13" d="M2194.35,2594.16h-145a89.62,89.62,0,0,1-.55-9.88,88.33,88.33,0,0,1,58.94-83.3c46.32,13.28,68.34,44.92,78.48,67.65C2192.74,2583.23,2194.35,2594.16,2194.35,2594.16Z"/><path class="cls-10" d="M2194.35,2594.16h-205.3l-92.58-148.44,23.6-20.7,88.29,143.61h177.85C2192.74,2583.23,2194.35,2594.16,2194.35,2594.16Z"/><path class="cls-41" d="M2477.49,2594.16h343.79a.49.49,0,0,1-.38-.26,310.63,310.63,0,0,0-22-28.69c-27.2-31.39-60.7-56.09-101.08-67.5l-40.06-11.31-162.56-36.24-14.16,115.05Z"/><path class="cls-13" d="M2667.93,2595.19h153.35a.49.49,0,0,1-.38-.26,309.15,309.15,0,0,0-22-28.68c-27.2-31.4-60.7-56.1-101.08-67.51C2697.83,2498.74,2631.1,2521.81,2667.93,2595.19Z"/><path class="cls-10" d="M2477.49,2595.19h343.79a.49.49,0,0,1-.38-.26c-6.81-10-14.14-19.63-25.32-28.68H2477.72Z"/><path class="cls-13" d="M2394.69,1720.33l-187.24-86.17s58.59,183,84.89,205.83-199.82-25.17-199.82-25.17-75.55-235.37-76.21-240.74-13.42-140.21-10.74-148.93,23.8-100.19,23.8-100.19l48.93-32.57,49.4,38.57a106.53,106.53,0,0,1,29.81,36.5l68.08,136.71,8.08,16.24,198.58,68.44S2382,1643.19,2394.69,1720.33Z"/><path class="cls-10" d="M2088.92,1340.51l132.73,449.58s-103.82,96.87-207,75.27-18.82-246.73-18.82-246.73l-27.18-272.51,105.93-36.94Z"/><path class="cls-11" d="M2403.69,2129.24c-20.92,25.84-297.89,371.19-297.89,371.19s-97.2-6.15-145.19-156.26l258.86-274.7-155.38-139.56-35.82-115.09,64.25,8.15c24.06,1,44.53,2.16,66.86-2.83,3.44-.77,6.92-1.67,10.46-2.75l30.61-16.14,21.2-11.17s167.27,136.14,205.42,187.82a77.8,77.8,0,0,1,5.18,8C2461.15,2036.93,2423.54,2104.71,2403.69,2129.24Z"/><path class="cls-34" d="M2403.69,2129.24c-20.92,25.84-297.89,371.19-297.89,371.19s-97.2-6.15-145.19-156.26c0,0,308.75,7.41,471.64-358.26C2461.15,2036.93,2423.54,2104.71,2403.69,2129.24Z"/><path class="cls-34" d="M2200.45,1801.26h0l-30.61,16.14c-3.54,1.08-6.73,3.58-10.16,4.35l162.88,137Z"/><path class="cls-11" d="M2643.29,2432.59c-14.66,74.12-64.13,103.85-110.27,115h0c-47,11.33-90.47,3.43-90.47,3.43l-171.32-408.3s-26.47-29.32-172.09-107.19-134.63-190.24-134.63-190.24c9.49,1.25,19,2,28.41,2.34,117.86,4.25,191-37.63,191-37.63l232.19,252Z"/><path class="cls-34" d="M2533,2547.58c-47,11.33-90.47,3.43-90.47,3.43l-171.32-408.3s-26.47-29.32-172.09-107.19-134.63-190.24-134.63-190.24c9.49,1.25,19,2,28.41,2.34l.21,2s.22,122.22,184.67,192.39S2472,2537.59,2533,2547.58Z"/><path class="cls-13" d="M2169.84,1881.15c-122.39,69.52-252.26-29.35-252.26-29.35,26.11-45.78,31.94-105.41,27.94-166.32a725.11,725.11,0,0,0-9.17-74.81c-17.15-99.49-49.63-188.36-49.63-209.12,0-38.35,68.73-89.57,68.73-89.57l85,53.08c32.85,50.32,67.58,194.37,92.79,317.53,5.12,25.07,9.86,49.27,14.1,71.65C2161.19,1827.52,2169.84,1881.15,2169.84,1881.15Z"/><path class="cls-49" d="M1975.78,1296.15c-4.15-22.25-15.31-53.27-19.38-64.08a6.57,6.57,0,0,0-5.36-4.31,101.34,101.34,0,0,1-15.76-3.55c-2.1-.59-4.29-1.45-6.54-2.3,0,0-.06-.05-.11,0-14.17-5.67-28.79-16.48-28.73-36.65.21-42.88,42.14-25.89,42.14-25.89l39-104.08,3.79-10.15,9.67.39,85.45,3.76,10.19,55,4.91,26.39s23,117.08-39.84,127.11l3.83,32.44a19.28,19.28,0,0,1-6.86,17.13C2040.08,1317.28,2014.33,1328.78,1975.78,1296.15Z"/><path class="cls-50" d="M2055.2,1257.79c-7,1.19-31.06,3.34-53.63-20.16,0,0,4,33.15,55.59,36.71Z"/><path class="cls-50" d="M1936.11,1180.41c.88-5.75-6.22-9.5-10.51-5.58-3.57,3.26-5.89,9.21-.31,19.92,10.84,20.81,20.85,8.59,18.53,2.06s-9-8.13-7.74-16.16Z"/><path class="cls-51" d="M2026.43,1144.46a7.46,7.46,0,0,0-4.62-2.64,9.28,9.28,0,0,0-6.15,1.08c-3.64,1.93-7.39,7-6.2,11.18.5,1.73-1.19,3.53-2.8,3.77-2,.29-3.28-1.07-3.77-2.81-1-3.66.31-7.48,2.15-10.63a20,20,0,0,1,8-7.59c6.1-3.22,14.18-2,18.6,3.45,2.7,3.32-2.46,7.51-5.16,4.19Z"/><path class="cls-51" d="M2082.85,1132.4c-1.15-3.43-6.14-6.09-9.67-6-4.09.11-7.33,4.18-9,8a3.32,3.32,0,1,1-5.88-3.1c2.55-5.9,8.13-11.62,15-11.58,6.45,0,13.78,4.27,15.89,10.59a3.32,3.32,0,1,1-6.32,2.05Z"/><ellipse class="cls-51" cx="2078.73" cy="1150.84" rx="5.92" ry="9.44" transform="translate(-200.91 480.91) rotate(-12.59)"/><ellipse class="cls-51" cx="2025.77" cy="1162.67" rx="6.25" ry="9.96" transform="translate(-204.76 469.65) rotate(-12.59)"/><path class="cls-50" d="M1935.28,1224.22a98.11,98.11,0,0,0,15.76,3.51s14.12-1.9,13.44-15.42C1963.81,1213.71,1956.47,1228.15,1935.28,1224.22Z"/><path class="cls-16" d="M1867.55,1081.68a1,1,0,0,0-.17-1.86c-5.2-1.71-18.53-5.45-22.83-.55C1839.37,1085.18,1851.23,1090.69,1867.55,1081.68Z"/><path class="cls-16" d="M1870.49,1075.53a1.4,1.4,0,0,0,2-1.55c-1.81-7.25-7.19-25.38-16-26.77C1846,1045.53,1848.22,1063.23,1870.49,1075.53Z"/><path class="cls-50" d="M1917.58,1101.06l24.46,58.27s52.64-65.66,100.68-53.18c25.19,6.55,39.48,3,47.38-1.89l-10.19-55-85.45-3.76-13.46,9.76Z"/><path class="cls-52" d="M1882.29,1164.12h0a226.72,226.72,0,0,0,17.65,18.64s1.6-35.93,42-23.42c0,0,36.52-58.09,81.48-64.33,8.06-1.1,16.22.13,24,2.53,11.92,3.65,42.85,8.59,58.08-19.12,19.45-35.36-7.74-60.9-9.78-62.67a.2.2,0,0,1-.07-.1s-11.42-68.25-64.07-40c-11.26,6-24.6,17.38-33,19.38-33.8,7.76-44.68-16.6-64.14,8.87-24.31,31.82-62.11,29.26-47.73,78.81C1886.79,1082.69,1830.06,1101.9,1882.29,1164.12Z"/><path class="cls-16" d="M1882.34,1164.11a226.72,226.72,0,0,0,17.65,18.64s1.6-35.93,42-23.42c0,0,36.52-58.09,81.48-64.33,8.06-1.1,16.22.13,24,2.53,11.92,3.65,42.85,8.59,58.08-19.12,19.45-35.36-7.74-60.9-9.78-62.67,1,2.43,19.67,49.85-15.64,67.27-36.26,17.83-49.25-22.42-88.45,8.46s-75.59,31-89.87,9C1901.86,1100.47,1921.49,1160.94,1882.34,1164.11Z"/><path class="cls-16" d="M1908.29,1036.34s-37.13,34,9,62.44C1917.26,1098.78,1886,1071.28,1908.29,1036.34Z"/><path class="cls-16" d="M2084.73,1037.57s7.13,38-47.78,37.12C2037,1074.69,2072.47,1071.6,2084.73,1037.57Z"/><path class="cls-16" d="M2075.52,1002.74s-10-37.78-47.64-16.06C2027.88,986.68,2062.18,976.42,2075.52,1002.74Z"/><path class="cls-16" d="M2022.88,1015.58s9.53,17.22-14.82,29.48c0,0-13.27,55-73.24,40.12,0,0,54.11,5.46,66.23-43.52C2001.05,1041.66,2020.61,1038.05,2022.88,1015.58Z"/><path class="cls-53" d="M2052.58,1212.63c-.18,10.73,5.49,16.37,12.59,16.48s12.95-5.32,13.13-16.06-5.52-14.51-12.62-14.62S2052.76,1201.89,2052.58,1212.63Z"/><path class="cls-30" d="M935.88,2000.3l-10-16.1c.12-.08,16.23-10.48,34.07-37.49,16.55-25,38-69.91,46.2-141.28,15.72-136.94,14.54-162.63,14.45-164.08l-.06-.69.06-.77c3.41-46.19,22.18-89.29,55.78-128.08a110.29,110.29,0,0,1,116.78-33l471.73,149.66a527.44,527.44,0,0,0,159.62,24.71h853.92v18.94H1824.52a546,546,0,0,1-165.35-25.6l-471.73-149.65a91.33,91.33,0,0,0-96.73,27.33c-30.74,35.49-48,74.69-51.17,116.52.21,5.6.28,37.62-14.56,166.86C1008.18,1953.86,938.82,1998.47,935.88,2000.3Z"/><path class="cls-50" d="M2518.54,1701.64c-2.19,18.78-16,35.55-37.53,34.68-37.39-1.5-67.5-11.47-77.75-28.61,0,0-.43-4.13-.61-10.24-.42-13.34.37-36.14,9.44-46,13.22-14.37,61.8-11.21,91,11.78C2515.53,1673,2520.15,1687.85,2518.54,1701.64Z"/><path class="cls-49" d="M2518.54,1701.64c-2.19,18.78-16,35.55-37.53,34.68-37.39-1.5-67.5-11.47-77.75-28.61,0,0-.43-4.13-.61-10.24.4-12.69,2.47-27.88,9.44-35.46,13.22-14.37,61.8-11.21,91,11.79A41,41,0,0,1,2518.54,1701.64Z"/><polygon class="cls-48" points="2130.9 1407.99 2215.73 1581.82 2192.62 1581.82 2130.9 1407.99"/><path class="cls-7" d="M2066.3,1326.42s87.81,194.82,139.85,243.59a35.76,35.76,0,0,1,11.16,28.85c-1.18,15.54-1.82,36.28,2,46.23,6.5,17.05-97.41,17.05-115.27-32.47s-61.78-272.19-61.78-272.19Z"/><path class="cls-8" d="M2070.48,1326.42s88.77,192.76,140.8,241.53a35.76,35.76,0,0,1,11.17,28.85c-1.19,15.54-1.82,36.28,2,46.23,6.49,17-97.42,17-115.28-32.47s-61.77-272.19-61.77-272.19Z"/><path class="cls-54" d="M2038,1350.06l.46-4.08,4.28-37.72,9.81-6,24.2,16.18,1.95,1.29S2086.92,1365.87,2038,1350.06Z"/><path class="cls-7" d="M2038.49,1346l4.28-37.72,9.81-6,24.2,16.18C2077.49,1328.73,2076.11,1356.8,2038.49,1346Z"/><path class="cls-11" d="M1970.48,1274.34l-15,37.63s35.4,48.91,85,53.09l2.37-56.8S1997.72,1295.6,1970.48,1274.34Z"/><polygon class="cls-11" points="2056.2 1266.21 2052.58 1302.23 2097.43 1340.51 2078.3 1292.39 2056.2 1266.21"/><path class="cls-48" d="M2115.62,1668.82l8.91,9.94-150.93-25.44s-10.56-44.66-13-54.65-33.49-95.8-33.49-95.8l-5.26-63.83,70.22,8.83,60.5,132.37,43.22,4.89Z"/><path class="cls-48" d="M2147.29,1754.24c-109.45-2.91-201.77-68.76-201.77-68.76a725.11,725.11,0,0,0-9.17-74.81l87.28,23.44,109.56,48.48C2138.31,1707.66,2143.05,1731.86,2147.29,1754.24Z"/><path class="cls-49" d="M2291.22,1744.94c-4.76,5.44-13,7.72-22.5,8.16-.63,0-1.28.05-1.92.07h-.06c-.59,0-1.19,0-1.79,0-25.73,0-58.33-11.72-58.33-11.72s-11.12,1.59-28.83,3.71l10.47-108.67c6.18-1.51,11.26-3.71,15.2-6.94,12.4-10.19,26.54-12.24,42-11.72,15.14.52,31.51,3.49,48.7,3.64C2328.83,1621.79,2309.12,1724.55,2291.22,1744.94Z"/><path class="cls-49" d="M2265,1753.19a9.58,9.58,0,0,1,1.79,0Z"/><path class="cls-50" d="M2291.22,1744.94c-4.76,5.43-13,7.73-22.5,8.16,19.33-2.71,48.78-65.12,40.59-100.41-8.46-36.49-23.78-16.59-54.95-21.33s-8.93-13.51-8.93-13.51h0c15.15.51,31.52,3.49,48.71,3.64C2328.83,1621.79,2309.12,1724.54,2291.22,1744.94Z"/><path class="cls-13" d="M2200.16,1751.51c-107.56-7.33-177.55-34-218.49-56.17a251.15,251.15,0,0,1-38.12-24.89,36.07,36.07,0,0,1-11.74-17.32q-7.1-22.86-12.86-43.3c-48.81-172.89-30.15-220.56-30.15-220.56,29-44,58.8-19.92,77.06,4.31a150.88,150.88,0,0,1,22.35,42.78l52.19,155.15,172.06,25.5C2180.67,1674.93,2200.16,1751.51,2200.16,1751.51Z"/><path class="cls-14" d="M1987.74,1669a59.73,59.73,0,0,1-6.07,26.3,251.15,251.15,0,0,1-38.12-24.89,36.07,36.07,0,0,1-11.74-17.32q-7.1-22.86-12.86-43.3a59.92,59.92,0,0,1,68.79,59.21Z"/><ellipse class="cls-14" cx="2108.42" cy="1729.94" rx="4.05" ry="9.48" transform="translate(86.22 3559.92) rotate(-81.51)"/><ellipse class="cls-14" cx="2130.9" cy="1734.18" rx="4.05" ry="9.48" transform="translate(101.19 3585.77) rotate(-81.51)"/><ellipse class="cls-14" cx="2154.23" cy="1736.78" rx="4.05" ry="9.48" transform="translate(118.51 3611.06) rotate(-81.51)"/><path class="cls-48" d="M2233.67,1520.41s-23.42,17.92-26.57,26.78-8.83-30.32,17.61-42.62l.88-.4Z"/><path class="cls-8" d="M1702.1,2594.16h205.3L2000,2445.72l-23.59-20.7-69-60.48-72.06-11.85-8.45,7.15-36.25,140.59-1.92.55c-46.32,13.28-68.34,44.92-78.49,67.65C1703.71,2583.23,1702.1,2594.16,1702.1,2594.16Z"/><path class="cls-9" d="M1702.1,2594.16h145a89.62,89.62,0,0,0,.55-9.88,88.33,88.33,0,0,0-58.94-83.3c-46.32,13.28-68.34,44.92-78.49,67.65C1703.71,2583.23,1702.1,2594.16,1702.1,2594.16Z"/><path class="cls-10" d="M1702.1,2594.16h205.3L2000,2445.72l-23.59-20.7-88.3,143.61H1710.23C1703.71,2583.23,1702.1,2594.16,1702.1,2594.16Z"/><path class="cls-55" d="M1453.36,1840l-50.11,157.82-34.39,108.29-240.15,60.39a29.58,29.58,0,0,0-20.6,35.61l84.32,309.51c-30.69-3.42-57.91-5.59-81.77-6.87-89.15-4.81-131.31,2.65-131.31,2.65L905.3,2147.66a109,109,0,0,1,74-124.91l258.78-82.06Z"/><path class="cls-56" d="M1108.11,2202.1l84.32,309.51c-30.69-3.42-57.91-5.59-81.77-6.87l-58.77-332.35a56.33,56.33,0,0,1,36.63-62.89l314.73-111.69-34.39,108.29-240.15,60.39A29.58,29.58,0,0,0,1108.11,2202.1Z"/><path class="cls-57" d="M1896.47,2393.37C1865,2449.05,1791,2500.43,1791,2500.43l-329-206.37c-159.52-131.07-208.61-363.71-208.61-363.71l200-90.36c33.69,53.76,36.16,83.27,37.49,118.75.61,16.58,1,34.48,4.16,56.77,10,70,63.81,154.51,63.81,154.51L1910,2341.91C1911.87,2358.55,1906.21,2376.17,1896.47,2393.37Z"/><path class="cls-8" d="M1453.36,1840c-41.78,105-215.3,100.7-215.3,100.7s-3.46-69.88-44.42-140.49a290.67,290.67,0,0,0-37.21-50.86c-30.46-33.22-32-74.85-22.78-112.9,13.79-57.21,51.76-106.29,51.76-106.29,51.25-3.51,68.69-31.17,68.69-31.17s94.71-133.42,90-24.62S1453.36,1840,1453.36,1840Z"/><path class="cls-49" d="M1058.76,1330.92s.28,5,1.24,13.26v0c2.29,19.43,8.26,56.32,22.71,84.51,1.17,2.25,2.33,4.41,3.61,6.49a77.45,77.45,0,0,0,16.26,20,49.65,49.65,0,0,0,4.77,3.56c14.22,9.57,37.13,19.39,60.72,7,0,0,2,3.29,4.72,8.65,6.37,12.54,16.38,36.37,12.62,55.8,0,0,49.22,5.84,68.69-31.16l-52.35-76.91s30.92-32.2,12.9-56.07-36.53.48-36.53.48l-.12-.36c-1.24-3.77-12.54-34.61-50.55-32.76C1087,1335.33,1058.76,1330.92,1058.76,1330.92Z"/><path class="cls-50" d="M1188.23,1381.49a5.79,5.79,0,0,1,8.27-7c3.81,2.2,7,7,4.14,17.66-5.6,20.62-16.87,11.69-16.08,5.43s6.47-9,3.75-15.88A1.8,1.8,0,0,1,1188.23,1381.49Z"/><path class="cls-53" d="M1086.32,1435.22a77.45,77.45,0,0,0,16.26,20,49.65,49.65,0,0,0,4.77,3.56c5.12-7.25,7.05-17.1,7.81-24.31a6.23,6.23,0,0,0-8.29-6.53Z"/><path class="cls-50" d="M1168.07,1465.7s2,3.29,4.72,8.65c17.23-13.46,8.65-34.68,8.65-34.68C1180.16,1457.53,1168.07,1465.7,1168.07,1465.7Z"/><path class="cls-50" d="M1058.76,1330.92s.28,5,1.24,13.26v0a59.83,59.83,0,0,0,21.91,11.34,72.16,72.16,0,0,0,36.57.72c14.26-3.33,40-6,59.64,10.21l-.12-.36c-1.24-3.77-12.54-34.61-50.55-32.76C1087,1335.33,1058.76,1330.92,1058.76,1330.92Z"/><path class="cls-58" d="M1124.37,1348c34.8-9.18,53.75,18.46,53.75,18.46,2.24-6.65,25.23-22,38.65,2.84s-17.22,52.67-17.22,52.67,16.22,112,164.9,108.51c0,0,64.64-19.43,59.67-74.66s69.66-9.45,43.26-84c-11.05-31.32-25.23-30.48-47.5-31.24-30.84-1.09-77.18-5.21-152.4-101.54-46.9-60-184.69-40.89-216.69,18.19v0a53.94,53.94,0,0,0-6.65,24C1041.54,1358.4,1089.56,1357.24,1124.37,1348Z"/><path class="cls-59" d="M1419.88,1340.58c22.27.76,36.45-.08,47.5,31.24,26.4,74.58-48.22,28.84-43.26,84s-59.67,74.66-59.67,74.66C1215.77,1534,1199.55,1422,1199.55,1422s30.64-27.83,17.22-52.67-36.41-9.49-38.65-2.84c0,0-18.95-27.64-53.75-18.46s-82.83,10.37-80.23-66.73a53.94,53.94,0,0,1,6.65-24c-.2,2.36-8.61,99.37,68.41,78.1,0,0,47.06-9,59.64,17.5,0,0,51.11-29.16,49.75,37.65,0,0-3.61,23.75-17.47,34,0,0,45.26,116.11,164,90.12,0,0,42.8-23.23,34-62.42-1.47-6.5-1.68-13.26.4-19.6,3.87-11.81,13.65-27.89,38.24-29.1,0,0,19.72,1.42,6.57-33.7C1441.44,1335.5,1419.88,1340.58,1419.88,1340.58Z"/><path class="cls-59" d="M1389.1,1458.73s-7.72,51.23-70.5,39.27-92.92-79.59-92.92-79.59S1322.57,1537,1389.1,1458.73Z"/><path class="cls-59" d="M1068.83,1250.73s-11.24,83.31,68.2,70.53C1137,1321.26,1082.78,1325.52,1068.83,1250.73Z"/><path class="cls-59" d="M1111.54,1236.09s19,84,114.14,82.85C1225.68,1318.94,1152.6,1305.37,1111.54,1236.09Z"/><path class="cls-59" d="M1244.46,1327.64s19,12,28,69.87,108.46,33.19,108.46,33.19-89.83,9.06-100.48-38.18S1262.76,1333.63,1244.46,1327.64Z"/><path class="cls-59" d="M1204.81,1224.86s31.6,21.85,74.53,88.58,75.69,83.11,135.78,60.28c0,0-74.91,13.85-113.93-49.36S1204.81,1224.86,1204.81,1224.86Z"/><path class="cls-51" d="M1104.51,1368.06a56.48,56.48,0,0,0-7.12,5.68,70,70,0,0,0-12.89,15.74c-.75,1.25.19,3.35,1.82,3.16,3.38-.38,6.78-.63,10.17-.8,2.75-.14,5.5-.21,8.24-.13a22,22,0,0,1,6.48.86c2.58.84,3.68-3.22,1.12-4.06a26.12,26.12,0,0,0-7-1c-2.83-.12-5.67,0-8.51.08-3.49.17-7,.43-10.46.82l1.82,3.17a65.74,65.74,0,0,1,12.23-14.88q1.28-1.17,2.61-2.28c.74-.61,1.36-1.09,1.81-1.43.6-.46,1.21-.91,1.84-1.32,2.26-1.47.16-5.11-2.12-3.63Z"/><path class="cls-51" d="M1084.23,1387.85a96.56,96.56,0,0,1,8.33-13.18,2.11,2.11,0,0,0-.75-2.88,2.16,2.16,0,0,0-2.88.76,95.5,95.5,0,0,0-8.33,13.17,2.1,2.1,0,0,0,3.63,2.13Z"/><path class="cls-9" d="M1335.07,1601.09s-63.82,152-141.43,199.11a290.67,290.67,0,0,0-37.21-50.86c-30.46-33.22-32-74.85-22.78-112.9l83.56-35.35,58.28-11.76,46.17.46Z"/><path class="cls-49" d="M1271.78,1688.91s-99.87,160.25-175.62,130c-60.72-24.2-83.05-90.06,11.33-276.66,0,0-3.49-27.31,4.44-47a0,0,0,0,1,0,0s0-.08,0-.14c3.28-8.11,8.51-14.92,16.71-18,30.49-11.42,92.93-16.8,107,17.18,11.45,27.75,6.47,53.38-7.79,73.29a86.59,86.59,0,0,1-10.9,12.51l-30.65,46.74a87.66,87.66,0,0,1,22.51,3.39C1231.7,1636.47,1260.56,1638,1271.78,1688.91Z"/><path class="cls-50" d="M1208.83,1630.19l-.64,3.27-57.77,62.93,35.9-69.59A87.66,87.66,0,0,1,1208.83,1630.19Z"/><path class="cls-8" d="M1320.07,1531a53,53,0,0,0-26.89-9.65c-20.93-1.72-41.21,7.86-53.85,24.64l-53,80.84s60.42,2.94,85.46,62.12l63.29-87.82C1348.46,1577.27,1342.31,1546.82,1320.07,1531Z"/><path class="cls-50" d="M1227.87,1567.55a108,108,0,0,0-4.52-20.09c-8.46-25.32,5.87-32.3,0-54s-51.4-18.35-78.19-16.15c-25.13,2.06-32.35,16-33.16,17.71,3.28-8.11,8.51-14.92,16.71-18,30.49-11.42,92.93-16.8,107,17.18C1247.11,1522,1242.13,1547.64,1227.87,1567.55Z"/><path class="cls-50" d="M1060.2,1707.81c-13.32,12-30.91,14.36-46.09,9.9a50.54,50.54,0,0,1-17-8.71c-11.52-9.11-18.37-23.33-14.77-40.15,8.9-41.72,25.91-73.62,47.16-81.83,0,0,4.72.31,11.61,1.3,8.4,1.16,20,3.33,30.27,7.11,8.16,3,15.44,7,19.58,12.37C1104.61,1625.43,1091.69,1679.39,1060.2,1707.81Z"/><path class="cls-49" d="M1044.67,1699.55c-13.33,12-30.92,14.36-46.1,9.89-.48-.14-.94-.28-1.41-.44-11.52-9.11-18.37-23.33-14.77-40.15,8.9-41.72,25.91-73.62,47.16-81.83,0,0,4.72.31,11.61,1.3,8.4,1.16,20,3.33,30.27,7.11a24.92,24.92,0,0,1,4,4.11C1089.08,1617.16,1076.15,1671.12,1044.67,1699.55Z"/><path class="cls-60" d="M1896.47,2393.37l-332.09-203.92-38.69,26.07,12.69-43.63c-78.19-166.24-47.54-213.14-47.54-213.14h0c.61,16.58,1,34.48,4.16,56.77,10,70,63.81,154.51,63.81,154.51L1910,2341.91C1911.87,2358.55,1906.21,2376.17,1896.47,2393.37Z"/></g></g></svg>